{"glyphs":{"0":{"ha":860,"x_min":94,"x_max":774,"o":"m 435 349 q 380 370 403 349 q 356 427 356 390 q 380 485 356 465 q 435 505 403 505 q 490 485 467 505 q 513 427 513 465 q 490 370 513 390 q 435 349 467 349 m 435 -15 q 310 8 371 -15 q 200 82 249 31 q 123 218 151 133 q 94 428 94 303 q 123 637 94 552 q 200 773 151 722 q 310 846 249 824 q 435 869 371 869 q 558 846 498 869 q 667 773 619 824 q 745 637 716 722 q 774 428 774 552 q 745 218 774 303 q 667 82 716 133 q 558 8 619 31 q 435 -15 498 -15 m 435 119 q 508 149 474 119 q 563 246 542 178 q 583 428 583 313 q 563 608 583 541 q 508 705 542 676 q 435 735 474 735 q 361 705 395 735 q 306 608 326 676 q 285 428 285 541 q 306 246 285 313 q 361 149 326 178 q 435 119 395 119 z "},"1":{"ha":860,"x_min":135,"x_max":741,"o":"m 249 0 q 170 18 196 0 q 144 67 144 35 q 249 133 144 133 l 351 133 l 351 681 q 290 650 326 660 q 216 640 253 640 q 179 646 197 640 q 148 666 160 651 q 135 706 135 680 q 148 747 135 732 q 180 768 160 762 q 217 775 199 775 q 303 793 267 776 q 362 833 339 810 q 399 856 378 847 q 450 865 419 865 q 516 836 497 865 q 534 744 534 808 l 534 133 l 635 133 q 741 67 741 133 q 715 18 741 35 q 635 0 689 0 l 249 0 z "},"2":{"ha":860,"x_min":111,"x_max":742,"o":"m 717 615 q 685 494 717 556 q 605 374 653 432 q 505 266 557 315 q 408 182 452 217 q 344 134 365 148 l 635 134 q 716 117 690 134 q 742 67 742 99 q 716 17 742 35 q 635 0 690 0 l 213 0 q 135 22 158 0 q 111 78 111 44 q 130 132 111 112 q 185 180 148 153 q 267 248 221 208 q 359 333 313 288 q 445 427 406 378 q 509 522 485 476 q 533 610 533 569 q 502 702 533 670 q 417 735 471 735 q 338 714 374 735 q 275 667 302 693 q 233 635 254 649 q 189 622 213 622 q 136 642 162 622 q 111 692 111 663 q 163 778 111 737 q 272 842 206 816 q 422 868 338 868 q 636 806 556 868 q 717 615 717 744 z "},"3":{"ha":860,"x_min":138,"x_max":749,"o":"m 138 138 q 160 191 138 169 q 211 213 182 213 q 256 200 234 213 q 297 169 278 188 q 350 132 319 147 q 423 118 381 118 q 498 133 465 118 q 548 177 530 149 q 567 244 567 205 q 543 311 567 284 q 482 353 519 338 q 404 369 444 367 q 351 389 374 373 q 328 437 328 404 q 351 486 328 473 q 404 503 374 499 q 477 520 444 506 q 529 561 510 535 q 549 624 549 587 q 533 685 549 660 q 489 723 517 710 q 424 735 460 735 q 360 722 394 735 q 298 683 325 709 q 258 651 274 662 q 215 640 241 640 q 165 661 185 640 q 145 713 145 683 q 192 790 145 756 q 291 846 231 823 q 424 869 351 869 q 573 845 503 869 q 687 773 643 822 q 731 645 731 724 q 707 549 731 591 q 644 478 683 506 q 558 440 605 451 q 655 402 611 427 q 724 336 698 376 q 749 237 749 296 q 705 100 749 156 q 586 14 660 43 q 425 -15 512 -15 q 287 7 349 -15 q 182 63 226 29 q 148 100 158 81 q 138 138 138 119 z "},"4":{"ha":860,"x_min":76,"x_max":782,"o":"m 562 -13 q 493 10 518 -13 q 469 91 469 34 l 469 221 l 186 221 q 104 243 133 221 q 76 308 76 266 q 82 354 76 327 q 95 404 88 381 l 231 803 q 266 853 242 837 q 317 869 290 869 q 369 850 346 869 q 392 793 392 831 q 392 778 392 786 q 388 760 391 769 l 253 355 l 469 355 l 469 692 q 483 747 469 727 q 516 776 496 767 q 556 784 536 784 q 597 776 577 784 q 630 747 617 767 q 643 692 643 727 l 643 355 l 698 355 q 760 337 738 355 q 782 288 782 319 q 760 238 782 256 q 698 221 738 221 l 643 221 l 643 91 q 619 10 643 34 q 562 -13 595 -13 z "},"5":{"ha":860,"x_min":101,"x_max":753,"o":"m 463 575 q 608 545 542 575 q 714 452 674 516 q 753 288 753 389 q 724 155 753 212 q 644 60 694 98 q 528 4 593 23 q 391 -15 463 -15 q 265 1 324 -15 q 164 44 206 16 q 117 86 134 63 q 101 135 101 110 q 120 187 101 166 q 175 208 139 208 q 220 198 203 208 q 253 174 238 188 q 310 135 276 151 q 392 119 343 119 q 483 138 443 119 q 544 193 522 156 q 567 284 567 230 q 523 402 567 360 q 409 444 478 444 q 328 428 360 444 q 267 380 297 412 q 235 354 252 363 q 197 345 219 345 q 134 365 155 345 q 114 429 114 385 q 118 471 114 437 q 129 551 122 505 q 142 645 135 598 q 155 730 149 693 q 162 778 160 766 q 196 840 169 820 q 273 860 222 860 l 624 860 q 703 843 681 860 q 725 793 725 826 q 703 744 725 761 q 624 726 681 726 l 318 726 l 291 511 q 362 558 320 540 q 463 575 404 575 z "},"6":{"ha":860,"x_min":86,"x_max":761,"o":"m 494 578 q 688 507 614 578 q 761 291 761 435 q 720 129 761 198 q 604 23 679 60 q 426 -15 528 -15 q 246 31 322 -15 q 128 172 169 76 q 86 417 86 267 q 119 617 86 532 q 210 757 153 701 q 338 840 267 813 q 484 868 409 868 q 598 849 545 868 q 684 801 651 831 q 717 737 717 772 q 700 689 717 707 q 652 670 684 670 q 607 680 625 670 q 572 702 589 690 q 535 725 556 715 q 481 734 514 734 q 388 708 431 734 q 315 628 344 681 q 278 493 286 574 q 277 481 278 487 q 276 469 277 475 q 372 549 315 519 q 494 578 430 578 m 283 269 q 336 152 299 186 q 424 119 372 119 q 535 161 493 119 q 577 291 577 203 q 557 384 577 351 q 503 432 536 418 q 435 446 471 446 q 366 428 399 446 q 310 372 333 411 q 283 269 287 333 z "},"7":{"ha":860,"x_min":148,"x_max":735,"o":"m 148 793 q 173 843 148 826 q 249 860 199 860 l 624 860 q 735 775 735 860 q 725 719 735 743 q 695 663 715 696 q 600 500 647 590 q 523 308 553 410 q 492 95 492 206 q 399 -11 492 -11 q 329 19 353 -11 q 305 105 305 49 q 329 292 305 200 q 391 468 353 385 q 472 617 429 551 q 553 726 515 683 l 249 726 q 173 743 199 726 q 148 793 148 760 z "},"8":{"ha":860,"x_min":91,"x_max":765,"o":"m 429 -15 q 252 16 328 -15 q 134 104 176 47 q 91 242 91 161 q 135 382 91 328 q 246 462 180 435 q 161 535 194 490 q 128 643 128 581 q 169 766 128 715 q 277 842 209 816 q 429 868 346 868 q 580 842 512 868 q 688 766 647 816 q 728 643 728 715 q 695 535 728 581 q 610 461 663 490 q 720 381 676 435 q 765 242 765 328 q 723 104 765 161 q 605 16 681 47 q 429 -15 529 -15 m 269 252 q 316 151 269 183 q 429 118 363 118 q 541 151 495 118 q 587 252 587 183 q 564 328 587 298 q 506 373 542 358 q 429 388 469 388 q 352 373 388 388 q 292 328 315 358 q 269 252 269 298 m 297 629 q 332 551 297 582 q 429 520 367 520 q 524 551 489 520 q 560 629 560 582 q 522 707 560 679 q 429 735 484 735 q 335 707 373 735 q 297 629 297 679 z "},"9":{"ha":860,"x_min":88,"x_max":752,"o":"m 413 869 q 590 832 514 869 q 709 711 667 794 q 752 487 752 627 q 695 222 752 329 q 528 59 638 115 q 261 4 419 4 q 177 24 206 4 q 147 77 147 44 q 175 128 147 110 q 258 147 203 147 q 406 173 346 147 q 501 249 467 199 q 547 370 536 299 q 463 310 513 335 q 353 286 413 286 q 215 318 275 286 q 122 414 156 351 q 88 572 88 478 q 128 731 88 665 q 240 833 167 798 q 413 869 313 869 m 271 571 q 289 480 271 515 q 338 428 308 444 q 407 412 369 412 q 482 431 449 412 q 535 484 514 449 q 560 566 556 519 q 535 670 555 633 q 484 720 515 706 q 413 734 453 734 q 308 694 344 734 q 271 571 271 654 z "},"A":{"ha":860,"x_min":56,"x_max":803,"o":"m 142 -13 q 80 8 103 -13 q 56 69 56 30 q 58 88 56 78 q 62 109 59 98 l 267 753 q 317 831 281 801 q 397 862 352 862 l 461 862 q 542 831 507 862 q 591 753 577 801 l 797 109 q 801 88 800 98 q 803 69 803 78 q 779 8 803 30 q 717 -13 756 -13 q 646 11 669 -13 q 611 85 623 35 l 572 206 l 287 206 l 248 85 q 213 11 236 35 q 142 -13 190 -13 m 320 344 l 539 344 l 441 679 q 435 705 438 692 q 429 726 432 717 q 424 705 427 717 q 418 679 422 692 l 320 344 z "},"Á":{"ha":860,"x_min":56,"x_max":803,"o":"m 142 -13 q 80 8 103 -13 q 56 69 56 30 q 58 88 56 78 q 62 109 59 98 l 267 753 q 317 831 281 801 q 397 862 352 862 l 461 862 q 542 831 507 862 q 591 753 577 801 l 797 109 q 801 88 800 98 q 803 69 803 78 q 779 8 803 30 q 717 -13 756 -13 q 646 11 669 -13 q 611 85 623 35 l 572 206 l 287 206 l 248 85 q 213 11 236 35 q 142 -13 190 -13 m 320 344 l 539 344 l 441 679 q 435 705 438 692 q 429 726 432 717 q 424 705 427 717 q 418 679 422 692 l 320 344 m 407 917 q 381 925 391 917 q 372 947 372 933 q 396 1001 372 968 l 433 1051 q 480 1099 460 1087 q 541 1112 501 1112 l 570 1112 q 605 1101 592 1112 q 618 1074 618 1091 q 592 1028 618 1051 l 531 970 q 469 930 499 942 q 407 917 440 917 z "},"Ă":{"ha":860,"x_min":56,"x_max":803,"o":"m 142 -13 q 80 8 103 -13 q 56 69 56 30 q 58 88 56 78 q 62 109 59 98 l 267 753 q 317 831 281 801 q 397 862 352 862 l 461 862 q 542 831 507 862 q 591 753 577 801 l 797 109 q 801 88 800 98 q 803 69 803 78 q 779 8 803 30 q 717 -13 756 -13 q 646 11 669 -13 q 611 85 623 35 l 572 206 l 287 206 l 248 85 q 213 11 236 35 q 142 -13 190 -13 m 320 344 l 539 344 l 441 679 q 435 705 438 692 q 429 726 432 717 q 424 705 427 717 q 418 679 422 692 l 320 344 m 546 1106 q 586 1092 572 1106 q 600 1056 600 1078 q 594 1027 600 1042 q 572 996 588 1011 q 517 941 553 964 q 428 919 481 919 q 346 939 379 919 q 293 988 313 959 q 267 1022 274 1004 q 259 1054 259 1040 q 274 1091 259 1077 q 313 1106 289 1106 q 358 1091 344 1106 q 375 1058 372 1077 q 390 1024 379 1040 q 430 1008 401 1008 q 469 1024 458 1008 q 483 1057 480 1040 q 500 1091 487 1076 q 546 1106 514 1106 z "},"Ắ":{"ha":860,"x_min":56,"x_max":803,"o":"m 142 -13 q 80 8 103 -13 q 56 69 56 30 q 58 88 56 78 q 62 109 59 98 l 267 753 q 317 831 281 801 q 397 862 352 862 l 461 862 q 542 831 507 862 q 591 753 577 801 l 797 109 q 801 88 800 98 q 803 69 803 78 q 779 8 803 30 q 717 -13 756 -13 q 646 11 669 -13 q 611 85 623 35 l 572 206 l 287 206 l 248 85 q 213 11 236 35 q 142 -13 190 -13 m 320 344 l 539 344 l 441 679 q 435 705 438 692 q 429 726 432 717 q 424 705 427 717 q 418 679 422 692 l 320 344 m 546 1106 q 586 1092 572 1106 q 600 1056 600 1078 q 594 1027 600 1042 q 572 996 588 1011 q 517 941 553 964 q 428 919 481 919 q 346 939 379 919 q 293 988 313 959 q 267 1022 274 1004 q 259 1054 259 1040 q 274 1091 259 1077 q 313 1106 289 1106 q 358 1091 344 1106 q 375 1058 372 1077 q 390 1024 379 1040 q 430 1008 401 1008 q 469 1024 458 1008 q 483 1057 480 1040 q 500 1091 487 1076 q 546 1106 514 1106 m 407 1162 q 381 1170 391 1162 q 372 1192 372 1178 q 396 1246 372 1213 l 433 1296 q 480 1344 460 1331 q 541 1356 501 1356 l 570 1356 q 605 1346 592 1356 q 618 1319 618 1335 q 592 1272 618 1296 l 531 1215 q 469 1174 499 1186 q 407 1162 440 1162 z "},"Ặ":{"ha":860,"x_min":56,"x_max":803,"o":"m 142 -13 q 80 8 103 -13 q 56 69 56 30 q 58 88 56 78 q 62 109 59 98 l 267 753 q 317 831 281 801 q 397 862 352 862 l 461 862 q 542 831 507 862 q 591 753 577 801 l 797 109 q 801 88 800 98 q 803 69 803 78 q 779 8 803 30 q 717 -13 756 -13 q 646 11 669 -13 q 611 85 623 35 l 572 206 l 287 206 l 248 85 q 213 11 236 35 q 142 -13 190 -13 m 320 344 l 539 344 l 441 679 q 435 705 438 692 q 429 726 432 717 q 424 705 427 717 q 418 679 422 692 l 320 344 m 429 -272 q 356 -241 386 -272 q 326 -167 326 -211 q 356 -93 326 -124 q 429 -62 386 -62 q 503 -93 473 -62 q 533 -167 533 -124 q 503 -242 533 -213 q 429 -272 473 -272 m 546 1106 q 586 1092 572 1106 q 600 1056 600 1078 q 594 1027 600 1042 q 572 996 588 1011 q 517 941 553 964 q 428 919 481 919 q 346 939 379 919 q 293 988 313 959 q 267 1022 274 1004 q 259 1054 259 1040 q 274 1091 259 1077 q 313 1106 289 1106 q 358 1091 344 1106 q 375 1058 372 1077 q 390 1024 379 1040 q 430 1008 401 1008 q 469 1024 458 1008 q 483 1057 480 1040 q 500 1091 487 1076 q 546 1106 514 1106 z "},"Ằ":{"ha":860,"x_min":56,"x_max":803,"o":"m 142 -13 q 80 8 103 -13 q 56 69 56 30 q 58 88 56 78 q 62 109 59 98 l 267 753 q 317 831 281 801 q 397 862 352 862 l 461 862 q 542 831 507 862 q 591 753 577 801 l 797 109 q 801 88 800 98 q 803 69 803 78 q 779 8 803 30 q 717 -13 756 -13 q 646 11 669 -13 q 611 85 623 35 l 572 206 l 287 206 l 248 85 q 213 11 236 35 q 142 -13 190 -13 m 320 344 l 539 344 l 441 679 q 435 705 438 692 q 429 726 432 717 q 424 705 427 717 q 418 679 422 692 l 320 344 m 546 1106 q 586 1092 572 1106 q 600 1056 600 1078 q 594 1027 600 1042 q 572 996 588 1011 q 517 941 553 964 q 428 919 481 919 q 346 939 379 919 q 293 988 313 959 q 267 1022 274 1004 q 259 1054 259 1040 q 274 1091 259 1077 q 313 1106 289 1106 q 358 1091 344 1106 q 375 1058 372 1077 q 390 1024 379 1040 q 430 1008 401 1008 q 469 1024 458 1008 q 483 1057 480 1040 q 500 1091 487 1076 q 546 1106 514 1106 m 469 1156 q 406 1168 436 1156 q 344 1208 376 1181 l 284 1267 q 258 1313 258 1290 q 271 1340 258 1330 q 306 1351 284 1351 l 335 1351 q 396 1338 375 1351 q 442 1290 417 1326 l 480 1240 q 504 1185 504 1207 q 494 1164 504 1172 q 469 1156 485 1156 z "},"Ẳ":{"ha":860,"x_min":56,"x_max":803,"o":"m 142 -13 q 80 8 103 -13 q 56 69 56 30 q 58 88 56 78 q 62 109 59 98 l 267 753 q 317 831 281 801 q 397 862 352 862 l 461 862 q 542 831 507 862 q 591 753 577 801 l 797 109 q 801 88 800 98 q 803 69 803 78 q 779 8 803 30 q 717 -13 756 -13 q 646 11 669 -13 q 611 85 623 35 l 572 206 l 287 206 l 248 85 q 213 11 236 35 q 142 -13 190 -13 m 320 344 l 539 344 l 441 679 q 435 705 438 692 q 429 726 432 717 q 424 705 427 717 q 418 679 422 692 l 320 344 m 546 1106 q 586 1092 572 1106 q 600 1056 600 1078 q 594 1027 600 1042 q 572 996 588 1011 q 517 941 553 964 q 428 919 481 919 q 346 939 379 919 q 293 988 313 959 q 267 1022 274 1004 q 259 1054 259 1040 q 274 1091 259 1077 q 313 1106 289 1106 q 358 1091 344 1106 q 375 1058 372 1077 q 390 1024 379 1040 q 430 1008 401 1008 q 469 1024 458 1008 q 483 1057 480 1040 q 500 1091 487 1076 q 546 1106 514 1106 m 396 1161 q 360 1173 372 1161 q 347 1204 347 1185 q 359 1237 347 1224 q 396 1251 371 1251 q 456 1259 428 1251 q 484 1290 484 1267 q 458 1318 484 1313 q 403 1324 431 1324 q 362 1322 378 1324 q 330 1316 346 1320 q 315 1313 322 1314 q 301 1312 308 1312 q 277 1320 288 1312 q 267 1344 267 1329 q 306 1395 267 1377 q 407 1413 345 1413 q 496 1402 454 1413 q 565 1365 538 1392 q 592 1289 592 1338 q 560 1213 592 1242 q 482 1173 528 1185 q 396 1161 436 1161 z "},"Ẵ":{"ha":860,"x_min":56,"x_max":803,"o":"m 142 -13 q 80 8 103 -13 q 56 69 56 30 q 58 88 56 78 q 62 109 59 98 l 267 753 q 317 831 281 801 q 397 862 352 862 l 461 862 q 542 831 507 862 q 591 753 577 801 l 797 109 q 801 88 800 98 q 803 69 803 78 q 779 8 803 30 q 717 -13 756 -13 q 646 11 669 -13 q 611 85 623 35 l 572 206 l 287 206 l 248 85 q 213 11 236 35 q 142 -13 190 -13 m 320 344 l 539 344 l 441 679 q 435 705 438 692 q 429 726 432 717 q 424 705 427 717 q 418 679 422 692 l 320 344 m 546 1106 q 586 1092 572 1106 q 600 1056 600 1078 q 594 1027 600 1042 q 572 996 588 1011 q 517 941 553 964 q 428 919 481 919 q 346 939 379 919 q 293 988 313 959 q 267 1022 274 1004 q 259 1054 259 1040 q 274 1091 259 1077 q 313 1106 289 1106 q 358 1091 344 1106 q 375 1058 372 1077 q 390 1024 379 1040 q 430 1008 401 1008 q 469 1024 458 1008 q 483 1057 480 1040 q 500 1091 487 1076 q 546 1106 514 1106 m 508 1169 q 453 1180 473 1169 q 416 1205 434 1190 q 390 1223 403 1216 q 357 1230 376 1230 q 321 1223 338 1230 q 292 1208 305 1217 q 272 1198 281 1202 q 254 1194 263 1194 q 233 1206 242 1194 q 224 1234 224 1217 q 258 1300 224 1268 q 299 1325 276 1314 q 350 1335 322 1335 q 405 1326 385 1335 q 440 1301 424 1317 q 465 1281 451 1290 q 501 1273 479 1273 q 535 1279 521 1273 q 560 1294 549 1285 q 578 1306 569 1301 q 599 1310 588 1310 q 625 1300 613 1310 q 637 1269 637 1290 q 621 1227 637 1245 q 576 1188 605 1208 q 508 1169 548 1169 z "},"Ǎ":{"ha":860,"x_min":56,"x_max":803,"o":"m 142 -13 q 80 8 103 -13 q 56 69 56 30 q 58 88 56 78 q 62 109 59 98 l 267 753 q 317 831 281 801 q 397 862 352 862 l 461 862 q 542 831 507 862 q 591 753 577 801 l 797 109 q 801 88 800 98 q 803 69 803 78 q 779 8 803 30 q 717 -13 756 -13 q 646 11 669 -13 q 611 85 623 35 l 572 206 l 287 206 l 248 85 q 213 11 236 35 q 142 -13 190 -13 m 320 344 l 539 344 l 441 679 q 435 705 438 692 q 429 726 432 717 q 424 705 427 717 q 418 679 422 692 l 320 344 m 586 1020 l 546 979 q 492 931 517 947 q 430 914 467 914 q 367 931 392 914 q 313 979 342 947 l 274 1020 q 258 1056 258 1038 q 273 1089 258 1076 q 311 1101 288 1101 q 346 1091 332 1101 q 375 1063 360 1080 l 430 1000 l 485 1063 q 513 1090 498 1078 q 548 1101 528 1101 q 587 1089 572 1101 q 602 1056 602 1076 q 599 1039 602 1048 q 586 1020 595 1030 z "},"Â":{"ha":860,"x_min":56,"x_max":803,"o":"m 142 -13 q 80 8 103 -13 q 56 69 56 30 q 58 88 56 78 q 62 109 59 98 l 267 753 q 317 831 281 801 q 397 862 352 862 l 461 862 q 542 831 507 862 q 591 753 577 801 l 797 109 q 801 88 800 98 q 803 69 803 78 q 779 8 803 30 q 717 -13 756 -13 q 646 11 669 -13 q 611 85 623 35 l 572 206 l 287 206 l 248 85 q 213 11 236 35 q 142 -13 190 -13 m 320 344 l 539 344 l 441 679 q 435 705 438 692 q 429 726 432 717 q 424 705 427 717 q 418 679 422 692 l 320 344 m 586 992 q 603 957 603 974 q 588 924 603 938 q 549 911 573 911 q 513 922 528 911 q 485 950 499 933 l 430 1012 l 375 949 q 347 922 361 933 q 312 911 333 911 q 273 924 288 911 q 258 958 258 938 q 262 974 258 965 q 274 992 265 983 l 314 1034 q 367 1082 342 1066 q 430 1099 392 1099 q 493 1082 468 1099 q 547 1034 518 1066 l 586 992 z "},"Ấ":{"ha":860,"x_min":56,"x_max":803,"o":"m 142 -13 q 80 8 103 -13 q 56 69 56 30 q 58 88 56 78 q 62 109 59 98 l 267 753 q 317 831 281 801 q 397 862 352 862 l 461 862 q 542 831 507 862 q 591 753 577 801 l 797 109 q 801 88 800 98 q 803 69 803 78 q 779 8 803 30 q 717 -13 756 -13 q 646 11 669 -13 q 611 85 623 35 l 572 206 l 287 206 l 248 85 q 213 11 236 35 q 142 -13 190 -13 m 320 344 l 539 344 l 441 679 q 435 705 438 692 q 429 726 432 717 q 424 705 427 717 q 418 679 422 692 l 320 344 m 586 1022 q 603 985 603 1003 q 588 953 603 966 q 549 940 573 940 q 513 951 528 940 q 485 978 499 963 l 430 1041 l 375 978 q 347 951 361 961 q 312 940 333 940 q 273 953 288 940 q 258 986 258 966 q 274 1022 258 1005 l 314 1063 q 367 1111 342 1094 q 430 1127 392 1127 q 493 1111 468 1127 q 547 1063 518 1094 l 586 1022 m 590 1073 q 567 1079 578 1073 q 556 1103 556 1085 q 576 1156 556 1122 l 611 1207 q 655 1257 633 1246 q 717 1268 676 1268 l 737 1268 q 770 1257 758 1268 q 782 1231 782 1247 q 755 1184 782 1208 l 677 1110 q 631 1081 652 1088 q 590 1073 609 1073 z "},"Ậ":{"ha":860,"x_min":56,"x_max":803,"o":"m 142 -13 q 80 8 103 -13 q 56 69 56 30 q 58 88 56 78 q 62 109 59 98 l 267 753 q 317 831 281 801 q 397 862 352 862 l 461 862 q 542 831 507 862 q 591 753 577 801 l 797 109 q 801 88 800 98 q 803 69 803 78 q 779 8 803 30 q 717 -13 756 -13 q 646 11 669 -13 q 611 85 623 35 l 572 206 l 287 206 l 248 85 q 213 11 236 35 q 142 -13 190 -13 m 320 344 l 539 344 l 441 679 q 435 705 438 692 q 429 726 432 717 q 424 705 427 717 q 418 679 422 692 l 320 344 m 429 -272 q 356 -241 386 -272 q 326 -167 326 -211 q 356 -93 326 -124 q 429 -62 386 -62 q 503 -93 473 -62 q 533 -167 533 -124 q 503 -242 533 -213 q 429 -272 473 -272 m 586 992 q 603 957 603 974 q 588 924 603 938 q 549 911 573 911 q 513 922 528 911 q 485 950 499 933 l 430 1012 l 375 949 q 347 922 361 933 q 312 911 333 911 q 273 924 288 911 q 258 958 258 938 q 262 974 258 965 q 274 992 265 983 l 314 1034 q 367 1082 342 1066 q 430 1099 392 1099 q 493 1082 468 1099 q 547 1034 518 1066 l 586 992 z "},"Ầ":{"ha":860,"x_min":56,"x_max":803,"o":"m 142 -13 q 80 8 103 -13 q 56 69 56 30 q 58 88 56 78 q 62 109 59 98 l 267 753 q 317 831 281 801 q 397 862 352 862 l 461 862 q 542 831 507 862 q 591 753 577 801 l 797 109 q 801 88 800 98 q 803 69 803 78 q 779 8 803 30 q 717 -13 756 -13 q 646 11 669 -13 q 611 85 623 35 l 572 206 l 287 206 l 248 85 q 213 11 236 35 q 142 -13 190 -13 m 320 344 l 539 344 l 441 679 q 435 705 438 692 q 429 726 432 717 q 424 705 427 717 q 418 679 422 692 l 320 344 m 586 1022 q 603 985 603 1003 q 588 953 603 966 q 549 940 573 940 q 513 951 528 940 q 485 978 499 963 l 430 1041 l 375 978 q 347 951 361 961 q 312 940 333 940 q 273 953 288 940 q 258 986 258 966 q 274 1022 258 1005 l 314 1063 q 367 1111 342 1094 q 430 1127 392 1127 q 493 1111 468 1127 q 547 1063 518 1094 l 586 1022 m 654 1073 q 614 1081 635 1073 q 567 1110 592 1088 l 489 1184 q 462 1231 462 1208 q 474 1257 462 1247 q 508 1268 486 1268 l 527 1268 q 589 1257 567 1268 q 633 1207 611 1246 l 668 1156 q 688 1103 688 1122 q 678 1079 688 1085 q 654 1073 667 1073 z "},"Ẩ":{"ha":860,"x_min":56,"x_max":803,"o":"m 142 -13 q 80 8 103 -13 q 56 69 56 30 q 58 88 56 78 q 62 109 59 98 l 267 753 q 317 831 281 801 q 397 862 352 862 l 461 862 q 542 831 507 862 q 591 753 577 801 l 797 109 q 801 88 800 98 q 803 69 803 78 q 779 8 803 30 q 717 -13 756 -13 q 646 11 669 -13 q 611 85 623 35 l 572 206 l 287 206 l 248 85 q 213 11 236 35 q 142 -13 190 -13 m 320 344 l 539 344 l 441 679 q 435 705 438 692 q 429 726 432 717 q 424 705 427 717 q 418 679 422 692 l 320 344 m 586 1022 q 603 985 603 1003 q 588 953 603 966 q 549 940 573 940 q 513 951 528 940 q 485 978 499 963 l 430 1041 l 375 978 q 347 951 361 961 q 312 940 333 940 q 273 953 288 940 q 258 986 258 966 q 274 1022 258 1005 l 314 1063 q 367 1111 342 1094 q 430 1127 392 1127 q 493 1111 468 1127 q 547 1063 518 1094 l 586 1022 m 597 1085 q 549 1124 549 1085 q 560 1155 549 1144 q 597 1165 572 1165 q 660 1176 630 1165 q 690 1210 690 1188 q 664 1240 690 1232 q 608 1249 637 1249 q 567 1245 584 1249 q 538 1237 551 1241 q 519 1233 529 1234 q 503 1232 509 1232 q 479 1240 490 1232 q 469 1265 469 1248 q 508 1311 469 1294 q 608 1328 547 1328 q 697 1317 656 1328 q 763 1281 738 1307 q 789 1208 789 1255 q 758 1134 789 1161 q 682 1097 726 1108 q 597 1085 638 1085 z "},"Ẫ":{"ha":860,"x_min":56,"x_max":803,"o":"m 142 -13 q 80 8 103 -13 q 56 69 56 30 q 58 88 56 78 q 62 109 59 98 l 267 753 q 317 831 281 801 q 397 862 352 862 l 461 862 q 542 831 507 862 q 591 753 577 801 l 797 109 q 801 88 800 98 q 803 69 803 78 q 779 8 803 30 q 717 -13 756 -13 q 646 11 669 -13 q 611 85 623 35 l 572 206 l 287 206 l 248 85 q 213 11 236 35 q 142 -13 190 -13 m 320 344 l 539 344 l 441 679 q 435 705 438 692 q 429 726 432 717 q 424 705 427 717 q 418 679 422 692 l 320 344 m 586 992 q 603 957 603 974 q 588 924 603 938 q 549 911 573 911 q 513 922 528 911 q 485 950 499 933 l 430 1012 l 375 949 q 347 922 361 933 q 312 911 333 911 q 273 924 288 911 q 258 958 258 938 q 262 974 258 965 q 274 992 265 983 l 314 1034 q 367 1082 342 1066 q 430 1099 392 1099 q 493 1082 468 1099 q 547 1034 518 1066 l 586 992 m 508 1161 q 453 1172 473 1161 q 416 1197 434 1183 q 390 1215 403 1208 q 357 1222 376 1222 q 321 1216 338 1222 q 292 1201 305 1209 q 272 1190 281 1194 q 254 1186 263 1186 q 233 1198 242 1186 q 224 1226 224 1210 q 258 1292 224 1260 q 299 1317 276 1306 q 350 1328 322 1328 q 405 1318 385 1328 q 440 1294 424 1309 q 465 1274 451 1282 q 501 1265 479 1265 q 535 1272 521 1265 q 560 1287 549 1278 q 578 1298 569 1294 q 599 1302 588 1302 q 625 1292 613 1302 q 637 1261 637 1282 q 621 1219 637 1238 q 576 1181 605 1200 q 508 1161 548 1161 z "},"Ȁ":{"ha":860,"x_min":56,"x_max":803,"o":"m 142 -13 q 80 8 103 -13 q 56 69 56 30 q 58 88 56 78 q 62 109 59 98 l 267 753 q 317 831 281 801 q 397 862 352 862 l 461 862 q 542 831 507 862 q 591 753 577 801 l 797 109 q 801 88 800 98 q 803 69 803 78 q 779 8 803 30 q 717 -13 756 -13 q 646 11 669 -13 q 611 85 623 35 l 572 206 l 287 206 l 248 85 q 213 11 236 35 q 142 -13 190 -13 m 320 344 l 539 344 l 441 679 q 435 705 438 692 q 429 726 432 717 q 424 705 427 717 q 418 679 422 692 l 320 344 m 335 915 q 282 927 306 915 q 229 967 257 939 l 172 1025 q 155 1049 160 1038 q 150 1072 150 1061 q 161 1099 150 1088 q 191 1110 172 1110 l 216 1110 q 269 1097 251 1110 q 308 1049 287 1085 l 344 999 q 365 944 365 964 q 357 923 365 931 q 335 915 349 915 m 560 915 q 507 927 532 915 q 453 967 481 939 l 397 1025 q 375 1072 375 1048 q 386 1099 375 1088 q 416 1110 397 1110 l 440 1110 q 493 1097 475 1110 q 533 1049 510 1084 l 569 999 q 585 968 580 982 q 590 944 590 955 q 581 923 590 931 q 560 915 573 915 z "},"Ä":{"ha":860,"x_min":56,"x_max":803,"o":"m 142 -13 q 80 8 103 -13 q 56 69 56 30 q 58 88 56 78 q 62 109 59 98 l 267 753 q 317 831 281 801 q 397 862 352 862 l 461 862 q 542 831 507 862 q 591 753 577 801 l 797 109 q 801 88 800 98 q 803 69 803 78 q 779 8 803 30 q 717 -13 756 -13 q 646 11 669 -13 q 611 85 623 35 l 572 206 l 287 206 l 248 85 q 213 11 236 35 q 142 -13 190 -13 m 320 344 l 539 344 l 441 679 q 435 705 438 692 q 429 726 432 717 q 424 705 427 717 q 418 679 422 692 l 320 344 m 285 931 q 211 960 242 931 q 181 1034 181 990 q 211 1109 181 1078 q 285 1140 242 1140 q 359 1109 328 1140 q 389 1034 389 1078 q 359 960 389 990 q 285 931 328 931 m 574 931 q 500 960 531 931 q 470 1034 470 990 q 500 1109 470 1078 q 574 1140 531 1140 q 648 1109 617 1140 q 678 1034 678 1078 q 648 960 678 990 q 574 931 617 931 z "},"Ạ":{"ha":860,"x_min":56,"x_max":803,"o":"m 142 -13 q 80 8 103 -13 q 56 69 56 30 q 58 88 56 78 q 62 109 59 98 l 267 753 q 317 831 281 801 q 397 862 352 862 l 461 862 q 542 831 507 862 q 591 753 577 801 l 797 109 q 801 88 800 98 q 803 69 803 78 q 779 8 803 30 q 717 -13 756 -13 q 646 11 669 -13 q 611 85 623 35 l 572 206 l 287 206 l 248 85 q 213 11 236 35 q 142 -13 190 -13 m 320 344 l 539 344 l 441 679 q 435 705 438 692 q 429 726 432 717 q 424 705 427 717 q 418 679 422 692 l 320 344 m 429 -272 q 356 -241 386 -272 q 326 -167 326 -211 q 356 -93 326 -124 q 429 -62 386 -62 q 503 -93 473 -62 q 533 -167 533 -124 q 503 -242 533 -213 q 429 -272 473 -272 z "},"À":{"ha":860,"x_min":56,"x_max":803,"o":"m 142 -13 q 80 8 103 -13 q 56 69 56 30 q 58 88 56 78 q 62 109 59 98 l 267 753 q 317 831 281 801 q 397 862 352 862 l 461 862 q 542 831 507 862 q 591 753 577 801 l 797 109 q 801 88 800 98 q 803 69 803 78 q 779 8 803 30 q 717 -13 756 -13 q 646 11 669 -13 q 611 85 623 35 l 572 206 l 287 206 l 248 85 q 213 11 236 35 q 142 -13 190 -13 m 320 344 l 539 344 l 441 679 q 435 705 438 692 q 429 726 432 717 q 424 705 427 717 q 418 679 422 692 l 320 344 m 469 912 q 406 924 436 912 q 344 964 376 936 l 284 1022 q 258 1069 258 1045 q 271 1096 258 1085 q 306 1106 284 1106 l 335 1106 q 396 1094 375 1106 q 442 1046 417 1081 l 480 996 q 504 941 504 963 q 494 920 504 928 q 469 912 485 912 z "},"Ả":{"ha":860,"x_min":56,"x_max":803,"o":"m 142 -13 q 80 8 103 -13 q 56 69 56 30 q 58 88 56 78 q 62 109 59 98 l 267 753 q 317 831 281 801 q 397 862 352 862 l 461 862 q 542 831 507 862 q 591 753 577 801 l 797 109 q 801 88 800 98 q 803 69 803 78 q 779 8 803 30 q 717 -13 756 -13 q 646 11 669 -13 q 611 85 623 35 l 572 206 l 287 206 l 248 85 q 213 11 236 35 q 142 -13 190 -13 m 320 344 l 539 344 l 441 679 q 435 705 438 692 q 429 726 432 717 q 424 705 427 717 q 418 679 422 692 l 320 344 m 396 917 q 360 929 372 917 q 347 960 347 941 q 359 993 347 979 q 396 1006 371 1006 q 456 1015 428 1006 q 484 1046 484 1023 q 458 1074 484 1068 q 403 1079 431 1079 q 362 1077 378 1079 q 330 1072 346 1076 q 315 1068 322 1069 q 301 1067 308 1067 q 277 1076 288 1067 q 267 1100 267 1085 q 306 1150 267 1133 q 407 1168 345 1168 q 496 1158 454 1168 q 565 1120 538 1147 q 592 1044 592 1093 q 560 969 592 997 q 482 928 528 940 q 396 917 436 917 z "},"Ȃ":{"ha":860,"x_min":56,"x_max":803,"o":"m 142 -13 q 80 8 103 -13 q 56 69 56 30 q 58 88 56 78 q 62 109 59 98 l 267 753 q 317 831 281 801 q 397 862 352 862 l 461 862 q 542 831 507 862 q 591 753 577 801 l 797 109 q 801 88 800 98 q 803 69 803 78 q 779 8 803 30 q 717 -13 756 -13 q 646 11 669 -13 q 611 85 623 35 l 572 206 l 287 206 l 248 85 q 213 11 236 35 q 142 -13 190 -13 m 320 344 l 539 344 l 441 679 q 435 705 438 692 q 429 726 432 717 q 424 705 427 717 q 418 679 422 692 l 320 344 m 546 915 q 500 930 514 915 q 483 963 487 944 q 469 996 480 981 q 430 1012 458 1012 q 390 996 401 1012 q 375 963 379 981 q 358 929 372 944 q 313 915 344 915 q 274 929 289 915 q 259 966 259 944 q 267 999 259 981 q 293 1032 274 1017 q 346 1081 313 1061 q 428 1101 379 1101 q 517 1079 481 1101 q 572 1024 553 1056 q 594 994 588 1010 q 600 965 600 978 q 586 928 600 942 q 546 915 572 915 z "},"Ā":{"ha":860,"x_min":56,"x_max":803,"o":"m 142 -13 q 80 8 103 -13 q 56 69 56 30 q 58 88 56 78 q 62 109 59 98 l 267 753 q 317 831 281 801 q 397 862 352 862 l 461 862 q 542 831 507 862 q 591 753 577 801 l 797 109 q 801 88 800 98 q 803 69 803 78 q 779 8 803 30 q 717 -13 756 -13 q 646 11 669 -13 q 611 85 623 35 l 572 206 l 287 206 l 248 85 q 213 11 236 35 q 142 -13 190 -13 m 320 344 l 539 344 l 441 679 q 435 705 438 692 q 429 726 432 717 q 424 705 427 717 q 418 679 422 692 l 320 344 m 166 989 q 189 1029 166 1014 q 263 1044 212 1044 l 596 1044 q 669 1029 646 1044 q 692 989 692 1014 q 669 949 692 964 q 596 934 646 934 l 263 934 q 189 949 212 934 q 166 989 166 964 z "},"Ą":{"ha":860,"x_min":56,"x_max":878,"o":"m 142 -13 q 80 8 103 -13 q 56 69 56 30 q 58 88 56 78 q 62 109 59 98 l 267 753 q 317 831 281 801 q 397 862 352 862 l 461 862 q 542 831 507 862 q 591 753 577 801 l 797 109 q 801 88 800 98 q 803 69 803 78 q 779 8 803 30 q 717 -13 756 -13 q 646 11 669 -13 q 611 85 623 35 l 572 206 l 287 206 l 248 85 q 213 11 236 35 q 142 -13 190 -13 m 320 344 l 539 344 l 441 679 q 435 705 438 692 q 429 726 432 717 q 424 705 427 717 q 418 679 422 692 l 320 344 m 734 -328 q 642 -315 685 -328 q 572 -273 599 -302 q 544 -193 544 -243 q 558 -124 544 -158 q 593 -64 572 -91 q 637 -20 614 -37 q 680 0 660 -3 l 764 0 q 731 -35 749 -9 q 698 -93 712 -60 q 684 -155 684 -125 q 701 -201 684 -187 q 747 -216 719 -216 q 770 -214 756 -216 q 794 -210 785 -212 q 814 -207 805 -208 q 831 -206 824 -206 q 867 -219 856 -206 q 878 -254 878 -233 q 835 -310 878 -292 q 734 -328 793 -328 z "},"Å":{"ha":860,"x_min":56,"x_max":803,"o":"m 142 -13 q 80 8 103 -13 q 56 69 56 30 q 58 88 56 78 q 62 109 59 98 l 267 753 q 317 831 281 801 q 397 862 352 862 l 461 862 q 542 831 507 862 q 591 753 577 801 l 797 109 q 801 88 800 98 q 803 69 803 78 q 779 8 803 30 q 717 -13 756 -13 q 646 11 669 -13 q 611 85 623 35 l 572 206 l 287 206 l 248 85 q 213 11 236 35 q 142 -13 190 -13 m 320 344 l 539 344 l 441 679 q 435 705 438 692 q 429 726 432 717 q 424 705 427 717 q 418 679 422 692 l 320 344 m 431 906 q 334 945 374 906 q 293 1042 293 984 q 312 1110 293 1080 q 362 1159 331 1141 q 431 1178 393 1178 q 498 1159 467 1178 q 547 1110 528 1141 q 566 1043 566 1080 q 526 945 566 984 q 431 906 485 906 m 431 996 q 462 1009 449 996 q 475 1043 475 1022 q 462 1074 475 1061 q 431 1086 449 1086 q 398 1074 410 1086 q 385 1043 385 1061 q 398 1009 385 1022 q 431 996 410 996 z "},"Ǻ":{"ha":860,"x_min":56,"x_max":803,"o":"m 142 -13 q 80 8 103 -13 q 56 69 56 30 q 58 88 56 78 q 62 109 59 98 l 267 753 q 317 831 281 801 q 397 862 352 862 l 461 862 q 542 831 507 862 q 591 753 577 801 l 797 109 q 801 88 800 98 q 803 69 803 78 q 779 8 803 30 q 717 -13 756 -13 q 646 11 669 -13 q 611 85 623 35 l 572 206 l 287 206 l 248 85 q 213 11 236 35 q 142 -13 190 -13 m 320 344 l 539 344 l 441 679 q 435 705 438 692 q 429 726 432 717 q 424 705 427 717 q 418 679 422 692 l 320 344 m 431 906 q 334 945 374 906 q 293 1042 293 984 q 312 1110 293 1080 q 362 1159 331 1141 q 431 1178 393 1178 q 498 1159 467 1178 q 547 1110 528 1141 q 566 1043 566 1080 q 526 945 566 984 q 431 906 485 906 m 431 996 q 462 1009 449 996 q 475 1043 475 1022 q 462 1074 475 1061 q 431 1086 449 1086 q 398 1074 410 1086 q 385 1043 385 1061 q 398 1009 385 1022 q 431 996 410 996 m 407 1235 q 381 1243 391 1235 q 372 1265 372 1251 q 396 1319 372 1286 l 433 1369 q 480 1417 460 1405 q 541 1430 501 1430 l 570 1430 q 605 1419 592 1430 q 618 1392 618 1409 q 592 1346 618 1369 l 531 1288 q 469 1248 499 1260 q 407 1235 440 1235 z "},"Ã":{"ha":860,"x_min":56,"x_max":803,"o":"m 142 -13 q 80 8 103 -13 q 56 69 56 30 q 58 88 56 78 q 62 109 59 98 l 267 753 q 317 831 281 801 q 397 862 352 862 l 461 862 q 542 831 507 862 q 591 753 577 801 l 797 109 q 801 88 800 98 q 803 69 803 78 q 779 8 803 30 q 717 -13 756 -13 q 646 11 669 -13 q 611 85 623 35 l 572 206 l 287 206 l 248 85 q 213 11 236 35 q 142 -13 190 -13 m 320 344 l 539 344 l 441 679 q 435 705 438 692 q 429 726 432 717 q 424 705 427 717 q 418 679 422 692 l 320 344 m 508 924 q 453 935 473 924 q 416 960 434 946 q 390 978 403 972 q 357 985 376 985 q 321 979 338 985 q 292 964 305 972 q 272 953 281 958 q 254 949 263 949 q 233 961 242 949 q 224 990 224 973 q 258 1056 224 1024 q 299 1080 276 1069 q 350 1091 322 1091 q 405 1082 385 1091 q 440 1057 424 1072 q 465 1037 451 1045 q 501 1028 479 1028 q 535 1035 521 1028 q 560 1050 549 1041 q 578 1061 569 1057 q 599 1065 588 1065 q 625 1055 613 1065 q 637 1024 637 1045 q 621 983 637 1001 q 576 944 605 963 q 508 924 548 924 z "},"Æ":{"ha":860,"x_min":38,"x_max":833,"o":"m 543 -1 q 433 101 433 -1 l 433 195 l 263 195 l 219 76 q 184 9 207 31 q 114 -13 160 -13 q 75 -8 92 -13 q 48 11 58 -2 q 38 48 38 24 q 40 73 38 59 q 47 102 42 86 l 288 774 q 327 838 302 817 q 391 860 353 860 l 736 860 q 811 844 790 860 q 833 798 833 828 q 811 752 833 768 q 736 736 790 736 l 603 736 l 603 484 l 737 484 q 786 466 769 484 q 803 422 803 447 q 786 380 803 398 q 737 361 769 361 l 603 361 l 603 123 l 736 123 q 811 107 790 123 q 833 61 833 91 q 811 15 833 31 q 736 -1 790 -1 l 543 -1 m 300 332 l 433 332 l 433 722 q 431 719 432 720 q 430 715 431 717 l 300 332 z "},"Ǽ":{"ha":860,"x_min":38,"x_max":833,"o":"m 543 -1 q 433 101 433 -1 l 433 195 l 263 195 l 219 76 q 184 9 207 31 q 114 -13 160 -13 q 75 -8 92 -13 q 48 11 58 -2 q 38 48 38 24 q 40 73 38 59 q 47 102 42 86 l 288 774 q 327 838 302 817 q 391 860 353 860 l 736 860 q 811 844 790 860 q 833 798 833 828 q 811 752 833 768 q 736 736 790 736 l 603 736 l 603 484 l 737 484 q 786 466 769 484 q 803 422 803 447 q 786 380 803 398 q 737 361 769 361 l 603 361 l 603 123 l 736 123 q 811 107 790 123 q 833 61 833 91 q 811 15 833 31 q 736 -1 790 -1 l 543 -1 m 300 332 l 433 332 l 433 722 q 431 719 432 720 q 430 715 431 717 l 300 332 m 409 915 q 383 923 393 915 q 374 945 374 931 q 398 999 374 966 l 435 1049 q 482 1097 462 1085 q 543 1110 503 1110 l 572 1110 q 607 1099 594 1110 q 620 1072 620 1089 q 594 1026 620 1049 l 533 968 q 472 927 501 940 q 409 915 442 915 z "},"B":{"ha":860,"x_min":110,"x_max":784,"o":"m 587 453 q 630 445 598 453 q 697 415 662 438 q 758 351 733 393 q 784 242 784 310 q 746 107 784 161 q 639 27 708 53 q 476 0 570 0 l 220 0 q 110 110 110 0 l 110 750 q 220 860 110 860 l 438 860 q 592 842 519 860 q 708 780 664 825 q 753 649 753 734 q 732 548 753 587 q 681 489 710 509 q 624 461 651 468 q 587 453 597 453 m 301 722 l 301 503 l 424 503 q 495 515 463 503 q 546 551 527 526 q 565 617 565 576 q 544 684 565 662 q 488 714 523 706 q 412 722 453 722 l 301 722 m 418 138 q 544 166 499 138 q 590 260 590 194 q 543 354 590 328 q 431 379 496 379 l 301 379 l 301 138 l 418 138 z "},"C":{"ha":860,"x_min":78,"x_max":791,"o":"m 483 -14 q 340 8 412 -14 q 209 81 269 31 q 114 217 150 132 q 78 426 78 302 q 114 637 78 552 q 209 773 150 722 q 340 846 269 824 q 483 868 412 868 q 602 850 547 868 q 701 800 658 831 q 767 728 744 768 q 791 647 791 689 q 767 588 791 610 q 710 565 743 565 q 653 583 669 565 q 626 625 637 601 q 602 673 619 649 q 557 713 585 697 q 483 730 528 730 q 382 699 430 730 q 303 601 333 668 q 273 426 273 535 q 303 252 273 319 q 382 155 333 185 q 483 124 430 124 q 557 141 528 124 q 602 181 585 157 q 626 228 619 206 q 653 271 637 253 q 710 289 669 289 q 767 266 743 289 q 791 208 791 244 q 767 125 791 165 q 700 54 743 85 q 602 5 658 23 q 483 -14 546 -14 z "},"Ć":{"ha":860,"x_min":78,"x_max":791,"o":"m 483 -14 q 340 8 412 -14 q 209 81 269 31 q 114 217 150 132 q 78 426 78 302 q 114 637 78 552 q 209 773 150 722 q 340 846 269 824 q 483 868 412 868 q 602 850 547 868 q 701 800 658 831 q 767 728 744 768 q 791 647 791 689 q 767 588 791 610 q 710 565 743 565 q 653 583 669 565 q 626 625 637 601 q 602 673 619 649 q 557 713 585 697 q 483 730 528 730 q 382 699 430 730 q 303 601 333 668 q 273 426 273 535 q 303 252 273 319 q 382 155 333 185 q 483 124 430 124 q 557 141 528 124 q 602 181 585 157 q 626 228 619 206 q 653 271 637 253 q 710 289 669 289 q 767 266 743 289 q 791 208 791 244 q 767 125 791 165 q 700 54 743 85 q 602 5 658 23 q 483 -14 546 -14 m 452 915 q 426 923 436 915 q 417 945 417 931 q 441 999 417 966 l 478 1049 q 525 1097 505 1085 q 586 1110 546 1110 l 615 1110 q 650 1099 637 1110 q 663 1072 663 1089 q 637 1026 663 1049 l 576 968 q 515 927 544 940 q 452 915 485 915 z "},"Č":{"ha":860,"x_min":78,"x_max":791,"o":"m 483 -14 q 340 8 412 -14 q 209 81 269 31 q 114 217 150 132 q 78 426 78 302 q 114 637 78 552 q 209 773 150 722 q 340 846 269 824 q 483 868 412 868 q 602 850 547 868 q 701 800 658 831 q 767 728 744 768 q 791 647 791 689 q 767 588 791 610 q 710 565 743 565 q 653 583 669 565 q 626 625 637 601 q 602 673 619 649 q 557 713 585 697 q 483 730 528 730 q 382 699 430 730 q 303 601 333 668 q 273 426 273 535 q 303 252 273 319 q 382 155 333 185 q 483 124 430 124 q 557 141 528 124 q 602 181 585 157 q 626 228 619 206 q 653 271 637 253 q 710 289 669 289 q 767 266 743 289 q 791 208 791 244 q 767 125 791 165 q 700 54 743 85 q 602 5 658 23 q 483 -14 546 -14 m 631 1018 l 590 977 q 537 928 562 945 q 474 912 512 912 q 411 928 437 912 q 358 977 386 945 l 318 1018 q 302 1053 302 1035 q 317 1086 302 1074 q 356 1099 332 1099 q 391 1089 376 1099 q 419 1060 405 1078 l 474 998 l 529 1060 q 557 1088 542 1076 q 592 1099 572 1099 q 632 1086 617 1099 q 647 1053 647 1074 q 643 1037 647 1046 q 631 1018 640 1028 z "},"Ç":{"ha":860,"x_min":78,"x_max":791,"o":"m 449 -315 q 405 -313 425 -315 q 370 -305 385 -310 q 327 -258 327 -288 q 340 -228 327 -238 q 369 -218 352 -218 q 404 -223 383 -218 q 431 -227 416 -226 q 462 -228 445 -228 q 531 -216 503 -228 q 558 -180 558 -203 q 547 -157 558 -165 q 519 -150 536 -150 q 488 -153 502 -150 q 462 -160 474 -156 q 438 -166 450 -163 q 415 -168 426 -168 q 380 -156 391 -168 q 369 -126 369 -144 q 371 -112 369 -119 q 375 -97 373 -104 l 407 -8 q 285 30 344 1 q 180 110 226 58 q 106 241 133 163 q 78 426 78 319 q 114 637 78 552 q 209 773 150 722 q 340 846 269 824 q 483 868 412 868 q 602 850 547 868 q 701 800 658 831 q 767 728 744 768 q 791 647 791 689 q 767 588 791 610 q 710 565 743 565 q 653 583 669 565 q 626 625 637 601 q 602 673 619 649 q 557 713 585 697 q 483 730 528 730 q 382 699 430 730 q 303 601 333 668 q 273 426 273 535 q 303 252 273 319 q 382 155 333 185 q 483 124 430 124 q 557 141 528 124 q 602 181 585 157 q 626 228 619 206 q 653 271 637 253 q 710 289 669 289 q 767 266 743 289 q 791 208 791 244 q 769 129 791 167 q 709 60 748 91 q 619 10 670 30 q 508 -13 567 -10 l 478 -103 q 521 -83 497 -90 q 570 -77 544 -77 q 627 -87 599 -77 q 674 -118 656 -97 q 692 -174 692 -140 q 658 -252 692 -221 q 569 -300 624 -284 q 449 -315 513 -315 z "},"Ĉ":{"ha":860,"x_min":78,"x_max":791,"o":"m 483 -14 q 340 8 412 -14 q 209 81 269 31 q 114 217 150 132 q 78 426 78 302 q 114 637 78 552 q 209 773 150 722 q 340 846 269 824 q 483 868 412 868 q 602 850 547 868 q 701 800 658 831 q 767 728 744 768 q 791 647 791 689 q 767 588 791 610 q 710 565 743 565 q 653 583 669 565 q 626 625 637 601 q 602 673 619 649 q 557 713 585 697 q 483 730 528 730 q 382 699 430 730 q 303 601 333 668 q 273 426 273 535 q 303 252 273 319 q 382 155 333 185 q 483 124 430 124 q 557 141 528 124 q 602 181 585 157 q 626 228 619 206 q 653 271 637 253 q 710 289 669 289 q 767 266 743 289 q 791 208 791 244 q 767 125 791 165 q 700 54 743 85 q 602 5 658 23 q 483 -14 546 -14 m 631 990 q 647 955 647 972 q 632 922 647 935 q 593 909 617 909 q 558 920 572 909 q 530 948 543 931 l 474 1010 l 419 947 q 391 920 406 931 q 356 909 377 909 q 317 922 332 909 q 303 956 303 935 q 306 972 303 963 q 319 990 310 981 l 358 1032 q 412 1080 387 1064 q 474 1097 437 1097 q 538 1080 513 1097 q 591 1032 563 1064 l 631 990 z "},"Ċ":{"ha":860,"x_min":78,"x_max":791,"o":"m 483 -14 q 340 8 412 -14 q 209 81 269 31 q 114 217 150 132 q 78 426 78 302 q 114 637 78 552 q 209 773 150 722 q 340 846 269 824 q 483 868 412 868 q 602 850 547 868 q 701 800 658 831 q 767 728 744 768 q 791 647 791 689 q 767 588 791 610 q 710 565 743 565 q 653 583 669 565 q 626 625 637 601 q 602 673 619 649 q 557 713 585 697 q 483 730 528 730 q 382 699 430 730 q 303 601 333 668 q 273 426 273 535 q 303 252 273 319 q 382 155 333 185 q 483 124 430 124 q 557 141 528 124 q 602 181 585 157 q 626 228 619 206 q 653 271 637 253 q 710 289 669 289 q 767 266 743 289 q 791 208 791 244 q 767 125 791 165 q 700 54 743 85 q 602 5 658 23 q 483 -14 546 -14 m 475 930 q 401 960 431 930 q 371 1034 371 990 q 401 1108 371 1078 q 475 1139 431 1139 q 548 1108 518 1139 q 578 1034 578 1078 q 548 960 578 990 q 475 930 518 930 z "},"D":{"ha":860,"x_min":90,"x_max":792,"o":"m 370 860 q 468 851 413 860 q 580 819 523 843 q 685 747 636 794 q 763 622 733 699 q 792 430 792 545 q 763 238 792 315 q 685 113 733 160 q 580 41 636 65 q 468 8 523 17 q 370 0 413 0 l 199 0 q 90 110 90 0 l 90 750 q 199 860 90 860 l 370 860 m 369 138 q 459 154 417 138 q 533 205 501 170 q 582 295 565 240 q 600 430 600 351 q 582 565 600 509 q 533 655 565 620 q 459 706 501 690 q 369 722 417 722 l 280 722 l 280 138 l 369 138 z "},"Ð":{"ha":860,"x_min":-8,"x_max":792,"o":"m 102 370 q -8 430 -8 370 q 102 490 -8 490 l 349 490 q 459 430 459 490 q 349 370 459 370 l 102 370 m 370 860 q 468 851 413 860 q 580 819 523 843 q 685 747 636 794 q 763 622 733 699 q 792 430 792 545 q 763 238 792 315 q 685 113 733 160 q 580 41 636 65 q 468 8 523 17 q 370 0 413 0 l 199 0 q 90 110 90 0 l 90 750 q 199 860 90 860 l 370 860 m 369 138 q 459 154 417 138 q 533 205 501 170 q 582 295 565 240 q 600 430 600 351 q 582 565 600 509 q 533 655 565 620 q 459 706 501 690 q 369 722 417 722 l 280 722 l 280 138 l 369 138 z "},"Ď":{"ha":860,"x_min":90,"x_max":792,"o":"m 370 860 q 468 851 413 860 q 580 819 523 843 q 685 747 636 794 q 763 622 733 699 q 792 430 792 545 q 763 238 792 315 q 685 113 733 160 q 580 41 636 65 q 468 8 523 17 q 370 0 413 0 l 199 0 q 90 110 90 0 l 90 750 q 199 860 90 860 l 370 860 m 369 138 q 459 154 417 138 q 533 205 501 170 q 582 295 565 240 q 600 430 600 351 q 582 565 600 509 q 533 655 565 620 q 459 706 501 690 q 369 722 417 722 l 280 722 l 280 138 l 369 138 m 562 1018 l 522 977 q 468 928 493 945 q 406 912 443 912 q 343 928 368 912 q 289 977 317 945 l 249 1018 q 233 1053 233 1035 q 248 1086 233 1074 q 287 1099 263 1099 q 322 1089 308 1099 q 351 1060 336 1078 l 406 998 l 460 1060 q 489 1088 474 1076 q 524 1099 503 1099 q 563 1086 548 1099 q 578 1053 578 1074 q 574 1037 578 1046 q 562 1018 571 1028 z "},"Đ":{"ha":860,"x_min":-8,"x_max":792,"o":"m 102 370 q -8 430 -8 370 q 102 490 -8 490 l 349 490 q 459 430 459 490 q 349 370 459 370 l 102 370 m 370 860 q 468 851 413 860 q 580 819 523 843 q 685 747 636 794 q 763 622 733 699 q 792 430 792 545 q 763 238 792 315 q 685 113 733 160 q 580 41 636 65 q 468 8 523 17 q 370 0 413 0 l 199 0 q 90 110 90 0 l 90 750 q 199 860 90 860 l 370 860 m 369 138 q 459 154 417 138 q 533 205 501 170 q 582 295 565 240 q 600 430 600 351 q 582 565 600 509 q 533 655 565 620 q 459 706 501 690 q 369 722 417 722 l 280 722 l 280 138 l 369 138 z "},"E":{"ha":860,"x_min":135,"x_max":744,"o":"m 744 791 q 639 722 744 722 l 326 722 l 326 499 l 578 499 q 653 482 632 499 q 675 431 675 464 q 653 380 675 397 q 578 362 632 362 l 326 362 l 326 138 l 639 138 q 744 69 744 138 q 639 0 744 0 l 245 0 q 135 110 135 0 l 135 750 q 245 860 135 860 l 639 860 q 744 791 744 860 z "},"É":{"ha":860,"x_min":135,"x_max":744,"o":"m 744 791 q 639 722 744 722 l 326 722 l 326 499 l 578 499 q 653 482 632 499 q 675 431 675 464 q 653 380 675 397 q 578 362 632 362 l 326 362 l 326 138 l 639 138 q 744 69 744 138 q 639 0 744 0 l 245 0 q 135 110 135 0 l 135 750 q 245 860 135 860 l 639 860 q 744 791 744 860 m 418 915 q 392 923 402 915 q 383 945 383 931 q 407 999 383 966 l 444 1049 q 491 1097 471 1085 q 552 1110 512 1110 l 581 1110 q 616 1099 603 1110 q 629 1072 629 1089 q 603 1026 629 1049 l 542 968 q 481 927 510 940 q 418 915 451 915 z "},"Ĕ":{"ha":860,"x_min":135,"x_max":744,"o":"m 744 791 q 639 722 744 722 l 326 722 l 326 499 l 578 499 q 653 482 632 499 q 675 431 675 464 q 653 380 675 397 q 578 362 632 362 l 326 362 l 326 138 l 639 138 q 744 69 744 138 q 639 0 744 0 l 245 0 q 135 110 135 0 l 135 750 q 245 860 135 860 l 639 860 q 744 791 744 860 m 557 1103 q 597 1090 583 1103 q 611 1053 611 1076 q 605 1025 611 1040 q 583 994 599 1009 q 528 939 564 962 q 440 917 492 917 q 357 937 390 917 q 304 986 324 957 q 278 1020 285 1002 q 270 1052 270 1038 q 285 1089 270 1075 q 324 1103 300 1103 q 369 1089 356 1103 q 386 1056 383 1075 q 401 1022 390 1038 q 441 1006 413 1006 q 480 1022 469 1006 q 494 1055 491 1038 q 511 1089 498 1074 q 557 1103 525 1103 z "},"Ě":{"ha":860,"x_min":135,"x_max":744,"o":"m 744 791 q 639 722 744 722 l 326 722 l 326 499 l 578 499 q 653 482 632 499 q 675 431 675 464 q 653 380 675 397 q 578 362 632 362 l 326 362 l 326 138 l 639 138 q 744 69 744 138 q 639 0 744 0 l 245 0 q 135 110 135 0 l 135 750 q 245 860 135 860 l 639 860 q 744 791 744 860 m 597 1018 l 557 977 q 503 928 528 945 q 441 912 478 912 q 378 928 403 912 q 324 977 353 945 l 285 1018 q 269 1053 269 1035 q 284 1086 269 1074 q 322 1099 299 1099 q 357 1089 343 1099 q 386 1060 372 1078 l 441 998 l 496 1060 q 524 1088 509 1076 q 559 1099 539 1099 q 598 1086 583 1099 q 613 1053 613 1074 q 610 1037 613 1046 q 597 1018 606 1028 z "},"Ê":{"ha":860,"x_min":135,"x_max":744,"o":"m 744 791 q 639 722 744 722 l 326 722 l 326 499 l 578 499 q 653 482 632 499 q 675 431 675 464 q 653 380 675 397 q 578 362 632 362 l 326 362 l 326 138 l 639 138 q 744 69 744 138 q 639 0 744 0 l 245 0 q 135 110 135 0 l 135 750 q 245 860 135 860 l 639 860 q 744 791 744 860 m 597 990 q 614 955 614 972 q 599 922 614 935 q 560 909 584 909 q 524 920 539 909 q 497 948 510 931 l 441 1010 l 386 947 q 358 920 372 931 q 323 909 344 909 q 284 922 299 909 q 269 956 269 935 q 273 972 269 963 q 285 990 276 981 l 325 1032 q 378 1080 353 1064 q 441 1097 403 1097 q 504 1080 479 1097 q 558 1032 529 1064 l 597 990 z "},"Ế":{"ha":860,"x_min":135,"x_max":794,"o":"m 744 791 q 639 722 744 722 l 326 722 l 326 499 l 578 499 q 653 482 632 499 q 675 431 675 464 q 653 380 675 397 q 578 362 632 362 l 326 362 l 326 138 l 639 138 q 744 69 744 138 q 639 0 744 0 l 245 0 q 135 110 135 0 l 135 750 q 245 860 135 860 l 639 860 q 744 791 744 860 m 597 1019 q 614 983 614 1001 q 599 951 614 964 q 560 938 584 938 q 524 949 539 938 q 497 976 510 960 l 441 1039 l 386 976 q 358 949 372 959 q 323 938 344 938 q 284 951 299 938 q 269 984 269 964 q 285 1019 269 1003 l 325 1060 q 378 1109 353 1092 q 441 1125 403 1125 q 504 1109 479 1125 q 558 1060 529 1092 l 597 1019 m 602 1071 q 578 1077 590 1071 q 567 1101 567 1083 q 588 1154 567 1120 l 623 1205 q 667 1255 645 1244 q 728 1266 688 1266 l 749 1266 q 782 1255 770 1266 q 794 1228 794 1244 q 767 1182 794 1206 l 689 1108 q 642 1078 664 1086 q 602 1071 621 1071 z "},"Ệ":{"ha":860,"x_min":135,"x_max":744,"o":"m 744 791 q 639 722 744 722 l 326 722 l 326 499 l 578 499 q 653 482 632 499 q 675 431 675 464 q 653 380 675 397 q 578 362 632 362 l 326 362 l 326 138 l 639 138 q 744 69 744 138 q 639 0 744 0 l 245 0 q 135 110 135 0 l 135 750 q 245 860 135 860 l 639 860 q 744 791 744 860 m 441 -272 q 368 -241 398 -272 q 338 -167 338 -211 q 368 -93 338 -124 q 441 -62 398 -62 q 515 -93 485 -62 q 544 -167 544 -124 q 515 -242 544 -213 q 441 -272 485 -272 m 597 990 q 614 955 614 972 q 599 922 614 935 q 560 909 584 909 q 524 920 539 909 q 497 948 510 931 l 441 1010 l 386 947 q 358 920 372 931 q 323 909 344 909 q 284 922 299 909 q 269 956 269 935 q 273 972 269 963 q 285 990 276 981 l 325 1032 q 378 1080 353 1064 q 441 1097 403 1097 q 504 1080 479 1097 q 558 1032 529 1064 l 597 990 z "},"Ề":{"ha":860,"x_min":135,"x_max":744,"o":"m 744 791 q 639 722 744 722 l 326 722 l 326 499 l 578 499 q 653 482 632 499 q 675 431 675 464 q 653 380 675 397 q 578 362 632 362 l 326 362 l 326 138 l 639 138 q 744 69 744 138 q 639 0 744 0 l 245 0 q 135 110 135 0 l 135 750 q 245 860 135 860 l 639 860 q 744 791 744 860 m 597 1019 q 614 983 614 1001 q 599 951 614 964 q 560 938 584 938 q 524 949 539 938 q 497 976 510 960 l 441 1039 l 386 976 q 358 949 372 959 q 323 938 344 938 q 284 951 299 938 q 269 984 269 964 q 285 1019 269 1003 l 325 1060 q 378 1109 353 1092 q 441 1125 403 1125 q 504 1109 479 1125 q 558 1060 529 1092 l 597 1019 m 665 1071 q 625 1078 646 1071 q 578 1108 603 1086 l 500 1182 q 473 1228 473 1206 q 485 1255 473 1244 q 519 1266 497 1266 l 538 1266 q 600 1255 578 1266 q 644 1205 622 1244 l 679 1154 q 699 1101 699 1120 q 689 1077 699 1083 q 665 1071 678 1071 z "},"Ể":{"ha":860,"x_min":135,"x_max":800,"o":"m 744 791 q 639 722 744 722 l 326 722 l 326 499 l 578 499 q 653 482 632 499 q 675 431 675 464 q 653 380 675 397 q 578 362 632 362 l 326 362 l 326 138 l 639 138 q 744 69 744 138 q 639 0 744 0 l 245 0 q 135 110 135 0 l 135 750 q 245 860 135 860 l 639 860 q 744 791 744 860 m 597 1019 q 614 983 614 1001 q 599 951 614 964 q 560 938 584 938 q 524 949 539 938 q 497 976 510 960 l 441 1039 l 386 976 q 358 949 372 959 q 323 938 344 938 q 284 951 299 938 q 269 984 269 964 q 285 1019 269 1003 l 325 1060 q 378 1109 353 1092 q 441 1125 403 1125 q 504 1109 479 1125 q 558 1060 529 1092 l 597 1019 m 608 1083 q 560 1122 560 1083 q 572 1152 560 1142 q 608 1163 583 1163 q 671 1174 641 1163 q 701 1208 701 1185 q 675 1238 701 1230 q 619 1247 648 1247 q 578 1243 595 1247 q 549 1235 562 1239 q 530 1231 540 1232 q 514 1230 520 1230 q 490 1238 501 1230 q 480 1263 480 1246 q 519 1309 480 1292 q 619 1326 558 1326 q 708 1315 667 1326 q 774 1279 749 1305 q 800 1206 800 1253 q 769 1132 800 1159 q 693 1094 738 1106 q 608 1083 649 1083 z "},"Ễ":{"ha":860,"x_min":135,"x_max":744,"o":"m 744 791 q 639 722 744 722 l 326 722 l 326 499 l 578 499 q 653 482 632 499 q 675 431 675 464 q 653 380 675 397 q 578 362 632 362 l 326 362 l 326 138 l 639 138 q 744 69 744 138 q 639 0 744 0 l 245 0 q 135 110 135 0 l 135 750 q 245 860 135 860 l 639 860 q 744 791 744 860 m 597 990 q 614 955 614 972 q 599 922 614 935 q 560 909 584 909 q 524 920 539 909 q 497 948 510 931 l 441 1010 l 386 947 q 358 920 372 931 q 323 909 344 909 q 284 922 299 909 q 269 956 269 935 q 273 972 269 963 q 285 990 276 981 l 325 1032 q 378 1080 353 1064 q 441 1097 403 1097 q 504 1080 479 1097 q 558 1032 529 1064 l 597 990 m 519 1159 q 465 1170 485 1159 q 428 1195 446 1181 q 401 1213 415 1206 q 369 1220 388 1220 q 333 1214 349 1220 q 303 1199 317 1207 q 284 1188 293 1192 q 266 1184 274 1184 q 244 1196 253 1184 q 235 1224 235 1208 q 270 1290 235 1258 q 311 1315 288 1304 q 362 1326 334 1326 q 417 1316 397 1326 q 451 1292 436 1307 q 477 1272 463 1280 q 513 1263 491 1263 q 547 1269 533 1263 q 572 1285 560 1276 q 590 1296 581 1292 q 610 1300 599 1300 q 637 1290 625 1300 q 649 1259 649 1280 q 633 1217 649 1235 q 588 1178 617 1198 q 519 1159 560 1159 z "},"Ȅ":{"ha":860,"x_min":135,"x_max":744,"o":"m 744 791 q 639 722 744 722 l 326 722 l 326 499 l 578 499 q 653 482 632 499 q 675 431 675 464 q 653 380 675 397 q 578 362 632 362 l 326 362 l 326 138 l 639 138 q 744 69 744 138 q 639 0 744 0 l 245 0 q 135 110 135 0 l 135 750 q 245 860 135 860 l 639 860 q 744 791 744 860 m 347 913 q 293 925 318 913 q 241 965 269 937 l 184 1023 q 167 1047 172 1035 q 162 1069 162 1059 q 173 1097 162 1086 q 203 1108 184 1108 l 228 1108 q 281 1095 263 1108 q 320 1047 299 1083 l 356 997 q 377 942 377 962 q 369 920 377 928 q 347 913 360 913 m 572 913 q 518 925 544 913 q 465 965 493 937 l 409 1023 q 387 1069 387 1046 q 398 1097 387 1086 q 428 1108 409 1108 l 452 1108 q 505 1095 487 1108 q 544 1047 522 1082 l 581 997 q 597 966 592 980 q 601 942 601 953 q 593 920 601 928 q 572 913 585 913 z "},"Ë":{"ha":860,"x_min":135,"x_max":744,"o":"m 744 791 q 639 722 744 722 l 326 722 l 326 499 l 578 499 q 653 482 632 499 q 675 431 675 464 q 653 380 675 397 q 578 362 632 362 l 326 362 l 326 138 l 639 138 q 744 69 744 138 q 639 0 744 0 l 245 0 q 135 110 135 0 l 135 750 q 245 860 135 860 l 639 860 q 744 791 744 860 m 296 928 q 223 958 253 928 q 192 1032 192 988 q 223 1107 192 1076 q 296 1138 253 1138 q 370 1107 340 1138 q 400 1032 400 1076 q 370 958 400 988 q 296 928 340 928 m 585 928 q 511 958 542 928 q 481 1032 481 988 q 511 1107 481 1076 q 585 1138 542 1138 q 659 1107 628 1138 q 690 1032 690 1076 q 659 958 690 988 q 585 928 628 928 z "},"Ė":{"ha":860,"x_min":135,"x_max":744,"o":"m 744 791 q 639 722 744 722 l 326 722 l 326 499 l 578 499 q 653 482 632 499 q 675 431 675 464 q 653 380 675 397 q 578 362 632 362 l 326 362 l 326 138 l 639 138 q 744 69 744 138 q 639 0 744 0 l 245 0 q 135 110 135 0 l 135 750 q 245 860 135 860 l 639 860 q 744 791 744 860 m 442 930 q 368 960 398 930 q 338 1034 338 990 q 368 1108 338 1078 q 442 1139 398 1139 q 515 1108 485 1139 q 545 1034 545 1078 q 515 960 545 990 q 442 930 485 930 z "},"Ẹ":{"ha":860,"x_min":135,"x_max":744,"o":"m 744 791 q 639 722 744 722 l 326 722 l 326 499 l 578 499 q 653 482 632 499 q 675 431 675 464 q 653 380 675 397 q 578 362 632 362 l 326 362 l 326 138 l 639 138 q 744 69 744 138 q 639 0 744 0 l 245 0 q 135 110 135 0 l 135 750 q 245 860 135 860 l 639 860 q 744 791 744 860 m 441 -272 q 368 -241 398 -272 q 338 -167 338 -211 q 368 -93 338 -124 q 441 -62 398 -62 q 515 -93 485 -62 q 544 -167 544 -124 q 515 -242 544 -213 q 441 -272 485 -272 z "},"È":{"ha":860,"x_min":135,"x_max":744,"o":"m 744 791 q 639 722 744 722 l 326 722 l 326 499 l 578 499 q 653 482 632 499 q 675 431 675 464 q 653 380 675 397 q 578 362 632 362 l 326 362 l 326 138 l 639 138 q 744 69 744 138 q 639 0 744 0 l 245 0 q 135 110 135 0 l 135 750 q 245 860 135 860 l 639 860 q 744 791 744 860 m 480 910 q 417 922 447 910 q 356 962 388 934 l 295 1020 q 269 1067 269 1043 q 282 1094 269 1083 q 317 1104 295 1104 l 346 1104 q 407 1092 386 1104 q 453 1044 428 1079 l 491 994 q 515 939 515 960 q 506 918 515 926 q 480 910 496 910 z "},"Ẻ":{"ha":860,"x_min":135,"x_max":744,"o":"m 744 791 q 639 722 744 722 l 326 722 l 326 499 l 578 499 q 653 482 632 499 q 675 431 675 464 q 653 380 675 397 q 578 362 632 362 l 326 362 l 326 138 l 639 138 q 744 69 744 138 q 639 0 744 0 l 245 0 q 135 110 135 0 l 135 750 q 245 860 135 860 l 639 860 q 744 791 744 860 m 407 915 q 371 927 383 915 q 358 958 358 939 q 370 991 358 977 q 407 1004 382 1004 q 467 1013 440 1004 q 495 1044 495 1021 q 469 1072 495 1066 q 414 1077 442 1077 q 373 1075 390 1077 q 341 1069 357 1074 q 326 1066 333 1067 q 313 1065 319 1065 q 289 1074 299 1065 q 278 1098 278 1083 q 317 1148 278 1131 q 418 1166 356 1166 q 507 1156 465 1166 q 576 1118 549 1145 q 603 1042 603 1091 q 571 967 603 995 q 493 926 539 938 q 407 915 447 915 z "},"Ȇ":{"ha":860,"x_min":135,"x_max":744,"o":"m 744 791 q 639 722 744 722 l 326 722 l 326 499 l 578 499 q 653 482 632 499 q 675 431 675 464 q 653 380 675 397 q 578 362 632 362 l 326 362 l 326 138 l 639 138 q 744 69 744 138 q 639 0 744 0 l 245 0 q 135 110 135 0 l 135 750 q 245 860 135 860 l 639 860 q 744 791 744 860 m 557 913 q 511 927 525 913 q 494 961 498 942 q 480 994 491 978 q 441 1010 469 1010 q 401 994 413 1010 q 386 961 390 978 q 369 927 383 942 q 324 913 356 913 q 285 927 300 913 q 270 964 270 942 q 278 997 270 979 q 304 1030 285 1015 q 357 1079 324 1059 q 440 1099 390 1099 q 528 1077 492 1099 q 583 1022 564 1054 q 605 992 599 1008 q 611 963 611 976 q 597 926 611 940 q 557 913 583 913 z "},"Ē":{"ha":860,"x_min":135,"x_max":744,"o":"m 744 791 q 639 722 744 722 l 326 722 l 326 499 l 578 499 q 653 482 632 499 q 675 431 675 464 q 653 380 675 397 q 578 362 632 362 l 326 362 l 326 138 l 639 138 q 744 69 744 138 q 639 0 744 0 l 245 0 q 135 110 135 0 l 135 750 q 245 860 135 860 l 639 860 q 744 791 744 860 m 177 987 q 200 1027 177 1012 q 274 1042 223 1042 l 607 1042 q 680 1027 657 1042 q 703 987 703 1012 q 680 947 703 962 q 607 932 657 932 l 274 932 q 200 947 223 932 q 177 987 177 962 z "},"Ę":{"ha":860,"x_min":135,"x_max":744,"o":"m 744 791 q 639 722 744 722 l 326 722 l 326 499 l 578 499 q 653 482 632 499 q 675 431 675 464 q 653 380 675 397 q 578 362 632 362 l 326 362 l 326 138 l 639 138 q 744 69 744 138 q 639 0 744 0 l 245 0 q 135 110 135 0 l 135 750 q 245 860 135 860 l 639 860 q 744 791 744 860 m 594 -328 q 502 -315 545 -328 q 431 -273 458 -302 q 404 -193 404 -243 q 418 -124 404 -158 q 452 -64 431 -91 q 497 -20 474 -37 q 540 0 519 -3 l 624 0 q 590 -35 609 -9 q 558 -93 572 -60 q 544 -155 544 -125 q 561 -201 544 -187 q 607 -216 578 -216 q 630 -214 616 -216 q 653 -210 644 -212 q 674 -207 665 -208 q 691 -206 683 -206 q 727 -219 716 -206 q 738 -254 738 -233 q 695 -310 738 -292 q 594 -328 653 -328 z "},"Ẽ":{"ha":860,"x_min":135,"x_max":744,"o":"m 744 791 q 639 722 744 722 l 326 722 l 326 499 l 578 499 q 653 482 632 499 q 675 431 675 464 q 653 380 675 397 q 578 362 632 362 l 326 362 l 326 138 l 639 138 q 744 69 744 138 q 639 0 744 0 l 245 0 q 135 110 135 0 l 135 750 q 245 860 135 860 l 639 860 q 744 791 744 860 m 519 922 q 465 933 485 922 q 428 958 446 944 q 401 976 415 969 q 369 983 388 983 q 333 977 349 983 q 303 962 317 970 q 284 951 293 956 q 266 947 274 947 q 244 959 253 947 q 235 988 235 971 q 270 1053 235 1022 q 311 1078 288 1067 q 362 1089 334 1089 q 417 1080 397 1089 q 451 1055 436 1070 q 477 1035 463 1043 q 513 1026 491 1026 q 547 1033 533 1026 q 572 1048 560 1039 q 590 1059 581 1055 q 610 1063 599 1063 q 637 1053 625 1063 q 649 1022 649 1043 q 633 981 649 999 q 588 942 617 961 q 519 922 560 922 z "},"Ə":{"ha":860,"x_min":93,"x_max":759,"o":"m 422 -15 q 253 29 327 -15 q 136 160 179 72 q 93 381 93 248 q 195 474 93 474 l 587 474 l 587 371 l 247 371 l 270 399 q 308 191 270 259 q 418 123 346 123 q 497 153 462 123 q 554 249 533 183 q 576 425 576 316 q 555 601 576 535 q 497 694 533 666 q 410 722 460 722 q 344 708 373 722 q 293 674 315 694 q 255 634 271 653 q 219 606 240 618 q 168 594 199 594 q 119 610 137 594 q 102 664 102 626 q 112 707 102 688 q 142 746 122 726 q 204 799 166 772 q 295 843 242 826 q 420 860 349 860 q 588 817 510 860 q 712 678 665 774 q 759 425 759 582 q 732 226 759 310 q 659 90 706 142 q 551 11 612 37 q 422 -15 490 -15 z "},"F":{"ha":860,"x_min":167,"x_max":761,"o":"m 761 791 q 733 740 761 758 q 651 722 705 722 l 358 722 l 358 435 l 612 435 q 705 365 705 435 q 612 297 705 297 l 358 297 l 358 99 q 263 -11 358 -11 q 167 99 167 -11 l 167 750 q 278 860 167 860 l 651 860 q 733 842 705 860 q 761 791 761 825 z "},"G":{"ha":860,"x_min":49,"x_max":800,"o":"m 442 -15 q 295 10 365 -15 q 169 87 224 34 q 82 224 114 140 q 49 427 49 308 q 84 631 49 547 q 176 767 118 715 q 307 844 235 819 q 456 868 380 868 q 595 847 534 868 q 703 785 657 826 q 738 743 726 765 q 749 700 749 721 q 723 645 749 667 q 667 624 698 624 q 624 635 644 624 q 587 663 603 646 q 534 707 566 686 q 458 728 503 728 q 354 698 403 728 q 273 602 304 668 q 241 427 241 536 q 272 248 241 314 q 350 154 302 182 q 453 126 399 126 q 538 148 503 126 q 591 214 572 171 q 612 319 610 258 l 507 319 q 443 334 467 319 q 419 385 419 350 q 442 435 419 419 q 505 450 465 450 l 699 450 q 776 424 752 450 q 800 349 800 399 q 753 148 800 229 q 625 26 706 67 q 442 -15 544 -15 z "},"Ğ":{"ha":860,"x_min":49,"x_max":800,"o":"m 442 -15 q 295 10 365 -15 q 169 87 224 34 q 82 224 114 140 q 49 427 49 308 q 84 631 49 547 q 176 767 118 715 q 307 844 235 819 q 456 868 380 868 q 595 847 534 868 q 703 785 657 826 q 738 743 726 765 q 749 700 749 721 q 723 645 749 667 q 667 624 698 624 q 624 635 644 624 q 587 663 603 646 q 534 707 566 686 q 458 728 503 728 q 354 698 403 728 q 273 602 304 668 q 241 427 241 536 q 272 248 241 314 q 350 154 302 182 q 453 126 399 126 q 538 148 503 126 q 591 214 572 171 q 612 319 610 258 l 507 319 q 443 334 467 319 q 419 385 419 350 q 442 435 419 419 q 505 450 465 450 l 699 450 q 776 424 752 450 q 800 349 800 399 q 753 148 800 229 q 625 26 706 67 q 442 -15 544 -15 m 564 1139 q 604 1125 590 1139 q 618 1088 618 1111 q 612 1060 618 1076 q 590 1028 606 1044 q 535 974 571 997 q 447 951 499 951 q 364 972 397 951 q 311 1021 331 992 q 285 1055 292 1037 q 277 1087 277 1072 q 292 1124 277 1110 q 331 1139 307 1139 q 376 1124 363 1139 q 393 1090 390 1110 q 408 1057 397 1072 q 448 1041 419 1041 q 487 1057 476 1041 q 501 1090 498 1072 q 518 1124 505 1110 q 564 1139 532 1139 z "},"Ǧ":{"ha":860,"x_min":49,"x_max":800,"o":"m 442 -15 q 295 10 365 -15 q 169 87 224 34 q 82 224 114 140 q 49 427 49 308 q 84 631 49 547 q 176 767 118 715 q 307 844 235 819 q 456 868 380 868 q 595 847 534 868 q 703 785 657 826 q 738 743 726 765 q 749 700 749 721 q 723 645 749 667 q 667 624 698 624 q 624 635 644 624 q 587 663 603 646 q 534 707 566 686 q 458 728 503 728 q 354 698 403 728 q 273 602 304 668 q 241 427 241 536 q 272 248 241 314 q 350 154 302 182 q 453 126 399 126 q 538 148 503 126 q 591 214 572 171 q 612 319 610 258 l 507 319 q 443 334 467 319 q 419 385 419 350 q 442 435 419 419 q 505 450 465 450 l 699 450 q 776 424 752 450 q 800 349 800 399 q 753 148 800 229 q 625 26 706 67 q 442 -15 544 -15 m 604 1018 l 564 977 q 510 928 535 945 q 448 912 485 912 q 385 928 410 912 q 331 977 360 945 l 292 1018 q 276 1053 276 1035 q 291 1086 276 1074 q 329 1099 306 1099 q 364 1089 350 1099 q 393 1060 378 1078 l 448 998 l 503 1060 q 531 1088 516 1076 q 566 1099 546 1099 q 605 1086 590 1099 q 620 1053 620 1074 q 617 1037 620 1046 q 604 1018 613 1028 z "},"Ĝ":{"ha":860,"x_min":49,"x_max":800,"o":"m 442 -15 q 295 10 365 -15 q 169 87 224 34 q 82 224 114 140 q 49 427 49 308 q 84 631 49 547 q 176 767 118 715 q 307 844 235 819 q 456 868 380 868 q 595 847 534 868 q 703 785 657 826 q 738 743 726 765 q 749 700 749 721 q 723 645 749 667 q 667 624 698 624 q 624 635 644 624 q 587 663 603 646 q 534 707 566 686 q 458 728 503 728 q 354 698 403 728 q 273 602 304 668 q 241 427 241 536 q 272 248 241 314 q 350 154 302 182 q 453 126 399 126 q 538 148 503 126 q 591 214 572 171 q 612 319 610 258 l 507 319 q 443 334 467 319 q 419 385 419 350 q 442 435 419 419 q 505 450 465 450 l 699 450 q 776 424 752 450 q 800 349 800 399 q 753 148 800 229 q 625 26 706 67 q 442 -15 544 -15 m 604 990 q 621 955 621 972 q 606 922 621 935 q 567 909 591 909 q 531 920 546 909 q 503 948 517 931 l 448 1010 l 393 947 q 365 920 379 931 q 330 909 351 909 q 291 922 306 909 q 276 956 276 935 q 280 972 276 963 q 292 990 283 981 l 332 1032 q 385 1080 360 1064 q 448 1097 410 1097 q 511 1080 486 1097 q 565 1032 536 1064 l 604 990 z "},"Ģ":{"ha":860,"x_min":49,"x_max":800,"o":"m 442 -15 q 295 10 365 -15 q 169 87 224 34 q 82 224 114 140 q 49 427 49 308 q 84 631 49 547 q 176 767 118 715 q 307 844 235 819 q 456 868 380 868 q 595 847 534 868 q 703 785 657 826 q 738 743 726 765 q 749 700 749 721 q 723 645 749 667 q 667 624 698 624 q 624 635 644 624 q 587 663 603 646 q 534 707 566 686 q 458 728 503 728 q 354 698 403 728 q 273 602 304 668 q 241 427 241 536 q 272 248 241 314 q 350 154 302 182 q 453 126 399 126 q 538 148 503 126 q 591 214 572 171 q 612 319 610 258 l 507 319 q 443 334 467 319 q 419 385 419 350 q 442 435 419 419 q 505 450 465 450 l 699 450 q 776 424 752 450 q 800 349 800 399 q 753 148 800 229 q 625 26 706 67 q 442 -15 544 -15 m 457 -66 q 510 -87 488 -66 q 533 -142 533 -108 q 519 -220 533 -171 q 460 -310 505 -269 q 435 -330 447 -324 q 415 -335 424 -335 q 405 -331 408 -335 q 401 -323 401 -326 q 409 -305 401 -316 q 433 -279 418 -294 q 456 -249 447 -265 q 469 -216 465 -233 q 463 -216 467 -216 q 457 -216 460 -216 q 403 -194 425 -216 q 382 -141 382 -173 q 403 -88 382 -110 q 457 -66 425 -66 z "},"Ġ":{"ha":860,"x_min":49,"x_max":800,"o":"m 442 -15 q 295 10 365 -15 q 169 87 224 34 q 82 224 114 140 q 49 427 49 308 q 84 631 49 547 q 176 767 118 715 q 307 844 235 819 q 456 868 380 868 q 595 847 534 868 q 703 785 657 826 q 738 743 726 765 q 749 700 749 721 q 723 645 749 667 q 667 624 698 624 q 624 635 644 624 q 587 663 603 646 q 534 707 566 686 q 458 728 503 728 q 354 698 403 728 q 273 602 304 668 q 241 427 241 536 q 272 248 241 314 q 350 154 302 182 q 453 126 399 126 q 538 148 503 126 q 591 214 572 171 q 612 319 610 258 l 507 319 q 443 334 467 319 q 419 385 419 350 q 442 435 419 419 q 505 450 465 450 l 699 450 q 776 424 752 450 q 800 349 800 399 q 753 148 800 229 q 625 26 706 67 q 442 -15 544 -15 m 448 956 q 375 986 405 956 q 344 1060 344 1017 q 375 1134 344 1104 q 448 1165 405 1165 q 522 1134 492 1165 q 552 1060 552 1104 q 522 986 552 1017 q 448 956 492 956 z "},"H":{"ha":860,"x_min":85,"x_max":772,"o":"m 581 756 q 677 867 581 867 q 772 756 772 867 l 772 99 q 677 -11 772 -11 q 581 99 581 -11 l 581 369 l 276 369 l 276 99 q 181 -11 276 -11 q 85 99 85 -11 l 85 756 q 110 838 85 810 q 181 867 135 867 q 276 756 276 867 l 276 506 l 581 506 l 581 756 z "},"Ħ":{"ha":860,"x_min":24,"x_max":831,"o":"m 24 685 q 46 730 24 715 q 122 745 67 745 l 734 745 q 809 730 788 745 q 831 685 831 715 q 809 641 831 657 q 734 626 788 626 l 122 626 q 46 641 67 626 q 24 685 24 657 m 581 756 q 677 867 581 867 q 772 756 772 867 l 772 99 q 677 -11 772 -11 q 581 99 581 -11 l 581 369 l 276 369 l 276 99 q 181 -11 276 -11 q 85 99 85 -11 l 85 756 q 110 838 85 810 q 181 867 135 867 q 276 756 276 867 l 276 506 l 581 506 l 581 756 z "},"Ĥ":{"ha":860,"x_min":85,"x_max":772,"o":"m 581 756 q 677 867 581 867 q 772 756 772 867 l 772 99 q 677 -11 772 -11 q 581 99 581 -11 l 581 369 l 276 369 l 276 99 q 181 -11 276 -11 q 85 99 85 -11 l 85 756 q 110 838 85 810 q 181 867 135 867 q 276 756 276 867 l 276 506 l 581 506 l 581 756 m 584 990 q 601 955 601 972 q 586 922 601 935 q 547 909 571 909 q 511 920 526 909 q 483 948 497 931 l 428 1010 l 373 947 q 345 920 359 931 q 310 909 331 909 q 271 922 285 909 q 256 956 256 935 q 260 972 256 963 q 272 990 263 981 l 312 1032 q 365 1080 340 1064 q 428 1097 390 1097 q 491 1080 466 1097 q 544 1032 516 1064 l 584 990 z "},"I":{"ha":860,"x_min":113,"x_max":740,"o":"m 214 0 q 139 18 164 0 q 113 69 113 35 q 139 120 113 102 q 214 138 164 138 l 337 138 l 337 722 l 214 722 q 139 740 164 722 q 113 791 113 758 q 139 842 113 824 q 214 860 164 860 l 640 860 q 715 842 690 860 q 740 791 740 824 q 715 740 740 758 q 640 722 690 722 l 519 722 l 519 138 l 640 138 q 715 120 690 138 q 740 69 740 102 q 715 18 740 35 q 640 0 690 0 l 214 0 z "},"Í":{"ha":860,"x_min":113,"x_max":740,"o":"m 214 0 q 139 18 164 0 q 113 69 113 35 q 139 120 113 102 q 214 138 164 138 l 337 138 l 337 722 l 214 722 q 139 740 164 722 q 113 791 113 758 q 139 842 113 824 q 214 860 164 860 l 640 860 q 715 842 690 860 q 740 791 740 824 q 715 740 740 758 q 640 722 690 722 l 519 722 l 519 138 l 640 138 q 715 120 690 138 q 740 69 740 102 q 715 18 740 35 q 640 0 690 0 l 214 0 m 406 915 q 381 923 390 915 q 371 945 371 931 q 395 999 371 966 l 433 1049 q 480 1097 459 1085 q 540 1110 500 1110 l 569 1110 q 604 1099 591 1110 q 617 1072 617 1089 q 591 1026 617 1049 l 531 968 q 469 927 499 940 q 406 915 439 915 z "},"Ĭ":{"ha":860,"x_min":113,"x_max":740,"o":"m 214 0 q 139 18 164 0 q 113 69 113 35 q 139 120 113 102 q 214 138 164 138 l 337 138 l 337 722 l 214 722 q 139 740 164 722 q 113 791 113 758 q 139 842 113 824 q 214 860 164 860 l 640 860 q 715 842 690 860 q 740 791 740 824 q 715 740 740 758 q 640 722 690 722 l 519 722 l 519 138 l 640 138 q 715 120 690 138 q 740 69 740 102 q 715 18 740 35 q 640 0 690 0 l 214 0 m 545 1103 q 585 1090 571 1103 q 599 1053 599 1076 q 593 1025 599 1040 q 572 994 587 1009 q 516 939 552 962 q 428 917 481 917 q 345 937 378 917 q 292 986 312 957 q 266 1020 274 1002 q 258 1052 258 1038 q 273 1089 258 1075 q 313 1103 288 1103 q 357 1089 344 1103 q 374 1056 371 1075 q 390 1022 378 1038 q 429 1006 401 1006 q 468 1022 458 1006 q 483 1055 479 1038 q 500 1089 486 1074 q 545 1103 513 1103 z "},"Ǐ":{"ha":860,"x_min":113,"x_max":740,"o":"m 214 0 q 139 18 164 0 q 113 69 113 35 q 139 120 113 102 q 214 138 164 138 l 337 138 l 337 722 l 214 722 q 139 740 164 722 q 113 791 113 758 q 139 842 113 824 q 214 860 164 860 l 640 860 q 715 842 690 860 q 740 791 740 824 q 715 740 740 758 q 640 722 690 722 l 519 722 l 519 138 l 640 138 q 715 120 690 138 q 740 69 740 102 q 715 18 740 35 q 640 0 690 0 l 214 0 m 585 1018 l 545 977 q 492 928 517 945 q 429 912 467 912 q 366 928 392 912 q 313 977 341 945 l 273 1018 q 257 1053 257 1035 q 272 1086 257 1074 q 310 1099 287 1099 q 345 1089 331 1099 q 374 1060 360 1078 l 429 998 l 484 1060 q 512 1088 497 1076 q 547 1099 527 1099 q 586 1086 572 1099 q 601 1053 601 1074 q 598 1037 601 1046 q 585 1018 594 1028 z "},"Î":{"ha":860,"x_min":113,"x_max":740,"o":"m 214 0 q 139 18 164 0 q 113 69 113 35 q 139 120 113 102 q 214 138 164 138 l 337 138 l 337 722 l 214 722 q 139 740 164 722 q 113 791 113 758 q 139 842 113 824 q 214 860 164 860 l 640 860 q 715 842 690 860 q 740 791 740 824 q 715 740 740 758 q 640 722 690 722 l 519 722 l 519 138 l 640 138 q 715 120 690 138 q 740 69 740 102 q 715 18 740 35 q 640 0 690 0 l 214 0 m 585 990 q 602 955 602 972 q 587 922 602 935 q 548 909 572 909 q 513 920 527 909 q 485 948 498 931 l 429 1010 l 374 947 q 346 920 360 931 q 311 909 332 909 q 272 922 287 909 q 258 956 258 935 q 261 972 258 963 q 274 990 265 981 l 313 1032 q 367 1080 342 1064 q 429 1097 392 1097 q 492 1080 467 1097 q 546 1032 517 1064 l 585 990 z "},"Ȉ":{"ha":860,"x_min":113,"x_max":740,"o":"m 214 0 q 139 18 164 0 q 113 69 113 35 q 139 120 113 102 q 214 138 164 138 l 337 138 l 337 722 l 214 722 q 139 740 164 722 q 113 791 113 758 q 139 842 113 824 q 214 860 164 860 l 640 860 q 715 842 690 860 q 740 791 740 824 q 715 740 740 758 q 640 722 690 722 l 519 722 l 519 138 l 640 138 q 715 120 690 138 q 740 69 740 102 q 715 18 740 35 q 640 0 690 0 l 214 0 m 334 913 q 281 925 306 913 q 228 965 256 937 l 172 1023 q 155 1047 160 1035 q 149 1069 149 1059 q 160 1097 149 1086 q 190 1108 172 1108 l 215 1108 q 268 1095 250 1108 q 308 1047 286 1083 l 343 997 q 365 942 365 962 q 356 920 365 928 q 334 913 348 913 m 559 913 q 506 925 531 913 q 453 965 481 937 l 397 1023 q 374 1069 374 1046 q 385 1097 374 1086 q 415 1108 397 1108 l 440 1108 q 492 1095 474 1108 q 532 1047 510 1082 l 568 997 q 584 966 579 980 q 589 942 589 953 q 581 920 589 928 q 559 913 572 913 z "},"Ï":{"ha":860,"x_min":113,"x_max":740,"o":"m 214 0 q 139 18 164 0 q 113 69 113 35 q 139 120 113 102 q 214 138 164 138 l 337 138 l 337 722 l 214 722 q 139 740 164 722 q 113 791 113 758 q 139 842 113 824 q 214 860 164 860 l 640 860 q 715 842 690 860 q 740 791 740 824 q 715 740 740 758 q 640 722 690 722 l 519 722 l 519 138 l 640 138 q 715 120 690 138 q 740 69 740 102 q 715 18 740 35 q 640 0 690 0 l 214 0 m 284 928 q 211 958 241 928 q 181 1032 181 988 q 211 1107 181 1076 q 284 1138 241 1138 q 358 1107 328 1138 q 388 1032 388 1076 q 358 958 388 988 q 284 928 328 928 m 573 928 q 500 958 530 928 q 469 1032 469 988 q 500 1107 469 1076 q 573 1138 530 1138 q 647 1107 617 1138 q 678 1032 678 1076 q 647 958 678 988 q 573 928 617 928 z "},"İ":{"ha":860,"x_min":113,"x_max":740,"o":"m 214 0 q 139 18 164 0 q 113 69 113 35 q 139 120 113 102 q 214 138 164 138 l 337 138 l 337 722 l 214 722 q 139 740 164 722 q 113 791 113 758 q 139 842 113 824 q 214 860 164 860 l 640 860 q 715 842 690 860 q 740 791 740 824 q 715 740 740 758 q 640 722 690 722 l 519 722 l 519 138 l 640 138 q 715 120 690 138 q 740 69 740 102 q 715 18 740 35 q 640 0 690 0 l 214 0 m 429 930 q 355 960 385 930 q 325 1034 325 990 q 355 1108 325 1078 q 429 1139 385 1139 q 502 1108 472 1139 q 533 1034 533 1078 q 502 960 533 990 q 429 930 472 930 z "},"Ị":{"ha":860,"x_min":113,"x_max":740,"o":"m 214 0 q 139 18 164 0 q 113 69 113 35 q 139 120 113 102 q 214 138 164 138 l 337 138 l 337 722 l 214 722 q 139 740 164 722 q 113 791 113 758 q 139 842 113 824 q 214 860 164 860 l 640 860 q 715 842 690 860 q 740 791 740 824 q 715 740 740 758 q 640 722 690 722 l 519 722 l 519 138 l 640 138 q 715 120 690 138 q 740 69 740 102 q 715 18 740 35 q 640 0 690 0 l 214 0 m 430 -272 q 357 -241 387 -272 q 326 -167 326 -211 q 357 -93 326 -124 q 430 -62 387 -62 q 503 -93 474 -62 q 533 -167 533 -124 q 503 -242 533 -213 q 430 -272 474 -272 z "},"Ì":{"ha":860,"x_min":113,"x_max":740,"o":"m 214 0 q 139 18 164 0 q 113 69 113 35 q 139 120 113 102 q 214 138 164 138 l 337 138 l 337 722 l 214 722 q 139 740 164 722 q 113 791 113 758 q 139 842 113 824 q 214 860 164 860 l 640 860 q 715 842 690 860 q 740 791 740 824 q 715 740 740 758 q 640 722 690 722 l 519 722 l 519 138 l 640 138 q 715 120 690 138 q 740 69 740 102 q 715 18 740 35 q 640 0 690 0 l 214 0 m 468 910 q 406 922 435 910 q 344 962 376 934 l 283 1020 q 257 1067 257 1043 q 270 1094 257 1083 q 305 1104 283 1104 l 334 1104 q 395 1092 374 1104 q 442 1044 416 1079 l 479 994 q 503 939 503 960 q 494 918 503 926 q 468 910 484 910 z "},"Ỉ":{"ha":860,"x_min":113,"x_max":740,"o":"m 214 0 q 139 18 164 0 q 113 69 113 35 q 139 120 113 102 q 214 138 164 138 l 337 138 l 337 722 l 214 722 q 139 740 164 722 q 113 791 113 758 q 139 842 113 824 q 214 860 164 860 l 640 860 q 715 842 690 860 q 740 791 740 824 q 715 740 740 758 q 640 722 690 722 l 519 722 l 519 138 l 640 138 q 715 120 690 138 q 740 69 740 102 q 715 18 740 35 q 640 0 690 0 l 214 0 m 395 915 q 359 927 372 915 q 347 958 347 939 q 358 991 347 977 q 395 1004 370 1004 q 456 1013 428 1004 q 483 1044 483 1021 q 457 1072 483 1066 q 402 1077 431 1077 q 361 1075 378 1077 q 329 1069 345 1074 q 314 1066 321 1067 q 301 1065 307 1065 q 277 1074 287 1065 q 267 1098 267 1083 q 306 1148 267 1131 q 406 1166 344 1166 q 495 1156 453 1166 q 564 1118 538 1145 q 591 1042 591 1091 q 559 967 591 995 q 481 926 527 938 q 395 915 435 915 z "},"Ȋ":{"ha":860,"x_min":113,"x_max":740,"o":"m 214 0 q 139 18 164 0 q 113 69 113 35 q 139 120 113 102 q 214 138 164 138 l 337 138 l 337 722 l 214 722 q 139 740 164 722 q 113 791 113 758 q 139 842 113 824 q 214 860 164 860 l 640 860 q 715 842 690 860 q 740 791 740 824 q 715 740 740 758 q 640 722 690 722 l 519 722 l 519 138 l 640 138 q 715 120 690 138 q 740 69 740 102 q 715 18 740 35 q 640 0 690 0 l 214 0 m 545 913 q 500 927 513 913 q 483 961 486 942 q 468 994 479 978 q 429 1010 458 1010 q 390 994 401 1010 q 374 961 378 978 q 357 927 371 942 q 313 913 344 913 q 273 927 288 913 q 258 964 258 942 q 266 997 258 979 q 292 1030 274 1015 q 345 1079 312 1059 q 428 1099 378 1099 q 516 1077 481 1099 q 572 1022 552 1054 q 593 992 587 1008 q 599 963 599 976 q 585 926 599 940 q 545 913 571 913 z "},"Ī":{"ha":860,"x_min":113,"x_max":740,"o":"m 214 0 q 139 18 164 0 q 113 69 113 35 q 139 120 113 102 q 214 138 164 138 l 337 138 l 337 722 l 214 722 q 139 740 164 722 q 113 791 113 758 q 139 842 113 824 q 214 860 164 860 l 640 860 q 715 842 690 860 q 740 791 740 824 q 715 740 740 758 q 640 722 690 722 l 519 722 l 519 138 l 640 138 q 715 120 690 138 q 740 69 740 102 q 715 18 740 35 q 640 0 690 0 l 214 0 m 165 987 q 188 1027 165 1012 q 262 1042 211 1042 l 595 1042 q 668 1027 645 1042 q 692 987 692 1012 q 668 947 692 962 q 595 932 645 932 l 262 932 q 188 947 211 932 q 165 987 165 962 z "},"Į":{"ha":860,"x_min":113,"x_max":740,"o":"m 214 0 q 139 18 164 0 q 113 69 113 35 q 139 120 113 102 q 214 138 164 138 l 337 138 l 337 722 l 214 722 q 139 740 164 722 q 113 791 113 758 q 139 842 113 824 q 214 860 164 860 l 640 860 q 715 842 690 860 q 740 791 740 824 q 715 740 740 758 q 640 722 690 722 l 519 722 l 519 138 l 640 138 q 715 120 690 138 q 740 69 740 102 q 715 18 740 35 q 640 0 690 0 l 214 0 m 585 -328 q 493 -315 537 -328 q 423 -273 450 -302 q 396 -193 396 -243 q 409 -124 396 -158 q 444 -64 423 -91 q 488 -20 465 -37 q 531 0 511 -3 l 615 0 q 582 -35 601 -9 q 549 -93 563 -60 q 535 -155 535 -125 q 553 -201 535 -187 q 599 -216 570 -216 q 622 -214 608 -216 q 645 -210 636 -212 q 666 -207 656 -208 q 683 -206 675 -206 q 718 -219 708 -206 q 729 -254 729 -233 q 687 -310 729 -292 q 585 -328 644 -328 z "},"Ĩ":{"ha":860,"x_min":113,"x_max":740,"o":"m 214 0 q 139 18 164 0 q 113 69 113 35 q 139 120 113 102 q 214 138 164 138 l 337 138 l 337 722 l 214 722 q 139 740 164 722 q 113 791 113 758 q 139 842 113 824 q 214 860 164 860 l 640 860 q 715 842 690 860 q 740 791 740 824 q 715 740 740 758 q 640 722 690 722 l 519 722 l 519 138 l 640 138 q 715 120 690 138 q 740 69 740 102 q 715 18 740 35 q 640 0 690 0 l 214 0 m 507 922 q 453 933 472 922 q 415 958 433 944 q 389 976 402 969 q 356 983 376 983 q 320 977 337 983 q 291 962 304 970 q 271 951 281 956 q 253 947 262 947 q 232 959 241 947 q 223 988 223 971 q 258 1053 223 1022 q 298 1078 275 1067 q 349 1089 322 1089 q 404 1080 385 1089 q 439 1055 424 1070 q 465 1035 451 1043 q 501 1026 478 1026 q 534 1033 520 1026 q 560 1048 548 1039 q 577 1059 568 1055 q 598 1063 587 1063 q 624 1053 613 1063 q 636 1022 636 1043 q 620 981 636 999 q 576 942 604 961 q 507 922 547 922 z "},"J":{"ha":860,"x_min":47,"x_max":709,"o":"m 375 -15 q 210 16 285 -15 q 91 111 135 47 q 47 277 47 175 q 72 342 47 319 q 135 365 97 365 q 205 339 183 365 q 240 263 228 313 q 262 184 244 215 q 308 139 280 153 q 375 124 337 124 q 455 148 423 124 q 503 225 487 172 q 519 365 519 278 l 519 750 q 614 860 519 860 q 709 750 709 860 l 709 353 q 666 136 709 217 q 548 20 624 56 q 375 -15 473 -15 z "},"Ĵ":{"ha":860,"x_min":47,"x_max":789,"o":"m 375 -15 q 210 16 285 -15 q 91 111 135 47 q 47 277 47 175 q 72 342 47 319 q 135 365 97 365 q 205 339 183 365 q 240 263 228 313 q 262 184 244 215 q 308 139 280 153 q 375 124 337 124 q 455 148 423 124 q 503 225 487 172 q 519 365 519 278 l 519 750 q 614 860 519 860 q 709 750 709 860 l 709 353 q 666 136 709 217 q 548 20 624 56 q 375 -15 473 -15 m 772 990 q 788 955 788 972 q 773 922 788 935 q 734 909 758 909 q 699 920 713 909 q 671 948 684 931 l 615 1010 l 560 947 q 532 920 547 931 q 497 909 518 909 q 458 922 473 909 q 444 956 444 935 q 447 972 444 963 q 460 990 451 981 l 499 1032 q 553 1080 528 1064 q 615 1097 578 1097 q 678 1080 653 1097 q 732 1032 703 1064 l 772 990 z "},"K":{"ha":860,"x_min":117,"x_max":755,"o":"m 212 -13 q 117 96 117 -13 l 117 757 q 141 839 117 811 q 212 867 165 867 q 308 757 308 867 l 308 498 l 555 791 q 609 847 583 827 q 676 867 635 867 q 736 848 717 867 q 755 798 755 829 q 749 764 755 779 q 729 733 742 749 l 522 501 q 481 454 497 472 q 456 431 464 436 q 481 406 464 425 q 526 353 498 388 l 728 124 q 749 91 743 106 q 754 56 754 76 q 731 6 754 25 q 669 -13 708 -13 q 605 4 628 -13 q 554 57 581 21 l 308 358 l 308 96 q 212 -13 308 -13 z "},"Ķ":{"ha":860,"x_min":117,"x_max":755,"o":"m 212 -13 q 117 96 117 -13 l 117 757 q 141 839 117 811 q 212 867 165 867 q 308 757 308 867 l 308 498 l 555 791 q 609 847 583 827 q 676 867 635 867 q 736 848 717 867 q 755 798 755 829 q 749 764 755 779 q 729 733 742 749 l 522 501 q 481 454 497 472 q 456 431 464 436 q 481 406 464 425 q 526 353 498 388 l 728 124 q 749 91 743 106 q 754 56 754 76 q 731 6 754 25 q 669 -13 708 -13 q 605 4 628 -13 q 554 57 581 21 l 308 358 l 308 96 q 212 -13 308 -13 m 413 -51 q 466 -72 443 -51 q 488 -128 488 -93 q 474 -205 488 -156 q 416 -296 460 -254 q 391 -315 403 -309 q 371 -321 379 -321 q 360 -316 364 -321 q 356 -308 356 -312 q 365 -291 356 -301 q 388 -265 374 -280 q 412 -234 403 -251 q 425 -201 421 -218 q 419 -201 422 -201 q 413 -201 415 -201 q 359 -180 381 -201 q 338 -126 338 -158 q 359 -73 338 -95 q 413 -51 381 -51 z "},"L":{"ha":860,"x_min":191,"x_max":757,"o":"m 382 138 l 647 138 q 729 120 701 138 q 757 69 757 102 q 729 18 757 35 q 647 0 701 0 l 301 0 q 191 110 191 0 l 191 756 q 287 867 191 867 q 382 756 382 867 l 382 138 z "},"Ĺ":{"ha":860,"x_min":172,"x_max":757,"o":"m 382 138 l 647 138 q 729 120 701 138 q 757 69 757 102 q 729 18 757 35 q 647 0 701 0 l 301 0 q 191 110 191 0 l 191 756 q 287 867 191 867 q 382 756 382 867 l 382 138 m 206 950 q 183 956 194 950 q 172 980 172 963 q 192 1033 172 999 l 227 1084 q 271 1134 249 1123 q 333 1145 292 1145 l 353 1145 q 386 1134 374 1145 q 398 1108 398 1124 q 371 1061 398 1085 l 293 988 q 247 958 268 965 q 206 950 225 950 z "},"Ľ":{"ha":860,"x_min":191,"x_max":757,"o":"m 382 138 l 647 138 q 729 120 701 138 q 757 69 757 102 q 729 18 757 35 q 647 0 701 0 l 301 0 q 191 110 191 0 l 191 756 q 287 867 191 867 q 382 756 382 867 l 382 138 m 578 583 q 534 607 548 583 q 521 667 521 632 q 523 689 521 674 q 527 724 524 703 q 533 770 530 745 q 540 822 537 795 q 617 921 553 921 q 672 901 651 921 q 693 846 693 881 q 691 820 693 836 q 683 783 688 805 q 671 734 678 762 q 654 673 664 707 q 578 583 626 583 z "},"Ļ":{"ha":860,"x_min":191,"x_max":757,"o":"m 382 138 l 647 138 q 729 120 701 138 q 757 69 757 102 q 729 18 757 35 q 647 0 701 0 l 301 0 q 191 110 191 0 l 191 756 q 287 867 191 867 q 382 756 382 867 l 382 138 m 485 -51 q 538 -72 515 -51 q 560 -128 560 -93 q 547 -205 560 -156 q 488 -296 533 -254 q 463 -315 475 -309 q 443 -321 451 -321 q 432 -316 436 -321 q 428 -308 428 -312 q 437 -291 428 -301 q 460 -265 446 -280 q 484 -234 475 -251 q 497 -201 493 -218 q 491 -201 494 -201 q 485 -201 488 -201 q 431 -180 453 -201 q 410 -126 410 -158 q 431 -73 410 -95 q 485 -51 453 -51 z "},"Ŀ":{"ha":860,"x_min":191,"x_max":838,"o":"m 735 357 q 661 387 692 357 q 631 461 631 417 q 661 535 631 505 q 735 565 692 565 q 808 535 778 565 q 838 461 838 505 q 808 387 838 417 q 735 357 778 357 m 382 138 l 647 138 q 729 120 701 138 q 757 69 757 102 q 729 18 757 35 q 647 0 701 0 l 301 0 q 191 110 191 0 l 191 756 q 287 867 191 867 q 382 756 382 867 l 382 138 z "},"Ł":{"ha":860,"x_min":88,"x_max":757,"o":"m 151 226 q 106 247 124 226 q 88 291 88 267 q 147 377 88 333 l 381 564 q 461 598 426 598 q 507 578 488 598 q 525 533 525 558 q 467 447 525 491 l 232 260 q 151 226 187 226 m 382 138 l 647 138 q 729 120 701 138 q 757 69 757 102 q 729 18 757 35 q 647 0 701 0 l 301 0 q 191 110 191 0 l 191 756 q 287 867 191 867 q 382 756 382 867 l 382 138 z "},"M":{"ha":860,"x_min":43,"x_max":819,"o":"m 136 -7 q 68 18 94 -7 q 43 88 43 42 q 46 142 43 102 q 55 239 49 182 q 67 361 60 296 q 80 492 73 426 q 93 614 87 557 q 103 712 99 672 q 110 767 108 753 q 129 826 114 802 q 170 861 144 849 q 231 873 197 873 l 236 873 q 318 847 288 873 q 358 771 349 822 l 431 381 l 506 771 q 545 848 515 822 q 627 873 576 873 l 633 873 q 692 861 667 873 q 734 826 718 849 q 753 767 750 802 q 760 711 756 753 q 770 612 764 670 q 783 488 776 554 q 796 356 790 422 q 808 234 803 290 q 816 139 813 178 q 819 88 819 100 q 797 18 819 42 q 731 -7 774 -7 q 634 101 639 -7 l 608 570 l 525 188 q 492 114 515 138 q 431 90 468 90 q 372 114 395 90 q 338 188 349 138 l 254 572 l 227 101 q 204 20 225 48 q 136 -7 183 -7 z "},"N":{"ha":860,"x_min":90,"x_max":768,"o":"m 178 -5 q 90 105 90 -5 l 90 747 q 125 832 90 803 q 213 862 160 862 l 218 862 q 304 838 267 862 q 361 767 342 813 l 591 283 l 591 753 q 680 862 591 862 q 744 834 721 862 q 768 753 768 807 l 768 106 q 735 24 768 53 q 650 -5 703 -5 l 646 -5 q 562 20 597 -5 q 507 90 527 45 l 265 594 l 265 105 q 178 -5 265 -5 z "},"Ń":{"ha":860,"x_min":90,"x_max":768,"o":"m 178 -5 q 90 105 90 -5 l 90 747 q 125 832 90 803 q 213 862 160 862 l 218 862 q 304 838 267 862 q 361 767 342 813 l 591 283 l 591 753 q 680 862 591 862 q 744 834 721 862 q 768 753 768 807 l 768 106 q 735 24 768 53 q 650 -5 703 -5 l 646 -5 q 562 20 597 -5 q 507 90 527 45 l 265 594 l 265 105 q 178 -5 265 -5 m 344 950 q 321 956 332 950 q 310 980 310 963 q 330 1033 310 999 l 365 1084 q 409 1134 388 1123 q 471 1145 431 1145 l 491 1145 q 524 1134 513 1145 q 536 1108 536 1124 q 509 1061 536 1085 l 431 988 q 385 958 406 965 q 344 950 363 950 z "},"Ň":{"ha":860,"x_min":90,"x_max":768,"o":"m 178 -5 q 90 105 90 -5 l 90 747 q 125 832 90 803 q 213 862 160 862 l 218 862 q 304 838 267 862 q 361 767 342 813 l 591 283 l 591 753 q 680 862 591 862 q 744 834 721 862 q 768 753 768 807 l 768 106 q 735 24 768 53 q 650 -5 703 -5 l 646 -5 q 562 20 597 -5 q 507 90 527 45 l 265 594 l 265 105 q 178 -5 265 -5 m 581 1044 l 542 1003 q 488 955 513 971 q 425 938 463 938 q 363 955 388 938 q 309 1003 338 972 l 269 1044 q 253 1080 253 1060 q 268 1112 253 1099 q 307 1125 283 1125 q 342 1115 328 1125 q 370 1087 356 1104 l 425 1024 l 481 1087 q 508 1114 494 1103 q 544 1125 523 1125 q 583 1113 568 1125 q 598 1080 598 1100 q 581 1044 598 1063 z "},"Ņ":{"ha":860,"x_min":90,"x_max":768,"o":"m 178 -5 q 90 105 90 -5 l 90 747 q 125 832 90 803 q 213 862 160 862 l 218 862 q 304 838 267 862 q 361 767 342 813 l 591 283 l 591 753 q 680 862 591 862 q 744 834 721 862 q 768 753 768 807 l 768 106 q 735 24 768 53 q 650 -5 703 -5 l 646 -5 q 562 20 597 -5 q 507 90 527 45 l 265 594 l 265 105 q 178 -5 265 -5 m 426 -51 q 480 -72 457 -51 q 502 -128 502 -93 q 488 -205 502 -156 q 430 -296 474 -254 q 405 -315 417 -309 q 385 -321 393 -321 q 374 -316 378 -321 q 370 -308 370 -312 q 379 -291 370 -301 q 402 -265 388 -280 q 426 -234 417 -251 q 439 -201 435 -218 q 433 -201 436 -201 q 426 -201 429 -201 q 373 -180 394 -201 q 351 -126 351 -158 q 373 -73 351 -95 q 426 -51 394 -51 z "},"Ñ":{"ha":860,"x_min":90,"x_max":768,"o":"m 178 -5 q 90 105 90 -5 l 90 747 q 125 832 90 803 q 213 862 160 862 l 218 862 q 304 838 267 862 q 361 767 342 813 l 591 283 l 591 753 q 680 862 591 862 q 744 834 721 862 q 768 753 768 807 l 768 106 q 735 24 768 53 q 650 -5 703 -5 l 646 -5 q 562 20 597 -5 q 507 90 527 45 l 265 594 l 265 105 q 178 -5 265 -5 m 503 935 q 448 945 468 935 q 411 970 428 956 q 385 988 398 981 q 351 995 372 995 q 316 989 332 995 q 286 974 299 982 q 249 960 264 960 q 227 972 236 960 q 218 999 218 983 q 253 1065 218 1033 q 294 1091 270 1080 q 345 1101 317 1101 q 400 1092 381 1101 q 434 1067 419 1082 q 460 1047 447 1056 q 497 1039 474 1039 q 530 1045 516 1039 q 555 1060 544 1051 q 573 1071 563 1067 q 593 1076 582 1076 q 620 1065 608 1076 q 632 1034 632 1055 q 616 992 632 1010 q 571 954 600 973 q 503 935 542 935 z "},"Ŋ":{"ha":860,"x_min":106,"x_max":761,"o":"m 581 759 q 605 841 581 813 q 672 868 628 868 q 738 841 715 868 q 761 759 761 813 l 761 -15 q 725 -151 761 -98 q 628 -229 690 -204 q 490 -254 567 -254 q 424 -251 456 -254 q 369 -239 392 -247 q 333 -215 346 -231 q 321 -172 321 -199 q 338 -122 321 -142 q 385 -101 355 -101 q 416 -103 399 -101 q 447 -106 431 -104 q 481 -108 464 -108 q 549 -97 522 -108 q 592 -62 577 -86 q 606 0 606 -39 l 285 542 l 285 105 q 196 -4 285 -4 q 106 105 106 -4 l 106 758 q 137 840 106 811 q 213 868 167 868 l 215 868 q 284 849 261 868 q 329 790 307 830 l 581 338 l 581 759 z "},"O":{"ha":860,"x_min":45,"x_max":814,"o":"m 431 -15 q 292 9 360 -15 q 168 84 224 33 q 78 221 112 136 q 45 427 45 306 q 78 633 45 549 q 168 769 112 717 q 292 844 224 821 q 431 868 360 868 q 568 844 500 868 q 692 769 636 821 q 781 633 747 717 q 814 427 814 549 q 781 221 814 306 q 692 84 747 136 q 568 9 636 33 q 431 -15 500 -15 m 431 124 q 527 157 484 124 q 595 258 570 191 q 619 427 619 326 q 595 595 619 528 q 527 696 570 662 q 431 730 484 730 q 333 696 376 730 q 265 595 290 662 q 240 427 240 528 q 265 258 240 326 q 333 157 290 191 q 431 124 376 124 z "},"Ó":{"ha":860,"x_min":45,"x_max":814,"o":"m 431 -15 q 292 9 360 -15 q 168 84 224 33 q 78 221 112 136 q 45 427 45 306 q 78 633 45 549 q 168 769 112 717 q 292 844 224 821 q 431 868 360 868 q 568 844 500 868 q 692 769 636 821 q 781 633 747 717 q 814 427 814 549 q 781 221 814 306 q 692 84 747 136 q 568 9 636 33 q 431 -15 500 -15 m 431 124 q 527 157 484 124 q 595 258 570 191 q 619 427 619 326 q 595 595 619 528 q 527 696 570 662 q 431 730 484 730 q 333 696 376 730 q 265 595 290 662 q 240 427 240 528 q 265 258 240 326 q 333 157 290 191 q 431 124 376 124 m 408 921 q 382 929 392 921 q 372 951 372 937 q 397 1005 372 972 l 434 1055 q 481 1103 460 1090 q 542 1115 501 1115 l 571 1115 q 606 1105 592 1115 q 619 1078 619 1094 q 592 1031 619 1055 l 532 974 q 470 933 500 945 q 408 921 440 921 z "},"Ŏ":{"ha":860,"x_min":45,"x_max":814,"o":"m 431 -15 q 292 9 360 -15 q 168 84 224 33 q 78 221 112 136 q 45 427 45 306 q 78 633 45 549 q 168 769 112 717 q 292 844 224 821 q 431 868 360 868 q 568 844 500 868 q 692 769 636 821 q 781 633 747 717 q 814 427 814 549 q 781 221 814 306 q 692 84 747 136 q 568 9 636 33 q 431 -15 500 -15 m 431 124 q 527 157 484 124 q 595 258 570 191 q 619 427 619 326 q 595 595 619 528 q 527 696 570 662 q 431 730 484 730 q 333 696 376 730 q 265 595 290 662 q 240 427 240 528 q 265 258 240 326 q 333 157 290 191 q 431 124 376 124 m 546 1109 q 586 1095 572 1109 q 600 1059 600 1082 q 594 1030 600 1046 q 572 999 588 1015 q 517 945 553 967 q 428 922 481 922 q 346 942 379 922 q 293 992 313 963 q 267 1025 274 1008 q 259 1058 259 1043 q 274 1095 259 1081 q 313 1109 289 1109 q 358 1095 344 1109 q 375 1061 372 1081 q 390 1027 379 1043 q 430 1012 401 1012 q 469 1027 458 1012 q 483 1060 480 1043 q 500 1094 487 1080 q 546 1109 514 1109 z "},"Ǒ":{"ha":860,"x_min":45,"x_max":814,"o":"m 431 -15 q 292 9 360 -15 q 168 84 224 33 q 78 221 112 136 q 45 427 45 306 q 78 633 45 549 q 168 769 112 717 q 292 844 224 821 q 431 868 360 868 q 568 844 500 868 q 692 769 636 821 q 781 633 747 717 q 814 427 814 549 q 781 221 814 306 q 692 84 747 136 q 568 9 636 33 q 431 -15 500 -15 m 431 124 q 527 157 484 124 q 595 258 570 191 q 619 427 619 326 q 595 595 619 528 q 527 696 570 662 q 431 730 484 730 q 333 696 376 730 q 265 595 290 662 q 240 427 240 528 q 265 258 240 326 q 333 157 290 191 q 431 124 376 124 m 586 1024 l 546 983 q 492 934 517 951 q 430 917 467 917 q 367 934 392 917 q 313 983 342 951 l 274 1024 q 258 1059 258 1041 q 273 1092 258 1079 q 311 1105 288 1105 q 346 1094 332 1105 q 375 1066 360 1083 l 430 1003 l 485 1066 q 513 1093 498 1082 q 548 1105 528 1105 q 587 1092 572 1105 q 602 1059 602 1079 q 599 1042 602 1051 q 586 1024 595 1033 z "},"Ô":{"ha":860,"x_min":45,"x_max":814,"o":"m 431 -15 q 292 9 360 -15 q 168 84 224 33 q 78 221 112 136 q 45 427 45 306 q 78 633 45 549 q 168 769 112 717 q 292 844 224 821 q 431 868 360 868 q 568 844 500 868 q 692 769 636 821 q 781 633 747 717 q 814 427 814 549 q 781 221 814 306 q 692 84 747 136 q 568 9 636 33 q 431 -15 500 -15 m 431 124 q 527 157 484 124 q 595 258 570 191 q 619 427 619 326 q 595 595 619 528 q 527 696 570 662 q 431 730 484 730 q 333 696 376 730 q 265 595 290 662 q 240 427 240 528 q 265 258 240 326 q 333 157 290 191 q 431 124 376 124 m 586 996 q 603 960 603 978 q 588 928 603 941 q 549 915 573 915 q 513 926 528 915 q 485 953 499 937 l 430 1015 l 375 953 q 347 925 361 936 q 312 915 333 915 q 273 928 288 915 q 258 961 258 941 q 262 978 258 969 q 274 996 265 987 l 314 1038 q 367 1086 342 1069 q 430 1102 392 1102 q 493 1086 468 1102 q 547 1038 518 1069 l 586 996 z "},"Ố":{"ha":860,"x_min":45,"x_max":814,"o":"m 431 -15 q 292 9 360 -15 q 168 84 224 33 q 78 221 112 136 q 45 427 45 306 q 78 633 45 549 q 168 769 112 717 q 292 844 224 821 q 431 868 360 868 q 568 844 500 868 q 692 769 636 821 q 781 633 747 717 q 814 427 814 549 q 781 221 814 306 q 692 84 747 136 q 568 9 636 33 q 431 -15 500 -15 m 431 124 q 527 157 484 124 q 595 258 570 191 q 619 427 619 326 q 595 595 619 528 q 527 696 570 662 q 431 730 484 730 q 333 696 376 730 q 265 595 290 662 q 240 427 240 528 q 265 258 240 326 q 333 157 290 191 q 431 124 376 124 m 586 1025 q 603 989 603 1007 q 588 957 603 969 q 549 944 573 944 q 513 955 528 944 q 485 982 499 966 l 430 1044 l 375 982 q 347 954 361 965 q 312 944 333 944 q 273 957 288 944 q 258 990 258 969 q 274 1025 258 1008 l 314 1066 q 367 1114 342 1098 q 430 1131 392 1131 q 493 1114 468 1131 q 547 1066 518 1098 l 586 1025 m 591 1076 q 567 1083 578 1076 q 556 1106 556 1089 q 576 1160 556 1126 l 612 1210 q 656 1260 634 1249 q 717 1272 677 1272 l 738 1272 q 771 1261 759 1272 q 783 1234 783 1250 q 756 1188 783 1211 l 678 1114 q 631 1084 653 1092 q 591 1076 610 1076 z "},"Ộ":{"ha":860,"x_min":45,"x_max":814,"o":"m 431 -15 q 292 9 360 -15 q 168 84 224 33 q 78 221 112 136 q 45 427 45 306 q 78 633 45 549 q 168 769 112 717 q 292 844 224 821 q 431 868 360 868 q 568 844 500 868 q 692 769 636 821 q 781 633 747 717 q 814 427 814 549 q 781 221 814 306 q 692 84 747 136 q 568 9 636 33 q 431 -15 500 -15 m 431 124 q 527 157 484 124 q 595 258 570 191 q 619 427 619 326 q 595 595 619 528 q 527 696 570 662 q 431 730 484 730 q 333 696 376 730 q 265 595 290 662 q 240 427 240 528 q 265 258 240 326 q 333 157 290 191 q 431 124 376 124 m 423 -272 q 350 -241 380 -272 q 319 -167 319 -211 q 350 -93 319 -124 q 423 -62 380 -62 q 497 -93 467 -62 q 526 -167 526 -124 q 497 -242 526 -213 q 423 -272 467 -272 m 586 996 q 603 960 603 978 q 588 928 603 941 q 549 915 573 915 q 513 926 528 915 q 485 953 499 937 l 430 1015 l 375 953 q 347 925 361 936 q 312 915 333 915 q 273 928 288 915 q 258 961 258 941 q 262 978 258 969 q 274 996 265 987 l 314 1038 q 367 1086 342 1069 q 430 1102 392 1102 q 493 1086 468 1102 q 547 1038 518 1069 l 586 996 z "},"Ồ":{"ha":860,"x_min":45,"x_max":814,"o":"m 431 -15 q 292 9 360 -15 q 168 84 224 33 q 78 221 112 136 q 45 427 45 306 q 78 633 45 549 q 168 769 112 717 q 292 844 224 821 q 431 868 360 868 q 568 844 500 868 q 692 769 636 821 q 781 633 747 717 q 814 427 814 549 q 781 221 814 306 q 692 84 747 136 q 568 9 636 33 q 431 -15 500 -15 m 431 124 q 527 157 484 124 q 595 258 570 191 q 619 427 619 326 q 595 595 619 528 q 527 696 570 662 q 431 730 484 730 q 333 696 376 730 q 265 595 290 662 q 240 427 240 528 q 265 258 240 326 q 333 157 290 191 q 431 124 376 124 m 586 1025 q 603 989 603 1007 q 588 957 603 969 q 549 944 573 944 q 513 955 528 944 q 485 982 499 966 l 430 1044 l 375 982 q 347 954 361 965 q 312 944 333 944 q 273 957 288 944 q 258 990 258 969 q 274 1025 258 1008 l 314 1066 q 367 1114 342 1098 q 430 1131 392 1131 q 493 1114 468 1131 q 547 1066 518 1098 l 586 1025 m 655 1076 q 614 1084 635 1076 q 567 1114 593 1092 l 490 1188 q 463 1234 463 1212 q 475 1261 463 1250 q 508 1272 487 1272 l 528 1272 q 590 1260 568 1272 q 633 1210 612 1249 l 669 1160 q 689 1106 689 1126 q 678 1083 689 1089 q 655 1076 668 1076 z "},"Ổ":{"ha":860,"x_min":45,"x_max":814,"o":"m 431 -15 q 292 9 360 -15 q 168 84 224 33 q 78 221 112 136 q 45 427 45 306 q 78 633 45 549 q 168 769 112 717 q 292 844 224 821 q 431 868 360 868 q 568 844 500 868 q 692 769 636 821 q 781 633 747 717 q 814 427 814 549 q 781 221 814 306 q 692 84 747 136 q 568 9 636 33 q 431 -15 500 -15 m 431 124 q 527 157 484 124 q 595 258 570 191 q 619 427 619 326 q 595 595 619 528 q 527 696 570 662 q 431 730 484 730 q 333 696 376 730 q 265 595 290 662 q 240 427 240 528 q 265 258 240 326 q 333 157 290 191 q 431 124 376 124 m 586 1025 q 603 989 603 1007 q 588 957 603 969 q 549 944 573 944 q 513 955 528 944 q 485 982 499 966 l 430 1044 l 375 982 q 347 954 361 965 q 312 944 333 944 q 273 957 288 944 q 258 990 258 969 q 274 1025 258 1008 l 314 1066 q 367 1114 342 1098 q 430 1131 392 1131 q 493 1114 468 1131 q 547 1066 518 1098 l 586 1025 m 598 1089 q 549 1128 549 1089 q 561 1158 549 1147 q 598 1169 573 1169 q 661 1180 631 1169 q 691 1214 691 1191 q 664 1244 691 1235 q 609 1252 638 1252 q 568 1248 585 1252 q 538 1240 551 1244 q 520 1236 530 1238 q 503 1235 510 1235 q 480 1243 490 1235 q 469 1268 469 1251 q 508 1314 469 1297 q 609 1331 547 1331 q 697 1321 656 1331 q 764 1284 738 1310 q 790 1212 790 1258 q 758 1138 790 1165 q 683 1100 727 1111 q 598 1089 638 1089 z "},"Ỗ":{"ha":860,"x_min":45,"x_max":814,"o":"m 431 -15 q 292 9 360 -15 q 168 84 224 33 q 78 221 112 136 q 45 427 45 306 q 78 633 45 549 q 168 769 112 717 q 292 844 224 821 q 431 868 360 868 q 568 844 500 868 q 692 769 636 821 q 781 633 747 717 q 814 427 814 549 q 781 221 814 306 q 692 84 747 136 q 568 9 636 33 q 431 -15 500 -15 m 431 124 q 527 157 484 124 q 595 258 570 191 q 619 427 619 326 q 595 595 619 528 q 527 696 570 662 q 431 730 484 730 q 333 696 376 730 q 265 595 290 662 q 240 427 240 528 q 265 258 240 326 q 333 157 290 191 q 431 124 376 124 m 586 996 q 603 960 603 978 q 588 928 603 941 q 549 915 573 915 q 513 926 528 915 q 485 953 499 937 l 430 1015 l 375 953 q 347 925 361 936 q 312 915 333 915 q 273 928 288 915 q 258 961 258 941 q 262 978 258 969 q 274 996 265 987 l 314 1038 q 367 1086 342 1069 q 430 1102 392 1102 q 493 1086 468 1102 q 547 1038 518 1069 l 586 996 m 508 1165 q 454 1175 474 1165 q 417 1201 435 1186 q 390 1219 403 1212 q 358 1226 377 1226 q 322 1219 338 1226 q 292 1204 306 1213 q 273 1194 282 1198 q 255 1190 263 1190 q 233 1201 242 1190 q 224 1230 224 1213 q 259 1296 224 1264 q 300 1320 276 1310 q 351 1331 323 1331 q 406 1322 386 1331 q 440 1297 425 1313 q 466 1277 452 1285 q 502 1269 480 1269 q 535 1275 522 1269 q 561 1290 549 1281 q 579 1301 569 1297 q 599 1306 588 1306 q 626 1295 614 1306 q 638 1265 638 1285 q 622 1223 638 1241 q 577 1184 606 1203 q 508 1165 549 1165 z "},"Ȍ":{"ha":860,"x_min":45,"x_max":814,"o":"m 431 -15 q 292 9 360 -15 q 168 84 224 33 q 78 221 112 136 q 45 427 45 306 q 78 633 45 549 q 168 769 112 717 q 292 844 224 821 q 431 868 360 868 q 568 844 500 868 q 692 769 636 821 q 781 633 747 717 q 814 427 814 549 q 781 221 814 306 q 692 84 747 136 q 568 9 636 33 q 431 -15 500 -15 m 431 124 q 527 157 484 124 q 595 258 570 191 q 619 427 619 326 q 595 595 619 528 q 527 696 570 662 q 431 730 484 730 q 333 696 376 730 q 265 595 290 662 q 240 427 240 528 q 265 258 240 326 q 333 157 290 191 q 431 124 376 124 m 335 918 q 282 930 307 918 q 230 971 258 942 l 173 1028 q 156 1053 161 1041 q 151 1075 151 1065 q 162 1102 151 1092 q 192 1113 173 1113 l 217 1113 q 269 1101 251 1113 q 309 1052 288 1088 l 344 1003 q 366 948 366 967 q 358 926 366 934 q 335 918 349 918 m 560 918 q 507 930 533 918 q 454 971 482 942 l 398 1028 q 376 1075 376 1051 q 387 1102 376 1092 q 417 1113 398 1113 l 441 1113 q 493 1100 476 1113 q 533 1052 511 1088 l 569 1003 q 585 972 581 985 q 590 948 590 958 q 582 926 590 934 q 560 918 574 918 z "},"Ö":{"ha":860,"x_min":45,"x_max":814,"o":"m 431 -15 q 292 9 360 -15 q 168 84 224 33 q 78 221 112 136 q 45 427 45 306 q 78 633 45 549 q 168 769 112 717 q 292 844 224 821 q 431 868 360 868 q 568 844 500 868 q 692 769 636 821 q 781 633 747 717 q 814 427 814 549 q 781 221 814 306 q 692 84 747 136 q 568 9 636 33 q 431 -15 500 -15 m 431 124 q 527 157 484 124 q 595 258 570 191 q 619 427 619 326 q 595 595 619 528 q 527 696 570 662 q 431 730 484 730 q 333 696 376 730 q 265 595 290 662 q 240 427 240 528 q 265 258 240 326 q 333 157 290 191 q 431 124 376 124 m 285 934 q 212 964 242 934 q 182 1038 182 994 q 212 1113 182 1082 q 285 1143 242 1143 q 359 1113 329 1143 q 390 1038 390 1082 q 359 964 390 994 q 285 934 329 934 m 574 934 q 501 964 531 934 q 471 1038 471 994 q 501 1113 471 1082 q 574 1143 531 1143 q 649 1113 618 1143 q 679 1038 679 1082 q 649 964 679 994 q 574 934 618 934 z "},"Ȫ":{"ha":860,"x_min":45,"x_max":814,"o":"m 431 -15 q 292 9 360 -15 q 168 84 224 33 q 78 221 112 136 q 45 427 45 306 q 78 633 45 549 q 168 769 112 717 q 292 844 224 821 q 431 868 360 868 q 568 844 500 868 q 692 769 636 821 q 781 633 747 717 q 814 427 814 549 q 781 221 814 306 q 692 84 747 136 q 568 9 636 33 q 431 -15 500 -15 m 431 124 q 527 157 484 124 q 595 258 570 191 q 619 427 619 326 q 595 595 619 528 q 527 696 570 662 q 431 730 484 730 q 333 696 376 730 q 265 595 290 662 q 240 427 240 528 q 265 258 240 326 q 333 157 290 191 q 431 124 376 124 m 285 934 q 212 964 242 934 q 182 1038 182 994 q 212 1113 182 1082 q 285 1143 242 1143 q 359 1113 329 1143 q 390 1038 390 1082 q 359 964 390 994 q 285 934 329 934 m 574 934 q 501 964 531 934 q 471 1038 471 994 q 501 1113 471 1082 q 574 1143 531 1143 q 649 1113 618 1143 q 679 1038 679 1082 q 649 964 679 994 q 574 934 618 934 m 167 1269 q 190 1309 167 1294 q 263 1324 213 1324 l 597 1324 q 670 1309 647 1324 q 693 1269 693 1294 q 670 1230 693 1244 q 597 1215 647 1215 l 263 1215 q 190 1230 213 1215 q 167 1269 167 1244 z "},"Ȱ":{"ha":860,"x_min":45,"x_max":814,"o":"m 431 -15 q 292 9 360 -15 q 168 84 224 33 q 78 221 112 136 q 45 427 45 306 q 78 633 45 549 q 168 769 112 717 q 292 844 224 821 q 431 868 360 868 q 568 844 500 868 q 692 769 636 821 q 781 633 747 717 q 814 427 814 549 q 781 221 814 306 q 692 84 747 136 q 568 9 636 33 q 431 -15 500 -15 m 431 124 q 527 157 484 124 q 595 258 570 191 q 619 427 619 326 q 595 595 619 528 q 527 696 570 662 q 431 730 484 730 q 333 696 376 730 q 265 595 290 662 q 240 427 240 528 q 265 258 240 326 q 333 157 290 191 q 431 124 376 124 m 431 935 q 357 966 387 935 q 326 1040 326 996 q 357 1114 326 1083 q 431 1144 387 1144 q 504 1114 474 1144 q 534 1040 534 1083 q 504 966 534 996 q 431 935 474 935 m 167 1272 q 190 1311 167 1297 q 263 1326 213 1326 l 597 1326 q 670 1311 647 1326 q 693 1272 693 1297 q 670 1232 693 1247 q 597 1217 647 1217 l 263 1217 q 190 1232 213 1217 q 167 1272 167 1247 z "},"Ọ":{"ha":860,"x_min":45,"x_max":814,"o":"m 431 -15 q 292 9 360 -15 q 168 84 224 33 q 78 221 112 136 q 45 427 45 306 q 78 633 45 549 q 168 769 112 717 q 292 844 224 821 q 431 868 360 868 q 568 844 500 868 q 692 769 636 821 q 781 633 747 717 q 814 427 814 549 q 781 221 814 306 q 692 84 747 136 q 568 9 636 33 q 431 -15 500 -15 m 431 124 q 527 157 484 124 q 595 258 570 191 q 619 427 619 326 q 595 595 619 528 q 527 696 570 662 q 431 730 484 730 q 333 696 376 730 q 265 595 290 662 q 240 427 240 528 q 265 258 240 326 q 333 157 290 191 q 431 124 376 124 m 423 -272 q 350 -241 380 -272 q 319 -167 319 -211 q 350 -93 319 -124 q 423 -62 380 -62 q 497 -93 467 -62 q 526 -167 526 -124 q 497 -242 526 -213 q 423 -272 467 -272 z "},"Ò":{"ha":860,"x_min":45,"x_max":814,"o":"m 431 -15 q 292 9 360 -15 q 168 84 224 33 q 78 221 112 136 q 45 427 45 306 q 78 633 45 549 q 168 769 112 717 q 292 844 224 821 q 431 868 360 868 q 568 844 500 868 q 692 769 636 821 q 781 633 747 717 q 814 427 814 549 q 781 221 814 306 q 692 84 747 136 q 568 9 636 33 q 431 -15 500 -15 m 431 124 q 527 157 484 124 q 595 258 570 191 q 619 427 619 326 q 595 595 619 528 q 527 696 570 662 q 431 730 484 730 q 333 696 376 730 q 265 595 290 662 q 240 427 240 528 q 265 258 240 326 q 333 157 290 191 q 431 124 376 124 m 469 915 q 407 927 437 915 q 345 967 377 940 l 285 1026 q 258 1072 258 1049 q 272 1099 258 1089 q 306 1110 285 1110 l 335 1110 q 397 1097 376 1110 q 443 1049 417 1085 l 481 999 q 505 944 505 966 q 495 923 505 931 q 469 915 485 915 z "},"Ỏ":{"ha":860,"x_min":45,"x_max":814,"o":"m 431 -15 q 292 9 360 -15 q 168 84 224 33 q 78 221 112 136 q 45 427 45 306 q 78 633 45 549 q 168 769 112 717 q 292 844 224 821 q 431 868 360 868 q 568 844 500 868 q 692 769 636 821 q 781 633 747 717 q 814 427 814 549 q 781 221 814 306 q 692 84 747 136 q 568 9 636 33 q 431 -15 500 -15 m 431 124 q 527 157 484 124 q 595 258 570 191 q 619 427 619 326 q 595 595 619 528 q 527 696 570 662 q 431 730 484 730 q 333 696 376 730 q 265 595 290 662 q 240 427 240 528 q 265 258 240 326 q 333 157 290 191 q 431 124 376 124 m 397 920 q 360 932 373 920 q 348 963 348 944 q 360 996 348 983 q 397 1010 372 1010 q 457 1018 429 1010 q 485 1049 485 1026 q 458 1077 485 1072 q 403 1083 432 1083 q 363 1081 379 1083 q 331 1075 347 1079 q 315 1072 322 1073 q 302 1071 308 1071 q 278 1080 288 1071 q 268 1103 268 1088 q 307 1154 268 1136 q 408 1172 346 1172 q 497 1161 455 1172 q 566 1124 539 1151 q 592 1048 592 1097 q 560 972 592 1001 q 483 932 528 944 q 397 920 437 920 z "},"Ơ":{"ha":860,"x_min":47,"x_max":888,"o":"m 434 -15 q 295 9 364 -15 q 171 84 227 33 q 81 221 115 136 q 47 427 47 306 q 81 633 47 549 q 171 769 115 717 q 295 844 227 821 q 434 868 364 868 q 534 856 484 868 q 630 819 584 844 q 690 842 667 824 q 725 891 712 861 q 744 960 738 921 q 768 1013 751 992 q 817 1033 785 1033 q 870 1015 852 1033 q 888 954 888 997 q 868 863 888 909 q 811 782 848 817 q 726 735 775 747 q 794 608 769 684 q 820 427 820 531 q 786 221 820 306 q 697 84 753 136 q 572 9 640 33 q 434 -15 503 -15 m 241 427 q 267 258 241 326 q 336 157 292 191 q 434 124 380 124 q 509 142 474 124 q 570 199 544 161 q 611 294 597 238 q 626 427 626 351 q 611 559 626 503 q 570 654 597 616 q 509 711 544 692 q 434 730 474 730 q 336 696 380 730 q 267 595 292 662 q 241 427 241 528 z "},"Ớ":{"ha":860,"x_min":47,"x_max":888,"o":"m 434 -15 q 295 9 364 -15 q 171 84 227 33 q 81 221 115 136 q 47 427 47 306 q 81 633 47 549 q 171 769 115 717 q 295 844 227 821 q 434 868 364 868 q 534 856 484 868 q 630 819 584 844 q 690 842 667 824 q 725 891 712 861 q 744 960 738 921 q 768 1013 751 992 q 817 1033 785 1033 q 870 1015 852 1033 q 888 954 888 997 q 868 863 888 909 q 811 782 848 817 q 726 735 775 747 q 794 608 769 684 q 820 427 820 531 q 786 221 820 306 q 697 84 753 136 q 572 9 640 33 q 434 -15 503 -15 m 241 427 q 267 258 241 326 q 336 157 292 191 q 434 124 380 124 q 509 142 474 124 q 570 199 544 161 q 611 294 597 238 q 626 427 626 351 q 611 559 626 503 q 570 654 597 616 q 509 711 544 692 q 434 730 474 730 q 336 696 380 730 q 267 595 292 662 q 241 427 241 528 m 408 921 q 382 929 392 921 q 372 951 372 937 q 397 1005 372 972 l 434 1055 q 481 1103 460 1090 q 542 1115 501 1115 l 571 1115 q 606 1105 592 1115 q 619 1078 619 1094 q 592 1031 619 1055 l 532 974 q 470 933 500 945 q 408 921 440 921 z "},"Ợ":{"ha":860,"x_min":47,"x_max":888,"o":"m 434 -15 q 295 9 364 -15 q 171 84 227 33 q 81 221 115 136 q 47 427 47 306 q 81 633 47 549 q 171 769 115 717 q 295 844 227 821 q 434 868 364 868 q 534 856 484 868 q 630 819 584 844 q 690 842 667 824 q 725 891 712 861 q 744 960 738 921 q 768 1013 751 992 q 817 1033 785 1033 q 870 1015 852 1033 q 888 954 888 997 q 868 863 888 909 q 811 782 848 817 q 726 735 775 747 q 794 608 769 684 q 820 427 820 531 q 786 221 820 306 q 697 84 753 136 q 572 9 640 33 q 434 -15 503 -15 m 241 427 q 267 258 241 326 q 336 157 292 191 q 434 124 380 124 q 509 142 474 124 q 570 199 544 161 q 611 294 597 238 q 626 427 626 351 q 611 559 626 503 q 570 654 597 616 q 509 711 544 692 q 434 730 474 730 q 336 696 380 730 q 267 595 292 662 q 241 427 241 528 m 423 -272 q 350 -241 380 -272 q 319 -167 319 -211 q 350 -93 319 -124 q 423 -62 380 -62 q 497 -93 467 -62 q 526 -167 526 -124 q 497 -242 526 -213 q 423 -272 467 -272 z "},"Ờ":{"ha":860,"x_min":47,"x_max":888,"o":"m 434 -15 q 295 9 364 -15 q 171 84 227 33 q 81 221 115 136 q 47 427 47 306 q 81 633 47 549 q 171 769 115 717 q 295 844 227 821 q 434 868 364 868 q 534 856 484 868 q 630 819 584 844 q 690 842 667 824 q 725 891 712 861 q 744 960 738 921 q 768 1013 751 992 q 817 1033 785 1033 q 870 1015 852 1033 q 888 954 888 997 q 868 863 888 909 q 811 782 848 817 q 726 735 775 747 q 794 608 769 684 q 820 427 820 531 q 786 221 820 306 q 697 84 753 136 q 572 9 640 33 q 434 -15 503 -15 m 241 427 q 267 258 241 326 q 336 157 292 191 q 434 124 380 124 q 509 142 474 124 q 570 199 544 161 q 611 294 597 238 q 626 427 626 351 q 611 559 626 503 q 570 654 597 616 q 509 711 544 692 q 434 730 474 730 q 336 696 380 730 q 267 595 292 662 q 241 427 241 528 m 469 915 q 407 927 437 915 q 345 967 377 940 l 285 1026 q 258 1072 258 1049 q 272 1099 258 1089 q 306 1110 285 1110 l 335 1110 q 397 1097 376 1110 q 443 1049 417 1085 l 481 999 q 505 944 505 966 q 495 923 505 931 q 469 915 485 915 z "},"Ở":{"ha":860,"x_min":47,"x_max":888,"o":"m 434 -15 q 295 9 364 -15 q 171 84 227 33 q 81 221 115 136 q 47 427 47 306 q 81 633 47 549 q 171 769 115 717 q 295 844 227 821 q 434 868 364 868 q 534 856 484 868 q 630 819 584 844 q 690 842 667 824 q 725 891 712 861 q 744 960 738 921 q 768 1013 751 992 q 817 1033 785 1033 q 870 1015 852 1033 q 888 954 888 997 q 868 863 888 909 q 811 782 848 817 q 726 735 775 747 q 794 608 769 684 q 820 427 820 531 q 786 221 820 306 q 697 84 753 136 q 572 9 640 33 q 434 -15 503 -15 m 241 427 q 267 258 241 326 q 336 157 292 191 q 434 124 380 124 q 509 142 474 124 q 570 199 544 161 q 611 294 597 238 q 626 427 626 351 q 611 559 626 503 q 570 654 597 616 q 509 711 544 692 q 434 730 474 730 q 336 696 380 730 q 267 595 292 662 q 241 427 241 528 m 397 920 q 360 932 373 920 q 348 963 348 944 q 360 996 348 983 q 397 1010 372 1010 q 457 1018 429 1010 q 485 1049 485 1026 q 458 1077 485 1072 q 403 1083 432 1083 q 363 1081 379 1083 q 331 1075 347 1079 q 315 1072 322 1073 q 302 1071 308 1071 q 278 1080 288 1071 q 268 1103 268 1088 q 307 1154 268 1136 q 408 1172 346 1172 q 497 1161 455 1172 q 566 1124 539 1151 q 592 1048 592 1097 q 560 972 592 1001 q 483 932 528 944 q 397 920 437 920 z "},"Ỡ":{"ha":860,"x_min":47,"x_max":888,"o":"m 434 -15 q 295 9 364 -15 q 171 84 227 33 q 81 221 115 136 q 47 427 47 306 q 81 633 47 549 q 171 769 115 717 q 295 844 227 821 q 434 868 364 868 q 534 856 484 868 q 630 819 584 844 q 690 842 667 824 q 725 891 712 861 q 744 960 738 921 q 768 1013 751 992 q 817 1033 785 1033 q 870 1015 852 1033 q 888 954 888 997 q 868 863 888 909 q 811 782 848 817 q 726 735 775 747 q 794 608 769 684 q 820 427 820 531 q 786 221 820 306 q 697 84 753 136 q 572 9 640 33 q 434 -15 503 -15 m 241 427 q 267 258 241 326 q 336 157 292 191 q 434 124 380 124 q 509 142 474 124 q 570 199 544 161 q 611 294 597 238 q 626 427 626 351 q 611 559 626 503 q 570 654 597 616 q 509 711 544 692 q 434 730 474 730 q 336 696 380 730 q 267 595 292 662 q 241 427 241 528 m 508 928 q 454 939 474 928 q 417 964 435 949 q 390 982 403 975 q 358 989 377 989 q 322 982 338 989 q 292 967 306 976 q 273 957 282 961 q 255 953 263 953 q 233 965 242 953 q 224 993 224 976 q 259 1059 224 1027 q 300 1084 276 1073 q 351 1094 323 1094 q 406 1085 386 1094 q 440 1060 425 1076 q 466 1040 452 1049 q 502 1032 480 1032 q 535 1038 522 1032 q 561 1053 549 1044 q 579 1065 569 1060 q 599 1069 588 1069 q 626 1059 614 1069 q 638 1028 638 1049 q 622 986 638 1004 q 577 947 606 967 q 508 928 549 928 z "},"Ő":{"ha":860,"x_min":45,"x_max":814,"o":"m 431 -15 q 292 9 360 -15 q 168 84 224 33 q 78 221 112 136 q 45 427 45 306 q 78 633 45 549 q 168 769 112 717 q 292 844 224 821 q 431 868 360 868 q 568 844 500 868 q 692 769 636 821 q 781 633 747 717 q 814 427 814 549 q 781 221 814 306 q 692 84 747 136 q 568 9 636 33 q 431 -15 500 -15 m 431 124 q 527 157 484 124 q 595 258 570 191 q 619 427 619 326 q 595 595 619 528 q 527 696 570 662 q 431 730 484 730 q 333 696 376 730 q 265 595 290 662 q 240 427 240 528 q 265 258 240 326 q 333 157 290 191 q 431 124 376 124 m 460 992 l 493 1054 q 526 1102 512 1090 q 569 1115 541 1115 l 607 1115 q 631 1107 622 1115 q 639 1085 639 1099 q 618 1040 639 1065 l 567 972 q 526 932 542 944 q 486 919 510 919 q 460 928 472 919 q 449 953 449 937 q 460 992 449 969 m 251 992 l 284 1054 q 317 1102 302 1090 q 361 1115 332 1115 l 398 1115 q 422 1107 413 1115 q 430 1085 430 1099 q 409 1040 430 1065 l 358 972 q 317 932 333 944 q 277 919 301 919 q 251 928 263 919 q 240 953 240 937 q 251 992 240 969 z "},"Ȏ":{"ha":860,"x_min":45,"x_max":814,"o":"m 431 -15 q 292 9 360 -15 q 168 84 224 33 q 78 221 112 136 q 45 427 45 306 q 78 633 45 549 q 168 769 112 717 q 292 844 224 821 q 431 868 360 868 q 568 844 500 868 q 692 769 636 821 q 781 633 747 717 q 814 427 814 549 q 781 221 814 306 q 692 84 747 136 q 568 9 636 33 q 431 -15 500 -15 m 431 124 q 527 157 484 124 q 595 258 570 191 q 619 427 619 326 q 595 595 619 528 q 527 696 570 662 q 431 730 484 730 q 333 696 376 730 q 265 595 290 662 q 240 427 240 528 q 265 258 240 326 q 333 157 290 191 q 431 124 376 124 m 546 918 q 500 933 514 918 q 483 967 487 948 q 469 1000 480 984 q 430 1015 458 1015 q 390 1000 401 1015 q 375 967 379 984 q 358 933 372 947 q 313 918 344 918 q 274 933 289 918 q 259 969 259 947 q 267 1002 259 985 q 293 1035 274 1020 q 346 1085 313 1065 q 428 1105 379 1105 q 517 1082 481 1105 q 572 1028 553 1060 q 594 997 588 1013 q 600 968 600 981 q 586 932 600 946 q 546 918 572 918 z "},"Ō":{"ha":860,"x_min":45,"x_max":814,"o":"m 431 -15 q 292 9 360 -15 q 168 84 224 33 q 78 221 112 136 q 45 427 45 306 q 78 633 45 549 q 168 769 112 717 q 292 844 224 821 q 431 868 360 868 q 568 844 500 868 q 692 769 636 821 q 781 633 747 717 q 814 427 814 549 q 781 221 814 306 q 692 84 747 136 q 568 9 636 33 q 431 -15 500 -15 m 431 124 q 527 157 484 124 q 595 258 570 191 q 619 427 619 326 q 595 595 619 528 q 527 696 570 662 q 431 730 484 730 q 333 696 376 730 q 265 595 290 662 q 240 427 240 528 q 265 258 240 326 q 333 157 290 191 q 431 124 376 124 m 167 992 q 190 1032 167 1017 q 263 1047 213 1047 l 597 1047 q 670 1032 647 1047 q 693 992 693 1017 q 670 952 693 967 q 597 938 647 938 l 263 938 q 190 952 213 938 q 167 992 167 967 z "},"Ǫ":{"ha":860,"x_min":45,"x_max":814,"o":"m 431 -15 q 292 9 360 -15 q 168 84 224 33 q 78 221 112 136 q 45 427 45 306 q 78 633 45 549 q 168 769 112 717 q 292 844 224 821 q 431 868 360 868 q 568 844 500 868 q 692 769 636 821 q 781 633 747 717 q 814 427 814 549 q 781 221 814 306 q 692 84 747 136 q 568 9 636 33 q 431 -15 500 -15 m 431 124 q 527 157 484 124 q 595 258 570 191 q 619 427 619 326 q 595 595 619 528 q 527 696 570 662 q 431 730 484 730 q 333 696 376 730 q 265 595 290 662 q 240 427 240 528 q 265 258 240 326 q 333 157 290 191 q 431 124 376 124 m 621 -275 q 529 -262 572 -275 q 458 -220 485 -249 q 431 -140 431 -190 q 445 -72 431 -105 q 480 -11 458 -38 q 524 32 501 15 q 567 53 547 49 l 651 53 q 617 18 636 44 q 585 -40 599 -8 q 571 -102 571 -72 q 588 -149 571 -134 q 634 -163 606 -163 q 657 -161 643 -163 q 681 -158 672 -160 q 701 -154 692 -155 q 718 -153 710 -153 q 754 -166 743 -153 q 765 -201 765 -180 q 722 -257 765 -240 q 621 -275 680 -275 z "},"Ø":{"ha":860,"x_min":45,"x_max":814,"o":"m 727 917 q 761 906 747 917 q 776 870 776 894 q 770 841 776 857 q 751 804 765 824 l 226 16 q 183 -38 201 -21 q 140 -55 165 -55 q 104 -42 120 -55 q 88 -3 88 -29 q 94 26 88 10 q 113 62 99 42 l 635 846 q 678 900 660 883 q 727 917 696 917 m 431 -15 q 292 9 360 -15 q 168 84 224 33 q 78 221 112 136 q 45 427 45 306 q 78 633 45 549 q 168 769 112 717 q 292 844 224 821 q 431 868 360 868 q 568 844 500 868 q 692 769 636 821 q 781 633 747 717 q 814 427 814 549 q 781 221 814 306 q 692 84 747 136 q 568 9 636 33 q 431 -15 500 -15 m 431 124 q 527 157 484 124 q 595 258 570 191 q 619 427 619 326 q 595 595 619 528 q 527 696 570 662 q 431 730 484 730 q 333 696 376 730 q 265 595 290 662 q 240 427 240 528 q 265 258 240 326 q 333 157 290 191 q 431 124 376 124 z "},"Ǿ":{"ha":860,"x_min":45,"x_max":814,"o":"m 727 917 q 761 906 747 917 q 776 870 776 894 q 770 841 776 857 q 751 804 765 824 l 226 16 q 183 -38 201 -21 q 140 -55 165 -55 q 104 -42 120 -55 q 88 -3 88 -29 q 94 26 88 10 q 113 62 99 42 l 635 846 q 678 900 660 883 q 727 917 696 917 m 431 -15 q 292 9 360 -15 q 168 84 224 33 q 78 221 112 136 q 45 427 45 306 q 78 633 45 549 q 168 769 112 717 q 292 844 224 821 q 431 868 360 868 q 568 844 500 868 q 692 769 636 821 q 781 633 747 717 q 814 427 814 549 q 781 221 814 306 q 692 84 747 136 q 568 9 636 33 q 431 -15 500 -15 m 431 124 q 527 157 484 124 q 595 258 570 191 q 619 427 619 326 q 595 595 619 528 q 527 696 570 662 q 431 730 484 730 q 333 696 376 730 q 265 595 290 662 q 240 427 240 528 q 265 258 240 326 q 333 157 290 191 q 431 124 376 124 m 407 915 q 381 923 391 915 q 372 945 372 931 q 396 999 372 966 l 433 1049 q 480 1097 460 1085 q 541 1110 501 1110 l 570 1110 q 605 1099 592 1110 q 618 1072 618 1089 q 592 1026 618 1049 l 531 968 q 469 927 499 940 q 407 915 440 915 z "},"Õ":{"ha":860,"x_min":45,"x_max":814,"o":"m 431 -15 q 292 9 360 -15 q 168 84 224 33 q 78 221 112 136 q 45 427 45 306 q 78 633 45 549 q 168 769 112 717 q 292 844 224 821 q 431 868 360 868 q 568 844 500 868 q 692 769 636 821 q 781 633 747 717 q 814 427 814 549 q 781 221 814 306 q 692 84 747 136 q 568 9 636 33 q 431 -15 500 -15 m 431 124 q 527 157 484 124 q 595 258 570 191 q 619 427 619 326 q 595 595 619 528 q 527 696 570 662 q 431 730 484 730 q 333 696 376 730 q 265 595 290 662 q 240 427 240 528 q 265 258 240 326 q 333 157 290 191 q 431 124 376 124 m 508 940 q 454 951 474 940 q 417 976 434 961 q 390 994 403 987 q 357 1001 377 1001 q 321 994 338 1001 q 292 980 305 988 q 255 965 269 965 q 233 977 242 965 q 224 1005 224 989 q 259 1071 224 1039 q 299 1096 276 1085 q 351 1107 323 1107 q 406 1097 386 1107 q 440 1073 425 1088 q 466 1053 452 1061 q 502 1044 479 1044 q 535 1050 522 1044 q 560 1065 549 1056 q 578 1077 569 1072 q 599 1081 588 1081 q 625 1071 613 1081 q 638 1040 638 1060 q 622 998 638 1016 q 577 959 606 978 q 508 940 548 940 z "},"Ȭ":{"ha":860,"x_min":45,"x_max":814,"o":"m 431 -15 q 292 9 360 -15 q 168 84 224 33 q 78 221 112 136 q 45 427 45 306 q 78 633 45 549 q 168 769 112 717 q 292 844 224 821 q 431 868 360 868 q 568 844 500 868 q 692 769 636 821 q 781 633 747 717 q 814 427 814 549 q 781 221 814 306 q 692 84 747 136 q 568 9 636 33 q 431 -15 500 -15 m 431 124 q 527 157 484 124 q 595 258 570 191 q 619 427 619 326 q 595 595 619 528 q 527 696 570 662 q 431 730 484 730 q 333 696 376 730 q 265 595 290 662 q 240 427 240 528 q 265 258 240 326 q 333 157 290 191 q 431 124 376 124 m 508 928 q 454 939 474 928 q 417 964 435 949 q 390 982 403 975 q 358 989 377 989 q 322 982 338 989 q 292 967 306 976 q 273 957 282 961 q 255 953 263 953 q 233 965 242 953 q 224 993 224 976 q 259 1059 224 1027 q 300 1084 276 1073 q 351 1094 323 1094 q 406 1085 386 1094 q 440 1060 425 1076 q 466 1040 452 1049 q 502 1032 480 1032 q 535 1038 522 1032 q 561 1053 549 1044 q 579 1065 569 1060 q 599 1069 588 1069 q 626 1059 614 1069 q 638 1028 638 1049 q 622 986 638 1004 q 577 947 606 967 q 508 928 549 928 m 167 1224 q 190 1264 167 1249 q 263 1278 213 1278 l 597 1278 q 670 1264 647 1278 q 693 1224 693 1249 q 670 1184 693 1199 q 597 1169 647 1169 l 263 1169 q 190 1184 213 1169 q 167 1224 167 1199 z "},"Œ":{"ha":860,"x_min":10,"x_max":847,"o":"m 847 791 q 819 740 847 758 q 738 722 791 722 l 588 722 l 588 491 l 708 491 q 790 473 762 491 q 818 422 818 456 q 790 371 818 389 q 708 353 762 353 l 588 353 l 588 138 l 738 138 q 819 120 791 138 q 847 69 847 102 q 819 18 847 35 q 738 0 791 0 l 521 0 q 483 6 499 0 q 456 24 467 12 l 453 59 q 384 3 422 20 q 303 -15 345 -15 q 196 8 248 -15 q 102 83 144 31 q 35 219 60 134 q 10 427 10 303 q 35 635 10 551 q 102 771 60 719 q 196 845 144 822 q 303 868 248 868 q 382 851 344 868 q 449 797 419 835 l 453 835 q 482 854 465 849 q 521 860 499 860 l 738 860 q 819 842 791 860 q 847 791 847 825 m 196 427 q 208 256 196 324 q 245 156 221 189 q 303 124 269 124 q 360 156 337 124 q 396 256 384 189 q 408 427 408 324 q 396 597 408 530 q 360 697 384 664 q 303 730 337 730 q 245 697 269 730 q 208 597 221 664 q 196 427 196 530 z "},"P":{"ha":860,"x_min":135,"x_max":774,"o":"m 326 722 l 326 443 l 430 443 q 483 448 456 443 q 532 467 510 453 q 569 510 555 481 q 583 585 583 538 q 569 660 583 633 q 532 701 555 688 q 483 718 510 714 q 430 722 456 722 l 326 722 m 459 305 l 326 305 l 326 110 q 231 0 326 0 q 135 110 135 0 l 135 750 q 246 860 135 860 l 459 860 q 531 855 490 860 q 615 836 572 851 q 694 791 658 821 q 752 711 730 761 q 774 585 774 661 q 752 460 774 510 q 694 378 730 409 q 615 331 658 347 q 531 310 572 315 q 459 305 490 305 z "},"Þ":{"ha":860,"x_min":130,"x_max":753,"o":"m 428 679 q 505 676 462 679 q 591 659 547 672 q 671 619 634 647 q 730 543 708 591 q 753 423 753 496 q 730 300 753 349 q 671 223 708 251 q 591 180 634 194 q 505 163 547 167 q 428 159 462 159 l 318 159 l 318 82 q 293 13 318 39 q 224 -13 269 -13 q 130 96 130 -13 l 130 757 q 224 867 130 867 q 318 757 318 867 l 318 679 l 428 679 m 403 292 q 461 296 432 292 q 514 312 490 299 q 553 351 538 324 q 568 423 568 377 q 553 490 568 465 q 514 527 538 515 q 461 542 490 539 q 403 546 432 546 l 318 546 l 318 292 l 403 292 z "},"Q":{"ha":860,"x_min":45,"x_max":813,"o":"m 685 -206 q 580 -178 635 -206 q 483 -107 524 -151 q 429 -15 441 -62 q 291 9 360 -15 q 167 84 223 33 q 78 221 112 136 q 45 427 45 306 q 78 633 45 549 q 168 769 112 717 q 292 844 224 821 q 430 868 360 868 q 567 844 499 868 q 691 769 635 821 q 780 633 747 717 q 813 427 813 549 q 781 224 813 307 q 694 89 748 140 q 575 15 640 38 q 606 -24 586 -7 q 651 -52 626 -41 q 697 -68 675 -62 q 744 -92 727 -76 q 762 -140 762 -108 q 740 -189 762 -172 q 685 -206 718 -206 m 239 427 q 264 258 239 326 q 332 157 289 191 q 430 124 376 124 q 527 157 484 124 q 594 258 569 191 q 619 427 619 326 q 594 595 619 528 q 527 696 569 662 q 430 730 484 730 q 332 696 376 730 q 264 595 289 662 q 239 427 239 528 z "},"R":{"ha":860,"x_min":107,"x_max":769,"o":"m 298 722 l 298 485 l 442 485 q 542 516 508 485 q 577 606 577 547 q 542 694 577 665 q 440 722 507 722 l 298 722 m 107 99 l 107 750 q 217 860 107 860 l 473 860 q 570 851 519 860 q 667 817 622 842 q 740 743 712 791 q 769 616 769 695 q 729 473 769 527 q 632 393 689 418 l 751 119 q 761 90 758 103 q 765 63 765 76 q 742 9 765 29 q 677 -11 719 -11 q 603 14 626 -11 q 564 86 581 40 l 456 348 l 298 348 l 298 99 q 202 -11 298 -11 q 107 99 107 -11 z "},"Ŕ":{"ha":860,"x_min":107,"x_max":769,"o":"m 298 722 l 298 485 l 442 485 q 542 516 508 485 q 577 606 577 547 q 542 694 577 665 q 440 722 507 722 l 298 722 m 107 99 l 107 750 q 217 860 107 860 l 473 860 q 570 851 519 860 q 667 817 622 842 q 740 743 712 791 q 769 616 769 695 q 729 473 769 527 q 632 393 689 418 l 751 119 q 761 90 758 103 q 765 63 765 76 q 742 9 765 29 q 677 -11 719 -11 q 603 14 626 -11 q 564 86 581 40 l 456 348 l 298 348 l 298 99 q 202 -11 298 -11 q 107 99 107 -11 m 399 915 q 373 923 383 915 q 363 945 363 931 q 388 999 363 966 l 425 1049 q 472 1097 451 1085 q 533 1110 492 1110 l 562 1110 q 597 1099 583 1110 q 610 1072 610 1089 q 583 1026 610 1049 l 523 968 q 461 927 491 940 q 399 915 431 915 z "},"Ř":{"ha":860,"x_min":107,"x_max":769,"o":"m 298 722 l 298 485 l 442 485 q 542 516 508 485 q 577 606 577 547 q 542 694 577 665 q 440 722 507 722 l 298 722 m 107 99 l 107 750 q 217 860 107 860 l 473 860 q 570 851 519 860 q 667 817 622 842 q 740 743 712 791 q 769 616 769 695 q 729 473 769 527 q 632 393 689 418 l 751 119 q 761 90 758 103 q 765 63 765 76 q 742 9 765 29 q 677 -11 719 -11 q 603 14 626 -11 q 564 86 581 40 l 456 348 l 298 348 l 298 99 q 202 -11 298 -11 q 107 99 107 -11 m 578 1018 l 538 977 q 484 928 509 945 q 422 912 459 912 q 359 928 384 912 q 305 977 333 945 l 265 1018 q 249 1053 249 1035 q 264 1086 249 1074 q 303 1099 279 1099 q 338 1089 324 1099 q 367 1060 352 1078 l 422 998 l 476 1060 q 505 1088 490 1076 q 540 1099 519 1099 q 579 1086 564 1099 q 594 1053 594 1074 q 590 1037 594 1046 q 578 1018 587 1028 z "},"Ŗ":{"ha":860,"x_min":107,"x_max":769,"o":"m 298 722 l 298 485 l 442 485 q 542 516 508 485 q 577 606 577 547 q 542 694 577 665 q 440 722 507 722 l 298 722 m 107 99 l 107 750 q 217 860 107 860 l 473 860 q 570 851 519 860 q 667 817 622 842 q 740 743 712 791 q 769 616 769 695 q 729 473 769 527 q 632 393 689 418 l 751 119 q 761 90 758 103 q 765 63 765 76 q 742 9 765 29 q 677 -11 719 -11 q 603 14 626 -11 q 564 86 581 40 l 456 348 l 298 348 l 298 99 q 202 -11 298 -11 q 107 99 107 -11 m 425 -51 q 478 -72 456 -51 q 501 -128 501 -93 q 487 -205 501 -156 q 428 -296 473 -254 q 403 -315 415 -309 q 383 -321 392 -321 q 373 -316 376 -321 q 369 -308 369 -312 q 377 -291 369 -301 q 401 -265 386 -280 q 424 -234 415 -251 q 438 -201 433 -218 q 431 -201 435 -201 q 425 -201 428 -201 q 372 -180 393 -201 q 350 -126 350 -158 q 372 -73 350 -95 q 425 -51 393 -51 z "},"Ȑ":{"ha":860,"x_min":107,"x_max":769,"o":"m 298 722 l 298 485 l 442 485 q 542 516 508 485 q 577 606 577 547 q 542 694 577 665 q 440 722 507 722 l 298 722 m 107 99 l 107 750 q 217 860 107 860 l 473 860 q 570 851 519 860 q 667 817 622 842 q 740 743 712 791 q 769 616 769 695 q 729 473 769 527 q 632 393 689 418 l 751 119 q 761 90 758 103 q 765 63 765 76 q 742 9 765 29 q 677 -11 719 -11 q 603 14 626 -11 q 564 86 581 40 l 456 348 l 298 348 l 298 99 q 202 -11 298 -11 q 107 99 107 -11 m 326 913 q 273 925 298 913 q 221 965 249 937 l 164 1023 q 147 1047 152 1035 q 142 1069 142 1059 q 153 1097 142 1086 q 183 1108 164 1108 l 208 1108 q 260 1095 242 1108 q 300 1047 278 1083 l 335 997 q 357 942 357 962 q 349 920 357 928 q 326 913 340 913 m 551 913 q 498 925 524 913 q 445 965 473 937 l 389 1023 q 367 1069 367 1046 q 378 1097 367 1086 q 408 1108 389 1108 l 432 1108 q 484 1095 467 1108 q 524 1047 502 1082 l 560 997 q 576 966 572 980 q 581 942 581 953 q 573 920 581 928 q 551 913 565 913 z "},"Ȓ":{"ha":860,"x_min":107,"x_max":769,"o":"m 298 722 l 298 485 l 442 485 q 542 516 508 485 q 577 606 577 547 q 542 694 577 665 q 440 722 507 722 l 298 722 m 107 99 l 107 750 q 217 860 107 860 l 473 860 q 570 851 519 860 q 667 817 622 842 q 740 743 712 791 q 769 616 769 695 q 729 473 769 527 q 632 393 689 418 l 751 119 q 761 90 758 103 q 765 63 765 76 q 742 9 765 29 q 677 -11 719 -11 q 603 14 626 -11 q 564 86 581 40 l 456 348 l 298 348 l 298 99 q 202 -11 298 -11 q 107 99 107 -11 m 538 913 q 492 927 506 913 q 475 961 478 942 q 461 994 472 978 q 422 1010 450 1010 q 382 994 393 1010 q 367 961 371 978 q 350 927 363 942 q 305 913 336 913 q 266 927 281 913 q 251 964 251 942 q 258 997 251 979 q 285 1030 266 1015 q 338 1079 304 1059 q 420 1099 371 1099 q 509 1077 473 1099 q 564 1022 544 1054 q 585 992 579 1008 q 592 963 592 976 q 577 926 592 940 q 538 913 563 913 z "},"S":{"ha":860,"x_min":72,"x_max":791,"o":"m 431 -15 q 251 12 328 -15 q 126 81 174 38 q 72 181 72 123 q 91 232 72 208 q 150 256 110 256 q 208 241 184 256 q 252 206 231 226 q 326 148 283 172 q 434 124 369 124 q 516 136 478 124 q 575 174 553 149 q 597 232 597 198 q 547 310 597 283 q 399 360 497 338 q 164 467 238 399 q 90 635 90 535 q 137 760 90 708 q 263 840 183 812 q 441 868 342 868 q 591 845 520 868 q 709 781 663 823 q 747 740 733 763 q 762 689 762 717 q 741 634 762 654 q 686 615 719 615 q 628 632 652 615 q 588 666 604 649 q 527 711 566 693 q 432 730 488 730 q 357 718 391 730 q 304 686 324 707 q 285 638 285 666 q 332 566 285 594 q 477 512 380 537 q 643 454 573 488 q 752 370 713 421 q 791 244 791 320 q 744 107 791 165 q 617 17 698 49 q 431 -15 535 -15 z "},"Ś":{"ha":860,"x_min":72,"x_max":791,"o":"m 431 -15 q 251 12 328 -15 q 126 81 174 38 q 72 181 72 123 q 91 232 72 208 q 150 256 110 256 q 208 241 184 256 q 252 206 231 226 q 326 148 283 172 q 434 124 369 124 q 516 136 478 124 q 575 174 553 149 q 597 232 597 198 q 547 310 597 283 q 399 360 497 338 q 164 467 238 399 q 90 635 90 535 q 137 760 90 708 q 263 840 183 812 q 441 868 342 868 q 591 845 520 868 q 709 781 663 823 q 747 740 733 763 q 762 689 762 717 q 741 634 762 654 q 686 615 719 615 q 628 632 652 615 q 588 666 604 649 q 527 711 566 693 q 432 730 488 730 q 357 718 391 730 q 304 686 324 707 q 285 638 285 666 q 332 566 285 594 q 477 512 380 537 q 643 454 573 488 q 752 370 713 421 q 791 244 791 320 q 744 107 791 165 q 617 17 698 49 q 431 -15 535 -15 m 411 918 q 385 926 395 918 q 376 948 376 934 q 400 1002 376 969 l 438 1052 q 484 1100 464 1088 q 545 1113 505 1113 l 574 1113 q 609 1102 596 1113 q 622 1075 622 1092 q 596 1028 622 1052 l 535 971 q 474 930 503 942 q 411 918 444 918 z "},"Š":{"ha":860,"x_min":72,"x_max":791,"o":"m 431 -15 q 251 12 328 -15 q 126 81 174 38 q 72 181 72 123 q 91 232 72 208 q 150 256 110 256 q 208 241 184 256 q 252 206 231 226 q 326 148 283 172 q 434 124 369 124 q 516 136 478 124 q 575 174 553 149 q 597 232 597 198 q 547 310 597 283 q 399 360 497 338 q 164 467 238 399 q 90 635 90 535 q 137 760 90 708 q 263 840 183 812 q 441 868 342 868 q 591 845 520 868 q 709 781 663 823 q 747 740 733 763 q 762 689 762 717 q 741 634 762 654 q 686 615 719 615 q 628 632 652 615 q 588 666 604 649 q 527 711 566 693 q 432 730 488 730 q 357 718 391 730 q 304 686 324 707 q 285 638 285 666 q 332 566 285 594 q 477 512 380 537 q 643 454 573 488 q 752 370 713 421 q 791 244 791 320 q 744 107 791 165 q 617 17 698 49 q 431 -15 535 -15 m 590 1021 l 549 980 q 496 931 521 948 q 433 915 471 915 q 370 931 396 915 q 317 980 345 948 l 277 1021 q 261 1056 261 1038 q 276 1089 261 1076 q 315 1102 291 1102 q 350 1091 335 1102 q 378 1063 364 1081 l 433 1001 l 488 1063 q 516 1091 501 1079 q 551 1102 531 1102 q 591 1089 576 1102 q 606 1056 606 1076 q 602 1040 606 1049 q 590 1021 599 1031 z "},"Ş":{"ha":860,"x_min":72,"x_max":791,"o":"m 409 -316 q 365 -314 385 -316 q 330 -306 345 -311 q 287 -258 287 -289 q 299 -229 287 -239 q 328 -219 312 -219 q 364 -224 343 -219 q 390 -228 376 -227 q 422 -229 405 -229 q 490 -217 463 -229 q 517 -181 517 -204 q 507 -158 517 -165 q 478 -151 496 -151 q 448 -154 462 -151 q 422 -160 434 -156 q 398 -167 410 -165 q 374 -169 386 -169 q 340 -157 351 -169 q 328 -127 328 -145 q 331 -112 328 -120 q 335 -98 333 -105 l 365 -12 q 226 20 286 -5 q 126 81 166 44 q 72 181 72 123 q 91 232 72 208 q 150 256 110 256 q 208 241 184 256 q 252 206 231 226 q 326 148 283 172 q 434 124 369 124 q 516 136 478 124 q 575 174 553 149 q 597 232 597 198 q 547 310 597 283 q 399 360 497 338 q 164 467 238 399 q 90 635 90 535 q 137 760 90 708 q 263 840 183 812 q 441 868 342 868 q 591 845 520 868 q 709 781 663 823 q 747 740 733 763 q 762 689 762 717 q 741 634 762 654 q 686 615 719 615 q 628 632 652 615 q 588 666 604 649 q 527 711 566 693 q 432 730 488 730 q 357 718 391 730 q 304 686 324 707 q 285 638 285 666 q 332 566 285 594 q 477 512 380 537 q 643 454 573 488 q 752 370 713 421 q 791 244 791 320 q 750 114 791 169 q 635 25 708 58 q 468 -14 563 -8 l 438 -104 q 481 -84 457 -91 q 530 -78 504 -78 q 587 -88 559 -78 q 634 -119 615 -98 q 652 -174 652 -140 q 618 -254 652 -222 q 528 -301 584 -285 q 409 -316 473 -316 z "},"Ŝ":{"ha":860,"x_min":72,"x_max":791,"o":"m 431 -15 q 251 12 328 -15 q 126 81 174 38 q 72 181 72 123 q 91 232 72 208 q 150 256 110 256 q 208 241 184 256 q 252 206 231 226 q 326 148 283 172 q 434 124 369 124 q 516 136 478 124 q 575 174 553 149 q 597 232 597 198 q 547 310 597 283 q 399 360 497 338 q 164 467 238 399 q 90 635 90 535 q 137 760 90 708 q 263 840 183 812 q 441 868 342 868 q 591 845 520 868 q 709 781 663 823 q 747 740 733 763 q 762 689 762 717 q 741 634 762 654 q 686 615 719 615 q 628 632 652 615 q 588 666 604 649 q 527 711 566 693 q 432 730 488 730 q 357 718 391 730 q 304 686 324 707 q 285 638 285 666 q 332 566 285 594 q 477 512 380 537 q 643 454 573 488 q 752 370 713 421 q 791 244 791 320 q 744 107 791 165 q 617 17 698 49 q 431 -15 535 -15 m 590 993 q 606 958 606 975 q 591 925 606 938 q 552 912 576 912 q 517 923 531 912 q 489 951 502 934 l 433 1013 l 378 950 q 350 923 365 933 q 315 912 336 912 q 276 925 291 912 q 262 958 262 938 q 265 975 262 966 q 278 993 269 984 l 317 1035 q 371 1083 346 1067 q 433 1099 396 1099 q 497 1083 472 1099 q 550 1035 522 1067 l 590 993 z "},"Ș":{"ha":860,"x_min":72,"x_max":791,"o":"m 431 -15 q 251 12 328 -15 q 126 81 174 38 q 72 181 72 123 q 91 232 72 208 q 150 256 110 256 q 208 241 184 256 q 252 206 231 226 q 326 148 283 172 q 434 124 369 124 q 516 136 478 124 q 575 174 553 149 q 597 232 597 198 q 547 310 597 283 q 399 360 497 338 q 164 467 238 399 q 90 635 90 535 q 137 760 90 708 q 263 840 183 812 q 441 868 342 868 q 591 845 520 868 q 709 781 663 823 q 747 740 733 763 q 762 689 762 717 q 741 634 762 654 q 686 615 719 615 q 628 632 652 615 q 588 666 604 649 q 527 711 566 693 q 432 730 488 730 q 357 718 391 730 q 304 686 324 707 q 285 638 285 666 q 332 566 285 594 q 477 512 380 537 q 643 454 573 488 q 752 370 713 421 q 791 244 791 320 q 744 107 791 165 q 617 17 698 49 q 431 -15 535 -15 m 468 -52 q 521 -73 499 -52 q 544 -128 544 -94 q 530 -206 544 -157 q 472 -297 516 -255 q 447 -316 458 -310 q 426 -322 435 -322 q 416 -317 419 -322 q 412 -309 412 -312 q 420 -291 412 -302 q 444 -265 429 -281 q 467 -235 458 -251 q 481 -202 476 -219 q 474 -202 478 -202 q 468 -202 471 -202 q 415 -181 436 -202 q 393 -127 393 -159 q 415 -74 393 -96 q 468 -52 436 -52 z "},"ẞ":{"ha":860,"x_min":77,"x_max":794,"o":"m 588 482 q 602 456 588 467 q 645 429 617 444 q 694 400 669 417 q 743 358 720 383 q 780 299 765 333 q 794 217 794 264 q 750 85 794 136 q 634 10 706 34 q 478 -15 563 -15 q 397 -6 435 -15 q 335 23 359 3 q 311 76 311 43 q 322 117 311 103 q 348 136 333 131 q 376 142 363 142 q 417 138 397 142 q 443 133 428 135 q 478 131 458 131 q 553 139 520 131 q 605 165 586 147 q 624 218 624 184 q 601 276 624 250 q 548 320 578 302 q 497 350 518 339 q 434 395 465 367 q 404 466 404 424 q 423 536 404 511 q 464 584 441 561 q 500 620 481 601 q 531 659 519 640 q 544 694 544 678 q 533 718 544 712 q 500 724 522 724 l 378 724 q 311 713 338 724 q 270 672 284 703 q 256 581 256 642 l 256 110 q 167 0 256 0 q 77 110 77 0 l 77 593 q 98 727 77 674 q 155 808 119 779 q 238 849 191 838 q 335 860 285 860 l 623 860 q 711 828 681 860 q 742 743 742 796 q 726 675 742 707 q 686 616 710 644 q 638 560 663 588 q 602 518 617 538 q 588 482 588 497 z "},"T":{"ha":860,"x_min":70,"x_max":790,"o":"m 679 860 q 790 791 790 860 q 766 740 790 758 q 698 722 743 722 l 525 722 l 525 99 q 429 -11 525 -11 q 334 99 334 -11 l 334 722 l 181 722 q 99 740 127 722 q 70 791 70 758 q 99 842 70 824 q 181 860 127 860 l 679 860 z "},"Ŧ":{"ha":860,"x_min":70,"x_max":790,"o":"m 179 463 q 212 507 179 492 q 306 523 244 523 l 557 523 q 651 507 619 523 q 683 463 683 492 q 651 418 683 434 q 557 403 619 403 l 306 403 q 212 418 244 403 q 179 463 179 434 m 679 860 q 790 791 790 860 q 766 740 790 758 q 698 722 743 722 l 525 722 l 525 99 q 429 -11 525 -11 q 334 99 334 -11 l 334 722 l 181 722 q 99 740 127 722 q 70 791 70 758 q 99 842 70 824 q 181 860 127 860 l 679 860 z "},"Ť":{"ha":860,"x_min":70,"x_max":790,"o":"m 679 860 q 790 791 790 860 q 766 740 790 758 q 698 722 743 722 l 525 722 l 525 99 q 429 -11 525 -11 q 334 99 334 -11 l 334 722 l 181 722 q 99 740 127 722 q 70 791 70 758 q 99 842 70 824 q 181 860 127 860 l 679 860 m 588 1018 l 547 977 q 494 928 519 945 q 431 912 469 912 q 368 928 394 912 q 315 977 343 945 l 275 1018 q 259 1053 259 1035 q 274 1086 259 1074 q 313 1099 289 1099 q 348 1089 333 1099 q 376 1060 362 1078 l 431 998 l 486 1060 q 514 1088 499 1076 q 549 1099 529 1099 q 589 1086 574 1099 q 603 1053 603 1074 q 600 1037 603 1046 q 588 1018 597 1028 z "},"Ţ":{"ha":860,"x_min":70,"x_max":790,"o":"m 679 860 q 790 791 790 860 q 766 740 790 758 q 698 722 743 722 l 525 722 l 525 99 q 429 -11 525 -11 q 334 99 334 -11 l 334 722 l 181 722 q 99 740 127 722 q 70 791 70 758 q 99 842 70 824 q 181 860 127 860 l 679 860 m 419 -305 q 375 -302 394 -305 q 340 -294 355 -300 q 297 -247 297 -278 q 309 -218 297 -228 q 339 -208 322 -208 q 374 -212 353 -208 q 400 -216 385 -215 q 431 -217 415 -217 q 500 -205 473 -217 q 527 -169 527 -193 q 517 -147 527 -154 q 489 -140 506 -140 q 458 -142 472 -140 q 431 -149 444 -145 q 408 -155 419 -153 q 384 -158 396 -158 q 350 -145 361 -158 q 338 -115 338 -133 q 340 -101 338 -109 q 345 -86 342 -94 l 383 22 q 443 58 397 58 q 472 50 460 58 q 485 19 485 41 l 448 -93 q 490 -73 467 -79 q 540 -67 514 -67 q 597 -76 569 -67 q 644 -108 625 -86 q 663 -163 663 -129 q 628 -242 663 -210 q 538 -289 594 -274 q 419 -305 483 -305 z "},"Ț":{"ha":860,"x_min":70,"x_max":790,"o":"m 679 860 q 790 791 790 860 q 766 740 790 758 q 698 722 743 722 l 525 722 l 525 99 q 429 -11 525 -11 q 334 99 334 -11 l 334 722 l 181 722 q 99 740 127 722 q 70 791 70 758 q 99 842 70 824 q 181 860 127 860 l 679 860 m 478 -41 q 531 -62 508 -41 q 553 -117 553 -83 q 540 -195 553 -146 q 481 -285 526 -244 q 456 -305 468 -299 q 436 -310 444 -310 q 425 -306 429 -310 q 422 -298 422 -301 q 430 -280 422 -291 q 453 -254 439 -269 q 477 -224 468 -240 q 490 -191 486 -208 q 484 -191 488 -191 q 478 -191 481 -191 q 424 -169 446 -191 q 403 -116 403 -148 q 424 -63 403 -85 q 478 -41 446 -41 z "},"U":{"ha":860,"x_min":77,"x_max":783,"o":"m 431 -15 q 253 23 333 -15 q 125 143 173 60 q 77 360 77 226 l 77 750 q 173 860 77 860 q 268 750 268 860 l 268 371 q 311 188 268 253 q 431 124 353 124 q 550 188 508 124 q 592 371 592 253 l 592 750 q 687 860 592 860 q 783 750 783 860 l 783 360 q 735 143 783 226 q 608 23 688 60 q 431 -15 528 -15 z "},"Ú":{"ha":860,"x_min":77,"x_max":783,"o":"m 431 -15 q 253 23 333 -15 q 125 143 173 60 q 77 360 77 226 l 77 750 q 173 860 77 860 q 268 750 268 860 l 268 371 q 311 188 268 253 q 431 124 353 124 q 550 188 508 124 q 592 371 592 253 l 592 750 q 687 860 592 860 q 783 750 783 860 l 783 360 q 735 143 783 226 q 608 23 688 60 q 431 -15 528 -15 m 406 915 q 381 923 390 915 q 371 945 371 931 q 395 999 371 966 l 433 1049 q 480 1097 459 1085 q 540 1110 500 1110 l 569 1110 q 604 1099 591 1110 q 617 1072 617 1089 q 591 1026 617 1049 l 531 968 q 469 927 499 940 q 406 915 439 915 z "},"Ŭ":{"ha":860,"x_min":77,"x_max":783,"o":"m 431 -15 q 253 23 333 -15 q 125 143 173 60 q 77 360 77 226 l 77 750 q 173 860 77 860 q 268 750 268 860 l 268 371 q 311 188 268 253 q 431 124 353 124 q 550 188 508 124 q 592 371 592 253 l 592 750 q 687 860 592 860 q 783 750 783 860 l 783 360 q 735 143 783 226 q 608 23 688 60 q 431 -15 528 -15 m 545 1103 q 585 1090 571 1103 q 599 1053 599 1076 q 593 1025 599 1040 q 572 994 587 1009 q 516 939 552 962 q 428 917 481 917 q 345 937 378 917 q 292 986 312 957 q 266 1020 274 1002 q 258 1052 258 1038 q 273 1089 258 1075 q 313 1103 288 1103 q 357 1089 344 1103 q 374 1056 371 1075 q 390 1022 378 1038 q 429 1006 401 1006 q 468 1022 458 1006 q 483 1055 479 1038 q 500 1089 486 1074 q 545 1103 513 1103 z "},"Ǔ":{"ha":860,"x_min":77,"x_max":783,"o":"m 431 -15 q 253 23 333 -15 q 125 143 173 60 q 77 360 77 226 l 77 750 q 173 860 77 860 q 268 750 268 860 l 268 371 q 311 188 268 253 q 431 124 353 124 q 550 188 508 124 q 592 371 592 253 l 592 750 q 687 860 592 860 q 783 750 783 860 l 783 360 q 735 143 783 226 q 608 23 688 60 q 431 -15 528 -15 m 585 1018 l 545 977 q 492 928 517 945 q 429 912 467 912 q 366 928 392 912 q 313 977 341 945 l 273 1018 q 257 1053 257 1035 q 272 1086 257 1074 q 310 1099 287 1099 q 345 1089 331 1099 q 374 1060 360 1078 l 429 998 l 484 1060 q 512 1088 497 1076 q 547 1099 527 1099 q 586 1086 572 1099 q 601 1053 601 1074 q 598 1037 601 1046 q 585 1018 594 1028 z "},"Û":{"ha":860,"x_min":77,"x_max":783,"o":"m 431 -15 q 253 23 333 -15 q 125 143 173 60 q 77 360 77 226 l 77 750 q 173 860 77 860 q 268 750 268 860 l 268 371 q 311 188 268 253 q 431 124 353 124 q 550 188 508 124 q 592 371 592 253 l 592 750 q 687 860 592 860 q 783 750 783 860 l 783 360 q 735 143 783 226 q 608 23 688 60 q 431 -15 528 -15 m 585 990 q 602 955 602 972 q 587 922 602 935 q 548 909 572 909 q 513 920 527 909 q 485 948 498 931 l 429 1010 l 374 947 q 346 920 360 931 q 311 909 332 909 q 272 922 287 909 q 258 956 258 935 q 261 972 258 963 q 274 990 265 981 l 313 1032 q 367 1080 342 1064 q 429 1097 392 1097 q 492 1080 467 1097 q 546 1032 517 1064 l 585 990 z "},"Ȕ":{"ha":860,"x_min":77,"x_max":783,"o":"m 431 -15 q 253 23 333 -15 q 125 143 173 60 q 77 360 77 226 l 77 750 q 173 860 77 860 q 268 750 268 860 l 268 371 q 311 188 268 253 q 431 124 353 124 q 550 188 508 124 q 592 371 592 253 l 592 750 q 687 860 592 860 q 783 750 783 860 l 783 360 q 735 143 783 226 q 608 23 688 60 q 431 -15 528 -15 m 334 913 q 281 925 306 913 q 228 965 256 937 l 172 1023 q 155 1047 160 1035 q 149 1069 149 1059 q 160 1097 149 1086 q 190 1108 172 1108 l 215 1108 q 268 1095 250 1108 q 308 1047 286 1083 l 343 997 q 365 942 365 962 q 356 920 365 928 q 334 913 348 913 m 559 913 q 506 925 531 913 q 453 965 481 937 l 397 1023 q 374 1069 374 1046 q 385 1097 374 1086 q 415 1108 397 1108 l 440 1108 q 492 1095 474 1108 q 532 1047 510 1082 l 568 997 q 584 966 579 980 q 589 942 589 953 q 581 920 589 928 q 559 913 572 913 z "},"Ü":{"ha":860,"x_min":77,"x_max":783,"o":"m 431 -15 q 253 23 333 -15 q 125 143 173 60 q 77 360 77 226 l 77 750 q 173 860 77 860 q 268 750 268 860 l 268 371 q 311 188 268 253 q 431 124 353 124 q 550 188 508 124 q 592 371 592 253 l 592 750 q 687 860 592 860 q 783 750 783 860 l 783 360 q 735 143 783 226 q 608 23 688 60 q 431 -15 528 -15 m 284 928 q 211 958 241 928 q 181 1032 181 988 q 211 1107 181 1076 q 284 1138 241 1138 q 358 1107 328 1138 q 388 1032 388 1076 q 358 958 388 988 q 284 928 328 928 m 573 928 q 500 958 530 928 q 469 1032 469 988 q 500 1107 469 1076 q 573 1138 530 1138 q 647 1107 617 1138 q 678 1032 678 1076 q 647 958 678 988 q 573 928 617 928 z "},"Ǘ":{"ha":860,"x_min":77,"x_max":783,"o":"m 431 -15 q 253 23 333 -15 q 125 143 173 60 q 77 360 77 226 l 77 750 q 173 860 77 860 q 268 750 268 860 l 268 371 q 311 188 268 253 q 431 124 353 124 q 550 188 508 124 q 592 371 592 253 l 592 750 q 687 860 592 860 q 783 750 783 860 l 783 360 q 735 143 783 226 q 608 23 688 60 q 431 -15 528 -15 m 284 928 q 211 958 241 928 q 181 1032 181 988 q 211 1107 181 1076 q 284 1138 241 1138 q 358 1107 328 1138 q 388 1032 388 1076 q 358 958 388 988 q 284 928 328 928 m 573 928 q 500 958 530 928 q 469 1032 469 988 q 500 1107 469 1076 q 573 1138 530 1138 q 647 1107 617 1138 q 678 1032 678 1076 q 647 958 678 988 q 573 928 617 928 m 406 1192 q 381 1200 390 1192 q 371 1222 371 1208 q 395 1276 371 1243 l 433 1326 q 480 1374 459 1362 q 540 1387 500 1387 l 569 1387 q 604 1376 591 1387 q 617 1349 617 1366 q 591 1303 617 1326 l 531 1245 q 469 1205 499 1217 q 406 1192 439 1192 z "},"Ǚ":{"ha":860,"x_min":77,"x_max":783,"o":"m 431 -15 q 253 23 333 -15 q 125 143 173 60 q 77 360 77 226 l 77 750 q 173 860 77 860 q 268 750 268 860 l 268 371 q 311 188 268 253 q 431 124 353 124 q 550 188 508 124 q 592 371 592 253 l 592 750 q 687 860 592 860 q 783 750 783 860 l 783 360 q 735 143 783 226 q 608 23 688 60 q 431 -15 528 -15 m 284 928 q 211 958 241 928 q 181 1032 181 988 q 211 1107 181 1076 q 284 1138 241 1138 q 358 1107 328 1138 q 388 1032 388 1076 q 358 958 388 988 q 284 928 328 928 m 573 928 q 500 958 530 928 q 469 1032 469 988 q 500 1107 469 1076 q 573 1138 530 1138 q 647 1107 617 1138 q 678 1032 678 1076 q 647 958 678 988 q 573 928 617 928 m 585 1295 l 545 1254 q 492 1206 517 1222 q 429 1189 467 1189 q 366 1206 392 1189 q 313 1254 341 1222 l 273 1295 q 257 1331 257 1313 q 272 1364 257 1351 q 310 1376 287 1376 q 345 1366 331 1376 q 374 1338 360 1355 l 429 1275 l 484 1338 q 512 1365 497 1353 q 547 1376 527 1376 q 586 1364 572 1376 q 601 1331 601 1351 q 598 1314 601 1323 q 585 1295 594 1305 z "},"Ǜ":{"ha":860,"x_min":77,"x_max":783,"o":"m 431 -15 q 253 23 333 -15 q 125 143 173 60 q 77 360 77 226 l 77 750 q 173 860 77 860 q 268 750 268 860 l 268 371 q 311 188 268 253 q 431 124 353 124 q 550 188 508 124 q 592 371 592 253 l 592 750 q 687 860 592 860 q 783 750 783 860 l 783 360 q 735 143 783 226 q 608 23 688 60 q 431 -15 528 -15 m 284 928 q 211 958 241 928 q 181 1032 181 988 q 211 1107 181 1076 q 284 1138 241 1138 q 358 1107 328 1138 q 388 1032 388 1076 q 358 958 388 988 q 284 928 328 928 m 573 928 q 500 958 530 928 q 469 1032 469 988 q 500 1107 469 1076 q 573 1138 530 1138 q 647 1107 617 1138 q 678 1032 678 1076 q 647 958 678 988 q 573 928 617 928 m 468 1187 q 406 1199 435 1187 q 344 1239 376 1211 l 283 1297 q 257 1344 257 1320 q 270 1371 257 1360 q 305 1381 283 1381 l 334 1381 q 395 1369 374 1381 q 442 1321 416 1356 l 479 1271 q 503 1216 503 1238 q 494 1195 503 1203 q 468 1187 484 1187 z "},"Ǖ":{"ha":860,"x_min":77,"x_max":783,"o":"m 431 -15 q 253 23 333 -15 q 125 143 173 60 q 77 360 77 226 l 77 750 q 173 860 77 860 q 268 750 268 860 l 268 371 q 311 188 268 253 q 431 124 353 124 q 550 188 508 124 q 592 371 592 253 l 592 750 q 687 860 592 860 q 783 750 783 860 l 783 360 q 735 143 783 226 q 608 23 688 60 q 431 -15 528 -15 m 284 928 q 211 958 241 928 q 181 1032 181 988 q 211 1107 181 1076 q 284 1138 241 1138 q 358 1107 328 1138 q 388 1032 388 1076 q 358 958 388 988 q 284 928 328 928 m 573 928 q 500 958 530 928 q 469 1032 469 988 q 500 1107 469 1076 q 573 1138 530 1138 q 647 1107 617 1138 q 678 1032 678 1076 q 647 958 678 988 q 573 928 617 928 m 165 1264 q 188 1304 165 1289 q 262 1319 211 1319 l 595 1319 q 668 1304 645 1319 q 692 1264 692 1289 q 668 1224 692 1239 q 595 1209 645 1209 l 262 1209 q 188 1224 211 1209 q 165 1264 165 1239 z "},"Ụ":{"ha":860,"x_min":77,"x_max":783,"o":"m 431 -15 q 253 23 333 -15 q 125 143 173 60 q 77 360 77 226 l 77 750 q 173 860 77 860 q 268 750 268 860 l 268 371 q 311 188 268 253 q 431 124 353 124 q 550 188 508 124 q 592 371 592 253 l 592 750 q 687 860 592 860 q 783 750 783 860 l 783 360 q 735 143 783 226 q 608 23 688 60 q 431 -15 528 -15 m 429 -272 q 356 -241 386 -272 q 326 -167 326 -211 q 356 -93 326 -124 q 429 -62 386 -62 q 503 -93 473 -62 q 533 -167 533 -124 q 503 -242 533 -213 q 429 -272 473 -272 z "},"Ù":{"ha":860,"x_min":77,"x_max":783,"o":"m 431 -15 q 253 23 333 -15 q 125 143 173 60 q 77 360 77 226 l 77 750 q 173 860 77 860 q 268 750 268 860 l 268 371 q 311 188 268 253 q 431 124 353 124 q 550 188 508 124 q 592 371 592 253 l 592 750 q 687 860 592 860 q 783 750 783 860 l 783 360 q 735 143 783 226 q 608 23 688 60 q 431 -15 528 -15 m 468 910 q 406 922 435 910 q 344 962 376 934 l 283 1020 q 257 1067 257 1043 q 270 1094 257 1083 q 305 1104 283 1104 l 334 1104 q 395 1092 374 1104 q 442 1044 416 1079 l 479 994 q 503 939 503 960 q 494 918 503 926 q 468 910 484 910 z "},"Ủ":{"ha":860,"x_min":77,"x_max":783,"o":"m 431 -15 q 253 23 333 -15 q 125 143 173 60 q 77 360 77 226 l 77 750 q 173 860 77 860 q 268 750 268 860 l 268 371 q 311 188 268 253 q 431 124 353 124 q 550 188 508 124 q 592 371 592 253 l 592 750 q 687 860 592 860 q 783 750 783 860 l 783 360 q 735 143 783 226 q 608 23 688 60 q 431 -15 528 -15 m 395 915 q 359 927 372 915 q 347 958 347 939 q 358 991 347 977 q 395 1004 370 1004 q 456 1013 428 1004 q 483 1044 483 1021 q 457 1072 483 1066 q 402 1077 431 1077 q 361 1075 378 1077 q 329 1069 345 1074 q 314 1066 321 1067 q 301 1065 307 1065 q 277 1074 287 1065 q 267 1098 267 1083 q 306 1148 267 1131 q 406 1166 344 1166 q 495 1156 453 1166 q 564 1118 538 1145 q 591 1042 591 1091 q 559 967 591 995 q 481 926 527 938 q 395 915 435 915 z "},"Ư":{"ha":860,"x_min":76,"x_max":982,"o":"m 430 -15 q 252 21 333 -15 q 124 136 172 56 q 76 351 76 217 l 76 750 q 172 860 76 860 q 267 750 267 860 l 267 362 q 310 184 267 244 q 430 124 353 124 q 549 184 508 124 q 591 362 591 244 l 591 750 q 686 860 591 860 q 768 876 738 860 q 814 924 798 892 q 838 1003 829 956 q 861 1056 844 1035 q 910 1076 878 1076 q 964 1058 946 1076 q 982 998 982 1040 q 960 893 982 945 q 897 807 939 841 q 793 772 855 772 l 782 772 l 782 351 q 735 136 782 217 q 608 21 688 56 q 430 -15 528 -15 z "},"Ứ":{"ha":860,"x_min":76,"x_max":982,"o":"m 430 -15 q 252 21 333 -15 q 124 136 172 56 q 76 351 76 217 l 76 750 q 172 860 76 860 q 267 750 267 860 l 267 362 q 310 184 267 244 q 430 124 353 124 q 549 184 508 124 q 591 362 591 244 l 591 750 q 686 860 591 860 q 768 876 738 860 q 814 924 798 892 q 838 1003 829 956 q 861 1056 844 1035 q 910 1076 878 1076 q 964 1058 946 1076 q 982 998 982 1040 q 960 893 982 945 q 897 807 939 841 q 793 772 855 772 l 782 772 l 782 351 q 735 136 782 217 q 608 21 688 56 q 430 -15 528 -15 m 401 915 q 375 923 385 915 q 365 945 365 931 q 390 999 365 966 l 427 1049 q 474 1097 453 1085 q 535 1110 494 1110 l 564 1110 q 599 1099 585 1110 q 612 1072 612 1089 q 585 1026 612 1049 l 525 968 q 463 927 493 940 q 401 915 433 915 z "},"Ự":{"ha":860,"x_min":76,"x_max":982,"o":"m 430 -15 q 252 21 333 -15 q 124 136 172 56 q 76 351 76 217 l 76 750 q 172 860 76 860 q 267 750 267 860 l 267 362 q 310 184 267 244 q 430 124 353 124 q 549 184 508 124 q 591 362 591 244 l 591 750 q 686 860 591 860 q 768 876 738 860 q 814 924 798 892 q 838 1003 829 956 q 861 1056 844 1035 q 910 1076 878 1076 q 964 1058 946 1076 q 982 998 982 1040 q 960 893 982 945 q 897 807 939 841 q 793 772 855 772 l 782 772 l 782 351 q 735 136 782 217 q 608 21 688 56 q 430 -15 528 -15 m 424 -272 q 350 -241 381 -272 q 320 -167 320 -211 q 350 -93 320 -124 q 424 -62 381 -62 q 497 -93 467 -62 q 527 -167 527 -124 q 497 -242 527 -213 q 424 -272 467 -272 z "},"Ừ":{"ha":860,"x_min":76,"x_max":982,"o":"m 430 -15 q 252 21 333 -15 q 124 136 172 56 q 76 351 76 217 l 76 750 q 172 860 76 860 q 267 750 267 860 l 267 362 q 310 184 267 244 q 430 124 353 124 q 549 184 508 124 q 591 362 591 244 l 591 750 q 686 860 591 860 q 768 876 738 860 q 814 924 798 892 q 838 1003 829 956 q 861 1056 844 1035 q 910 1076 878 1076 q 964 1058 946 1076 q 982 998 982 1040 q 960 893 982 945 q 897 807 939 841 q 793 772 855 772 l 782 772 l 782 351 q 735 136 782 217 q 608 21 688 56 q 430 -15 528 -15 m 463 910 q 400 922 430 910 q 338 962 370 934 l 278 1020 q 251 1067 251 1043 q 265 1094 251 1083 q 299 1104 278 1104 l 328 1104 q 390 1092 369 1104 q 436 1044 410 1079 l 474 994 q 498 939 498 960 q 488 918 498 926 q 463 910 478 910 z "},"Ử":{"ha":860,"x_min":76,"x_max":982,"o":"m 430 -15 q 252 21 333 -15 q 124 136 172 56 q 76 351 76 217 l 76 750 q 172 860 76 860 q 267 750 267 860 l 267 362 q 310 184 267 244 q 430 124 353 124 q 549 184 508 124 q 591 362 591 244 l 591 750 q 686 860 591 860 q 768 876 738 860 q 814 924 798 892 q 838 1003 829 956 q 861 1056 844 1035 q 910 1076 878 1076 q 964 1058 946 1076 q 982 998 982 1040 q 960 893 982 945 q 897 807 939 841 q 793 772 855 772 l 782 772 l 782 351 q 735 136 782 217 q 608 21 688 56 q 430 -15 528 -15 m 390 915 q 353 927 366 915 q 341 958 341 939 q 353 991 341 977 q 390 1004 365 1004 q 450 1013 422 1004 q 478 1044 478 1021 q 451 1072 478 1066 q 397 1077 425 1077 q 356 1075 372 1077 q 324 1069 340 1074 q 308 1066 315 1067 q 295 1065 301 1065 q 271 1074 281 1065 q 261 1098 261 1083 q 300 1148 261 1131 q 401 1166 339 1166 q 490 1156 448 1166 q 559 1118 532 1145 q 585 1042 585 1091 q 553 967 585 995 q 476 926 522 938 q 390 915 430 915 z "},"Ữ":{"ha":860,"x_min":76,"x_max":982,"o":"m 430 -15 q 252 21 333 -15 q 124 136 172 56 q 76 351 76 217 l 76 750 q 172 860 76 860 q 267 750 267 860 l 267 362 q 310 184 267 244 q 430 124 353 124 q 549 184 508 124 q 591 362 591 244 l 591 750 q 686 860 591 860 q 768 876 738 860 q 814 924 798 892 q 838 1003 829 956 q 861 1056 844 1035 q 910 1076 878 1076 q 964 1058 946 1076 q 982 998 982 1040 q 960 893 982 945 q 897 807 939 841 q 793 772 855 772 l 782 772 l 782 351 q 735 136 782 217 q 608 21 688 56 q 430 -15 528 -15 m 501 922 q 447 933 467 922 q 410 958 428 944 q 383 976 397 969 q 351 983 370 983 q 315 977 331 983 q 285 962 299 970 q 266 951 275 956 q 248 947 256 947 q 226 959 235 947 q 217 988 217 971 q 252 1053 217 1022 q 293 1078 269 1067 q 344 1089 316 1089 q 399 1080 379 1089 q 433 1055 418 1070 q 459 1035 445 1043 q 495 1026 473 1026 q 528 1033 515 1026 q 554 1048 542 1039 q 572 1059 563 1055 q 592 1063 581 1063 q 619 1053 607 1063 q 631 1022 631 1043 q 615 981 631 999 q 570 942 599 961 q 501 922 542 922 z "},"Ű":{"ha":860,"x_min":77,"x_max":783,"o":"m 431 -15 q 253 23 333 -15 q 125 143 173 60 q 77 360 77 226 l 77 750 q 173 860 77 860 q 268 750 268 860 l 268 371 q 311 188 268 253 q 431 124 353 124 q 550 188 508 124 q 592 371 592 253 l 592 750 q 687 860 592 860 q 783 750 783 860 l 783 360 q 735 143 783 226 q 608 23 688 60 q 431 -15 528 -15 m 459 986 l 492 1049 q 525 1097 510 1084 q 568 1110 540 1110 l 606 1110 q 629 1101 621 1110 q 638 1080 638 1093 q 617 1034 638 1060 l 565 967 q 525 926 541 939 q 485 913 508 913 q 459 922 470 913 q 448 948 448 931 q 459 986 448 963 m 250 986 l 283 1049 q 316 1097 301 1084 q 360 1110 331 1110 l 397 1110 q 420 1101 412 1110 q 428 1080 428 1093 q 408 1034 428 1059 l 356 967 q 316 926 332 939 q 276 913 299 913 q 250 922 261 913 q 239 948 239 931 q 250 986 239 963 z "},"Ȗ":{"ha":860,"x_min":77,"x_max":783,"o":"m 431 -15 q 253 23 333 -15 q 125 143 173 60 q 77 360 77 226 l 77 750 q 173 860 77 860 q 268 750 268 860 l 268 371 q 311 188 268 253 q 431 124 353 124 q 550 188 508 124 q 592 371 592 253 l 592 750 q 687 860 592 860 q 783 750 783 860 l 783 360 q 735 143 783 226 q 608 23 688 60 q 431 -15 528 -15 m 545 913 q 500 927 513 913 q 483 961 486 942 q 468 994 479 978 q 429 1010 458 1010 q 390 994 401 1010 q 374 961 378 978 q 357 927 371 942 q 313 913 344 913 q 273 927 288 913 q 258 964 258 942 q 266 997 258 979 q 292 1030 274 1015 q 345 1079 312 1059 q 428 1099 378 1099 q 516 1077 481 1099 q 572 1022 552 1054 q 593 992 587 1008 q 599 963 599 976 q 585 926 599 940 q 545 913 571 913 z "},"Ū":{"ha":860,"x_min":77,"x_max":783,"o":"m 431 -15 q 253 23 333 -15 q 125 143 173 60 q 77 360 77 226 l 77 750 q 173 860 77 860 q 268 750 268 860 l 268 371 q 311 188 268 253 q 431 124 353 124 q 550 188 508 124 q 592 371 592 253 l 592 750 q 687 860 592 860 q 783 750 783 860 l 783 360 q 735 143 783 226 q 608 23 688 60 q 431 -15 528 -15 m 165 987 q 188 1027 165 1012 q 262 1042 211 1042 l 595 1042 q 668 1027 645 1042 q 692 987 692 1012 q 668 947 692 962 q 595 932 645 932 l 262 932 q 188 947 211 932 q 165 987 165 962 z "},"Ų":{"ha":860,"x_min":77,"x_max":783,"o":"m 612 -289 q 519 -276 563 -289 q 449 -234 476 -264 q 422 -154 422 -204 q 436 -85 422 -119 q 470 -25 449 -52 q 514 18 491 1 q 558 39 538 35 l 642 39 q 608 4 627 29 q 575 -54 590 -22 q 561 -116 561 -86 q 579 -163 561 -149 q 625 -178 597 -178 q 648 -176 634 -178 q 672 -172 663 -174 q 692 -168 682 -169 q 709 -167 701 -167 q 744 -181 733 -167 q 755 -215 755 -194 q 713 -271 755 -253 q 612 -289 671 -289 m 431 -15 q 253 23 333 -15 q 125 143 173 60 q 77 360 77 226 l 77 750 q 173 860 77 860 q 268 750 268 860 l 268 371 q 311 188 268 253 q 431 124 353 124 q 550 188 508 124 q 592 371 592 253 l 592 750 q 687 860 592 860 q 783 750 783 860 l 783 360 q 735 143 783 226 q 608 23 688 60 q 431 -15 528 -15 z "},"Ů":{"ha":860,"x_min":77,"x_max":783,"o":"m 431 -15 q 253 23 333 -15 q 125 143 173 60 q 77 360 77 226 l 77 750 q 173 860 77 860 q 268 750 268 860 l 268 371 q 311 188 268 253 q 431 124 353 124 q 550 188 508 124 q 592 371 592 253 l 592 750 q 687 860 592 860 q 783 750 783 860 l 783 360 q 735 143 783 226 q 608 23 688 60 q 431 -15 528 -15 m 430 904 q 333 943 374 904 q 292 1040 292 982 q 311 1108 292 1078 q 361 1157 330 1139 q 430 1176 392 1176 q 497 1157 466 1176 q 547 1108 528 1139 q 565 1041 565 1078 q 525 943 565 982 q 430 904 485 904 m 430 994 q 461 1007 449 994 q 474 1041 474 1020 q 461 1072 474 1059 q 430 1084 449 1084 q 397 1072 410 1084 q 384 1041 384 1059 q 397 1007 384 1020 q 430 994 410 994 z "},"Ũ":{"ha":860,"x_min":77,"x_max":783,"o":"m 431 -15 q 253 23 333 -15 q 125 143 173 60 q 77 360 77 226 l 77 750 q 173 860 77 860 q 268 750 268 860 l 268 371 q 311 188 268 253 q 431 124 353 124 q 550 188 508 124 q 592 371 592 253 l 592 750 q 687 860 592 860 q 783 750 783 860 l 783 360 q 735 143 783 226 q 608 23 688 60 q 431 -15 528 -15 m 507 922 q 453 933 472 922 q 415 958 433 944 q 389 976 402 969 q 356 983 376 983 q 320 977 337 983 q 291 962 304 970 q 271 951 281 956 q 253 947 262 947 q 232 959 241 947 q 223 988 223 971 q 258 1053 223 1022 q 298 1078 275 1067 q 349 1089 322 1089 q 404 1080 385 1089 q 439 1055 424 1070 q 465 1035 451 1043 q 501 1026 478 1026 q 534 1033 520 1026 q 560 1048 548 1039 q 577 1059 568 1055 q 598 1063 587 1063 q 624 1053 613 1063 q 636 1022 636 1043 q 620 981 636 999 q 576 942 604 961 q 507 922 547 922 z "},"V":{"ha":860,"x_min":63,"x_max":797,"o":"m 443 -2 l 417 -2 q 327 22 361 -2 q 278 94 294 47 l 69 744 q 64 764 65 754 q 63 781 63 774 q 90 845 63 823 q 156 867 117 867 q 224 842 204 867 q 256 767 244 817 l 430 160 l 604 767 q 637 842 617 817 q 705 867 658 867 q 771 844 745 867 q 797 781 797 822 q 796 764 797 773 q 792 744 795 754 l 581 94 q 533 22 567 47 q 443 -2 499 -2 z "},"W":{"ha":860,"x_min":41,"x_max":818,"o":"m 224 -13 q 143 14 172 -13 q 108 93 114 40 q 101 148 106 108 q 90 246 97 189 q 77 368 84 303 q 64 499 71 433 q 52 621 58 564 q 44 718 47 678 q 41 772 41 758 q 66 842 41 818 q 134 867 92 867 q 202 840 181 867 q 226 759 223 813 l 252 276 l 335 688 q 369 763 345 739 q 429 786 393 786 q 490 763 466 786 q 524 688 515 739 l 606 278 l 632 759 q 659 840 635 813 q 729 867 683 867 q 795 842 772 867 q 818 772 818 818 q 815 721 818 760 q 806 626 812 682 q 794 503 801 569 q 781 372 788 438 q 768 248 774 306 q 758 149 762 190 q 751 93 753 108 q 716 14 745 40 q 635 -13 687 -13 l 630 -13 q 546 13 579 -13 q 503 89 513 38 l 429 481 l 356 89 q 314 13 347 38 q 230 -13 281 -13 l 224 -13 z "},"Ẃ":{"ha":860,"x_min":41,"x_max":818,"o":"m 224 -13 q 143 14 172 -13 q 108 93 114 40 q 101 148 106 108 q 90 246 97 189 q 77 368 84 303 q 64 499 71 433 q 52 621 58 564 q 44 718 47 678 q 41 772 41 758 q 66 842 41 818 q 134 867 92 867 q 202 840 181 867 q 226 759 223 813 l 252 276 l 335 688 q 369 763 345 739 q 429 786 393 786 q 490 763 466 786 q 524 688 515 739 l 606 278 l 632 759 q 659 840 635 813 q 729 867 683 867 q 795 842 772 867 q 818 772 818 818 q 815 721 818 760 q 806 626 812 682 q 794 503 801 569 q 781 372 788 438 q 768 248 774 306 q 758 149 762 190 q 751 93 753 108 q 716 14 745 40 q 635 -13 687 -13 l 630 -13 q 546 13 579 -13 q 503 89 513 38 l 429 481 l 356 89 q 314 13 347 38 q 230 -13 281 -13 l 224 -13 m 408 915 q 383 923 392 915 q 373 945 373 931 q 397 999 373 966 l 435 1049 q 482 1097 461 1085 q 542 1110 502 1110 l 572 1110 q 606 1099 593 1110 q 619 1072 619 1089 q 593 1026 619 1049 l 533 968 q 471 927 501 940 q 408 915 441 915 z "},"Ŵ":{"ha":860,"x_min":41,"x_max":818,"o":"m 224 -13 q 143 14 172 -13 q 108 93 114 40 q 101 148 106 108 q 90 246 97 189 q 77 368 84 303 q 64 499 71 433 q 52 621 58 564 q 44 718 47 678 q 41 772 41 758 q 66 842 41 818 q 134 867 92 867 q 202 840 181 867 q 226 759 223 813 l 252 276 l 335 688 q 369 763 345 739 q 429 786 393 786 q 490 763 466 786 q 524 688 515 739 l 606 278 l 632 759 q 659 840 635 813 q 729 867 683 867 q 795 842 772 867 q 818 772 818 818 q 815 721 818 760 q 806 626 812 682 q 794 503 801 569 q 781 372 788 438 q 768 248 774 306 q 758 149 762 190 q 751 93 753 108 q 716 14 745 40 q 635 -13 687 -13 l 630 -13 q 546 13 579 -13 q 503 89 513 38 l 429 481 l 356 89 q 314 13 347 38 q 230 -13 281 -13 l 224 -13 m 588 990 q 604 955 604 972 q 589 922 604 935 q 550 909 574 909 q 515 920 529 909 q 487 948 500 931 l 431 1010 l 376 947 q 348 920 363 931 q 313 909 334 909 q 274 922 289 909 q 260 956 260 935 q 263 972 260 963 q 276 990 267 981 l 315 1032 q 369 1080 344 1064 q 431 1097 394 1097 q 494 1080 469 1097 q 548 1032 519 1064 l 588 990 z "},"Ẅ":{"ha":860,"x_min":41,"x_max":818,"o":"m 224 -13 q 143 14 172 -13 q 108 93 114 40 q 101 148 106 108 q 90 246 97 189 q 77 368 84 303 q 64 499 71 433 q 52 621 58 564 q 44 718 47 678 q 41 772 41 758 q 66 842 41 818 q 134 867 92 867 q 202 840 181 867 q 226 759 223 813 l 252 276 l 335 688 q 369 763 345 739 q 429 786 393 786 q 490 763 466 786 q 524 688 515 739 l 606 278 l 632 759 q 659 840 635 813 q 729 867 683 867 q 795 842 772 867 q 818 772 818 818 q 815 721 818 760 q 806 626 812 682 q 794 503 801 569 q 781 372 788 438 q 768 248 774 306 q 758 149 762 190 q 751 93 753 108 q 716 14 745 40 q 635 -13 687 -13 l 630 -13 q 546 13 579 -13 q 503 89 513 38 l 429 481 l 356 89 q 314 13 347 38 q 230 -13 281 -13 l 224 -13 m 286 928 q 213 958 243 928 q 183 1032 183 988 q 213 1107 183 1076 q 286 1138 243 1138 q 360 1107 330 1138 q 390 1032 390 1076 q 360 958 390 988 q 286 928 330 928 m 575 928 q 502 958 532 928 q 472 1032 472 988 q 502 1107 472 1076 q 575 1138 532 1138 q 649 1107 619 1138 q 680 1032 680 1076 q 649 958 680 988 q 575 928 619 928 z "},"Ẁ":{"ha":860,"x_min":41,"x_max":818,"o":"m 224 -13 q 143 14 172 -13 q 108 93 114 40 q 101 148 106 108 q 90 246 97 189 q 77 368 84 303 q 64 499 71 433 q 52 621 58 564 q 44 718 47 678 q 41 772 41 758 q 66 842 41 818 q 134 867 92 867 q 202 840 181 867 q 226 759 223 813 l 252 276 l 335 688 q 369 763 345 739 q 429 786 393 786 q 490 763 466 786 q 524 688 515 739 l 606 278 l 632 759 q 659 840 635 813 q 729 867 683 867 q 795 842 772 867 q 818 772 818 818 q 815 721 818 760 q 806 626 812 682 q 794 503 801 569 q 781 372 788 438 q 768 248 774 306 q 758 149 762 190 q 751 93 753 108 q 716 14 745 40 q 635 -13 687 -13 l 630 -13 q 546 13 579 -13 q 503 89 513 38 l 429 481 l 356 89 q 314 13 347 38 q 230 -13 281 -13 l 224 -13 m 470 910 q 408 922 438 910 q 346 962 378 934 l 285 1020 q 259 1067 259 1043 q 272 1094 259 1083 q 307 1104 285 1104 l 336 1104 q 397 1092 376 1104 q 444 1044 418 1079 l 481 994 q 506 939 506 960 q 496 918 506 926 q 470 910 486 910 z "},"X":{"ha":860,"x_min":90,"x_max":767,"o":"m 182 -13 q 119 8 142 -13 q 96 59 96 28 q 101 88 96 74 q 120 122 106 103 l 322 419 l 107 740 q 94 768 97 755 q 90 795 90 781 q 116 849 90 830 q 178 868 142 868 q 221 860 204 868 q 252 832 238 851 q 286 782 267 813 l 429 556 l 570 782 q 622 849 599 830 q 683 867 645 867 q 743 850 719 867 q 767 795 767 832 q 749 740 767 765 l 535 426 l 736 122 q 755 86 750 101 q 760 56 760 71 q 736 6 760 26 q 672 -13 712 -13 q 612 8 632 -13 q 567 67 592 28 l 427 286 l 286 67 q 241 8 262 28 q 182 -13 221 -13 z "},"Y":{"ha":860,"x_min":90,"x_max":765,"o":"m 428 -13 q 333 97 333 -13 l 333 340 q 298 388 315 357 l 108 723 q 90 787 90 753 q 111 843 90 817 q 176 869 133 869 q 232 849 212 869 q 274 785 252 828 l 428 485 l 583 786 q 627 849 606 829 q 684 869 649 869 q 746 844 727 869 q 765 788 765 819 q 760 755 765 772 q 747 723 756 737 l 558 388 q 541 362 549 374 q 524 340 533 350 l 524 97 q 428 -13 524 -13 z "},"Ý":{"ha":860,"x_min":90,"x_max":765,"o":"m 428 -13 q 333 97 333 -13 l 333 340 q 298 388 315 357 l 108 723 q 90 787 90 753 q 111 843 90 817 q 176 869 133 869 q 232 849 212 869 q 274 785 252 828 l 428 485 l 583 786 q 627 849 606 829 q 684 869 649 869 q 746 844 727 869 q 765 788 765 819 q 760 755 765 772 q 747 723 756 737 l 558 388 q 541 362 549 374 q 524 340 533 350 l 524 97 q 428 -13 524 -13 m 403 915 q 377 923 387 915 q 367 945 367 931 q 392 999 367 966 l 429 1049 q 476 1097 456 1085 q 537 1110 497 1110 l 566 1110 q 601 1099 588 1110 q 614 1072 614 1089 q 588 1026 614 1049 l 527 968 q 465 927 495 940 q 403 915 435 915 z "},"Ŷ":{"ha":860,"x_min":90,"x_max":765,"o":"m 428 -13 q 333 97 333 -13 l 333 340 q 298 388 315 357 l 108 723 q 90 787 90 753 q 111 843 90 817 q 176 869 133 869 q 232 849 212 869 q 274 785 252 828 l 428 485 l 583 786 q 627 849 606 829 q 684 869 649 869 q 746 844 727 869 q 765 788 765 819 q 760 755 765 772 q 747 723 756 737 l 558 388 q 541 362 549 374 q 524 340 533 350 l 524 97 q 428 -13 524 -13 m 581 990 q 598 955 598 972 q 583 922 598 935 q 544 909 568 909 q 508 920 523 909 q 481 948 494 931 l 425 1010 l 370 947 q 342 920 356 931 q 307 909 328 909 q 268 922 283 909 q 253 956 253 935 q 257 972 253 963 q 269 990 260 981 l 309 1032 q 363 1080 338 1064 q 425 1097 388 1097 q 488 1080 463 1097 q 542 1032 513 1064 l 581 990 z "},"Ÿ":{"ha":860,"x_min":90,"x_max":765,"o":"m 428 -13 q 333 97 333 -13 l 333 340 q 298 388 315 357 l 108 723 q 90 787 90 753 q 111 843 90 817 q 176 869 133 869 q 232 849 212 869 q 274 785 252 828 l 428 485 l 583 786 q 627 849 606 829 q 684 869 649 869 q 746 844 727 869 q 765 788 765 819 q 760 755 765 772 q 747 723 756 737 l 558 388 q 541 362 549 374 q 524 340 533 350 l 524 97 q 428 -13 524 -13 m 281 928 q 207 958 238 928 q 177 1032 177 988 q 207 1107 177 1076 q 281 1138 238 1138 q 355 1107 324 1138 q 385 1032 385 1076 q 355 958 385 988 q 281 928 324 928 m 569 928 q 496 958 526 928 q 466 1032 466 988 q 496 1107 466 1076 q 569 1138 526 1138 q 644 1107 613 1138 q 674 1032 674 1076 q 644 958 674 988 q 569 928 613 928 z "},"Ỵ":{"ha":860,"x_min":90,"x_max":765,"o":"m 428 -13 q 333 97 333 -13 l 333 340 q 298 388 315 357 l 108 723 q 90 787 90 753 q 111 843 90 817 q 176 869 133 869 q 232 849 212 869 q 274 785 252 828 l 428 485 l 583 786 q 627 849 606 829 q 684 869 649 869 q 746 844 727 869 q 765 788 765 819 q 760 755 765 772 q 747 723 756 737 l 558 388 q 541 362 549 374 q 524 340 533 350 l 524 97 q 428 -13 524 -13 m 410 -272 q 336 -241 367 -272 q 306 -167 306 -211 q 336 -93 306 -124 q 410 -62 367 -62 q 483 -93 453 -62 q 513 -167 513 -124 q 483 -242 513 -213 q 410 -272 453 -272 z "},"Ỳ":{"ha":860,"x_min":90,"x_max":765,"o":"m 428 -13 q 333 97 333 -13 l 333 340 q 298 388 315 357 l 108 723 q 90 787 90 753 q 111 843 90 817 q 176 869 133 869 q 232 849 212 869 q 274 785 252 828 l 428 485 l 583 786 q 627 849 606 829 q 684 869 649 869 q 746 844 727 869 q 765 788 765 819 q 760 755 765 772 q 747 723 756 737 l 558 388 q 541 362 549 374 q 524 340 533 350 l 524 97 q 428 -13 524 -13 m 465 910 q 402 922 432 910 q 340 962 372 934 l 280 1020 q 253 1067 253 1043 q 267 1094 253 1083 q 301 1104 280 1104 l 331 1104 q 392 1092 371 1104 q 438 1044 413 1079 l 476 994 q 500 939 500 960 q 490 918 500 926 q 465 910 481 910 z "},"Ỷ":{"ha":860,"x_min":90,"x_max":765,"o":"m 428 -13 q 333 97 333 -13 l 333 340 q 298 388 315 357 l 108 723 q 90 787 90 753 q 111 843 90 817 q 176 869 133 869 q 232 849 212 869 q 274 785 252 828 l 428 485 l 583 786 q 627 849 606 829 q 684 869 649 869 q 746 844 727 869 q 765 788 765 819 q 760 755 765 772 q 747 723 756 737 l 558 388 q 541 362 549 374 q 524 340 533 350 l 524 97 q 428 -13 524 -13 m 392 915 q 356 927 368 915 q 343 958 343 939 q 355 991 343 977 q 392 1004 367 1004 q 452 1013 424 1004 q 480 1044 480 1021 q 453 1072 480 1066 q 399 1077 427 1077 q 358 1075 374 1077 q 326 1069 342 1074 q 310 1066 317 1067 q 297 1065 303 1065 q 273 1074 283 1065 q 263 1098 263 1083 q 302 1148 263 1131 q 403 1166 341 1166 q 492 1156 450 1166 q 561 1118 534 1145 q 588 1042 588 1091 q 556 967 588 995 q 478 926 524 938 q 392 915 432 915 z "},"Ȳ":{"ha":860,"x_min":90,"x_max":765,"o":"m 428 -13 q 333 97 333 -13 l 333 340 q 298 388 315 357 l 108 723 q 90 787 90 753 q 111 843 90 817 q 176 869 133 869 q 232 849 212 869 q 274 785 252 828 l 428 485 l 583 786 q 627 849 606 829 q 684 869 649 869 q 746 844 727 869 q 765 788 765 819 q 760 755 765 772 q 747 723 756 737 l 558 388 q 541 362 549 374 q 524 340 533 350 l 524 97 q 428 -13 524 -13 m 162 987 q 185 1027 162 1012 q 258 1042 208 1042 l 592 1042 q 665 1027 642 1042 q 688 987 688 1012 q 665 947 688 962 q 592 932 642 932 l 258 932 q 185 947 208 932 q 162 987 162 962 z "},"Ỹ":{"ha":860,"x_min":90,"x_max":765,"o":"m 428 -13 q 333 97 333 -13 l 333 340 q 298 388 315 357 l 108 723 q 90 787 90 753 q 111 843 90 817 q 176 869 133 869 q 232 849 212 869 q 274 785 252 828 l 428 485 l 583 786 q 627 849 606 829 q 684 869 649 869 q 746 844 727 869 q 765 788 765 819 q 760 755 765 772 q 747 723 756 737 l 558 388 q 541 362 549 374 q 524 340 533 350 l 524 97 q 428 -13 524 -13 m 503 922 q 449 933 469 922 q 412 958 430 944 q 385 976 399 969 q 353 983 372 983 q 317 977 333 983 q 288 962 301 970 q 268 951 277 956 q 250 947 258 947 q 228 959 238 947 q 219 988 219 971 q 254 1053 219 1022 q 295 1078 272 1067 q 346 1089 318 1089 q 401 1080 381 1089 q 435 1055 420 1070 q 461 1035 447 1043 q 497 1026 475 1026 q 531 1033 517 1026 q 556 1048 544 1039 q 574 1059 565 1055 q 594 1063 583 1063 q 621 1053 609 1063 q 633 1022 633 1043 q 617 981 633 999 q 572 942 601 961 q 503 922 544 922 z "},"Z":{"ha":860,"x_min":120,"x_max":724,"o":"m 317 138 l 614 138 q 696 120 668 138 q 724 69 724 102 q 696 18 724 35 q 614 0 668 0 l 231 0 q 149 26 177 0 q 120 96 120 52 q 130 146 120 126 q 163 199 140 166 l 513 722 l 241 722 q 159 740 188 722 q 131 791 131 758 q 159 842 131 824 q 241 860 188 860 l 600 860 q 682 834 653 860 q 710 761 710 808 q 700 715 710 735 q 668 660 691 694 l 317 138 z "},"Ź":{"ha":860,"x_min":120,"x_max":724,"o":"m 317 138 l 614 138 q 696 120 668 138 q 724 69 724 102 q 696 18 724 35 q 614 0 668 0 l 231 0 q 149 26 177 0 q 120 96 120 52 q 130 146 120 126 q 163 199 140 166 l 513 722 l 241 722 q 159 740 188 722 q 131 791 131 758 q 159 842 131 824 q 241 860 188 860 l 600 860 q 682 834 653 860 q 710 761 710 808 q 700 715 710 735 q 668 660 691 694 l 317 138 m 398 915 q 372 923 382 915 q 363 945 363 931 q 387 999 363 966 l 424 1049 q 471 1097 451 1085 q 532 1110 492 1110 l 561 1110 q 596 1099 583 1110 q 609 1072 609 1089 q 583 1026 609 1049 l 522 968 q 460 927 490 940 q 398 915 431 915 z "},"Ž":{"ha":860,"x_min":120,"x_max":724,"o":"m 317 138 l 614 138 q 696 120 668 138 q 724 69 724 102 q 696 18 724 35 q 614 0 668 0 l 231 0 q 149 26 177 0 q 120 96 120 52 q 130 146 120 126 q 163 199 140 166 l 513 722 l 241 722 q 159 740 188 722 q 131 791 131 758 q 159 842 131 824 q 241 860 188 860 l 600 860 q 682 834 653 860 q 710 761 710 808 q 700 715 710 735 q 668 660 691 694 l 317 138 m 576 1018 l 536 977 q 483 928 508 945 q 420 912 458 912 q 357 928 383 912 q 303 977 332 945 l 264 1018 q 248 1053 248 1035 q 263 1086 248 1074 q 301 1099 278 1099 q 336 1089 322 1099 q 365 1060 351 1078 l 420 998 l 475 1060 q 503 1088 488 1076 q 538 1099 518 1099 q 577 1086 563 1099 q 592 1053 592 1074 q 589 1037 592 1046 q 576 1018 585 1028 z "},"Ż":{"ha":860,"x_min":120,"x_max":724,"o":"m 317 138 l 614 138 q 696 120 668 138 q 724 69 724 102 q 696 18 724 35 q 614 0 668 0 l 231 0 q 149 26 177 0 q 120 96 120 52 q 130 146 120 126 q 163 199 140 166 l 513 722 l 241 722 q 159 740 188 722 q 131 791 131 758 q 159 842 131 824 q 241 860 188 860 l 600 860 q 682 834 653 860 q 710 761 710 808 q 700 715 710 735 q 668 660 691 694 l 317 138 m 421 930 q 347 960 377 930 q 317 1034 317 990 q 347 1108 317 1078 q 421 1139 377 1139 q 494 1108 464 1139 q 524 1034 524 1078 q 494 960 524 990 q 421 930 464 930 z "},"a":{"ha":860,"x_min":73,"x_max":817,"o":"m 644 -2 q 573 17 595 -2 q 548 72 551 37 l 545 88 q 509 44 535 67 q 439 3 482 20 q 337 -13 396 -13 q 202 13 262 -13 q 108 89 142 39 q 73 209 73 138 q 113 328 73 281 q 219 399 153 376 q 364 423 285 423 q 444 414 408 423 q 505 394 481 406 q 540 375 530 383 l 540 443 q 527 483 540 465 q 492 513 514 501 q 443 532 471 526 q 385 539 415 539 q 306 531 344 539 q 240 513 268 524 q 213 506 226 508 q 188 504 201 504 q 134 520 155 504 q 113 568 113 536 q 133 614 113 598 q 182 642 154 631 q 276 667 217 656 q 405 677 335 677 q 520 663 465 677 q 619 623 576 649 q 688 556 663 596 q 713 465 713 517 l 713 133 l 747 133 q 799 116 781 133 q 817 67 817 99 q 795 17 817 36 q 719 -2 774 -2 l 644 -2 m 540 258 q 507 281 530 269 q 452 301 483 293 q 389 310 422 310 q 288 288 328 310 q 248 214 248 265 q 264 155 248 178 q 310 123 281 133 q 376 113 339 113 q 449 131 416 113 q 507 171 483 148 q 540 212 531 194 l 540 258 z "},"á":{"ha":860,"x_min":73,"x_max":817,"o":"m 644 -2 q 573 17 595 -2 q 548 72 551 37 l 545 88 q 509 44 535 67 q 439 3 482 20 q 337 -13 396 -13 q 202 13 262 -13 q 108 89 142 39 q 73 209 73 138 q 113 328 73 281 q 219 399 153 376 q 364 423 285 423 q 444 414 408 423 q 505 394 481 406 q 540 375 530 383 l 540 443 q 527 483 540 465 q 492 513 514 501 q 443 532 471 526 q 385 539 415 539 q 306 531 344 539 q 240 513 268 524 q 213 506 226 508 q 188 504 201 504 q 134 520 155 504 q 113 568 113 536 q 133 614 113 598 q 182 642 154 631 q 276 667 217 656 q 405 677 335 677 q 520 663 465 677 q 619 623 576 649 q 688 556 663 596 q 713 465 713 517 l 713 133 l 747 133 q 799 116 781 133 q 817 67 817 99 q 795 17 817 36 q 719 -2 774 -2 l 644 -2 m 540 258 q 507 281 530 269 q 452 301 483 293 q 389 310 422 310 q 288 288 328 310 q 248 214 248 265 q 264 155 248 178 q 310 123 281 133 q 376 113 339 113 q 449 131 416 113 q 507 171 483 148 q 540 212 531 194 l 540 258 m 343 751 q 319 758 331 751 q 308 781 308 764 q 328 835 308 801 l 364 885 q 408 935 386 924 q 469 947 429 947 l 490 947 q 523 936 511 947 q 535 909 535 925 q 508 863 535 886 l 430 789 q 383 759 405 767 q 343 751 362 751 z "},"ă":{"ha":860,"x_min":73,"x_max":817,"o":"m 644 -2 q 573 17 595 -2 q 548 72 551 37 l 545 88 q 509 44 535 67 q 439 3 482 20 q 337 -13 396 -13 q 202 13 262 -13 q 108 89 142 39 q 73 209 73 138 q 113 328 73 281 q 219 399 153 376 q 364 423 285 423 q 444 414 408 423 q 505 394 481 406 q 540 375 530 383 l 540 443 q 527 483 540 465 q 492 513 514 501 q 443 532 471 526 q 385 539 415 539 q 306 531 344 539 q 240 513 268 524 q 213 506 226 508 q 188 504 201 504 q 134 520 155 504 q 113 568 113 536 q 133 614 113 598 q 182 642 154 631 q 276 667 217 656 q 405 677 335 677 q 520 663 465 677 q 619 623 576 649 q 688 556 663 596 q 713 465 713 517 l 713 133 l 747 133 q 799 116 781 133 q 817 67 817 99 q 795 17 817 36 q 719 -2 774 -2 l 644 -2 m 540 258 q 507 281 530 269 q 452 301 483 293 q 389 310 422 310 q 288 288 328 310 q 248 214 248 265 q 264 155 248 178 q 310 123 281 133 q 376 113 339 113 q 449 131 416 113 q 507 171 483 148 q 540 212 531 194 l 540 258 m 540 940 q 580 926 565 940 q 594 890 594 913 q 588 861 594 877 q 566 830 581 845 q 511 775 547 798 q 422 753 475 753 q 340 773 373 753 q 287 822 306 794 q 260 856 268 838 q 253 888 253 874 q 268 926 253 911 q 307 940 283 940 q 352 926 338 940 q 369 892 365 911 q 384 858 373 874 q 424 842 395 842 q 463 858 452 842 q 477 892 474 874 q 494 926 481 911 q 540 940 508 940 z "},"ắ":{"ha":860,"x_min":73,"x_max":817,"o":"m 644 -2 q 573 17 595 -2 q 548 72 551 37 l 545 88 q 509 44 535 67 q 439 3 482 20 q 337 -13 396 -13 q 202 13 262 -13 q 108 89 142 39 q 73 209 73 138 q 113 328 73 281 q 219 399 153 376 q 364 423 285 423 q 444 414 408 423 q 505 394 481 406 q 540 375 530 383 l 540 443 q 527 483 540 465 q 492 513 514 501 q 443 532 471 526 q 385 539 415 539 q 306 531 344 539 q 240 513 268 524 q 213 506 226 508 q 188 504 201 504 q 134 520 155 504 q 113 568 113 536 q 133 614 113 598 q 182 642 154 631 q 276 667 217 656 q 405 677 335 677 q 520 663 465 677 q 619 623 576 649 q 688 556 663 596 q 713 465 713 517 l 713 133 l 747 133 q 799 116 781 133 q 817 67 817 99 q 795 17 817 36 q 719 -2 774 -2 l 644 -2 m 540 258 q 507 281 530 269 q 452 301 483 293 q 389 310 422 310 q 288 288 328 310 q 248 214 248 265 q 264 155 248 178 q 310 123 281 133 q 376 113 339 113 q 449 131 416 113 q 507 171 483 148 q 540 212 531 194 l 540 258 m 540 940 q 580 926 565 940 q 594 890 594 913 q 588 861 594 877 q 566 830 581 845 q 511 775 547 798 q 422 753 475 753 q 340 773 373 753 q 287 822 306 794 q 260 856 268 838 q 253 888 253 874 q 268 926 253 911 q 307 940 283 940 q 352 926 338 940 q 369 892 365 911 q 384 858 373 874 q 424 842 395 842 q 463 858 452 842 q 477 892 474 874 q 494 926 481 911 q 540 940 508 940 m 343 1031 q 319 1037 331 1031 q 308 1060 308 1043 q 328 1114 308 1080 l 364 1165 q 408 1215 386 1203 q 469 1226 429 1226 l 490 1226 q 523 1215 511 1226 q 535 1188 535 1204 q 508 1142 535 1165 l 430 1068 q 383 1038 405 1046 q 343 1031 362 1031 z "},"ặ":{"ha":860,"x_min":73,"x_max":817,"o":"m 644 -2 q 573 17 595 -2 q 548 72 551 37 l 545 88 q 509 44 535 67 q 439 3 482 20 q 337 -13 396 -13 q 202 13 262 -13 q 108 89 142 39 q 73 209 73 138 q 113 328 73 281 q 219 399 153 376 q 364 423 285 423 q 444 414 408 423 q 505 394 481 406 q 540 375 530 383 l 540 443 q 527 483 540 465 q 492 513 514 501 q 443 532 471 526 q 385 539 415 539 q 306 531 344 539 q 240 513 268 524 q 213 506 226 508 q 188 504 201 504 q 134 520 155 504 q 113 568 113 536 q 133 614 113 598 q 182 642 154 631 q 276 667 217 656 q 405 677 335 677 q 520 663 465 677 q 619 623 576 649 q 688 556 663 596 q 713 465 713 517 l 713 133 l 747 133 q 799 116 781 133 q 817 67 817 99 q 795 17 817 36 q 719 -2 774 -2 l 644 -2 m 540 258 q 507 281 530 269 q 452 301 483 293 q 389 310 422 310 q 288 288 328 310 q 248 214 248 265 q 264 155 248 178 q 310 123 281 133 q 376 113 339 113 q 449 131 416 113 q 507 171 483 148 q 540 212 531 194 l 540 258 m 424 -272 q 350 -241 381 -272 q 320 -167 320 -211 q 350 -93 320 -124 q 424 -62 381 -62 q 497 -93 467 -62 q 527 -167 527 -124 q 497 -242 527 -213 q 424 -272 467 -272 m 540 940 q 580 926 565 940 q 594 890 594 913 q 588 861 594 877 q 566 830 581 845 q 511 775 547 798 q 422 753 475 753 q 340 773 373 753 q 287 822 306 794 q 260 856 268 838 q 253 888 253 874 q 268 926 253 911 q 307 940 283 940 q 352 926 338 940 q 369 892 365 911 q 384 858 373 874 q 424 842 395 842 q 463 858 452 842 q 477 892 474 874 q 494 926 481 911 q 540 940 508 940 z "},"ằ":{"ha":860,"x_min":73,"x_max":817,"o":"m 644 -2 q 573 17 595 -2 q 548 72 551 37 l 545 88 q 509 44 535 67 q 439 3 482 20 q 337 -13 396 -13 q 202 13 262 -13 q 108 89 142 39 q 73 209 73 138 q 113 328 73 281 q 219 399 153 376 q 364 423 285 423 q 444 414 408 423 q 505 394 481 406 q 540 375 530 383 l 540 443 q 527 483 540 465 q 492 513 514 501 q 443 532 471 526 q 385 539 415 539 q 306 531 344 539 q 240 513 268 524 q 213 506 226 508 q 188 504 201 504 q 134 520 155 504 q 113 568 113 536 q 133 614 113 598 q 182 642 154 631 q 276 667 217 656 q 405 677 335 677 q 520 663 465 677 q 619 623 576 649 q 688 556 663 596 q 713 465 713 517 l 713 133 l 747 133 q 799 116 781 133 q 817 67 817 99 q 795 17 817 36 q 719 -2 774 -2 l 644 -2 m 540 258 q 507 281 530 269 q 452 301 483 293 q 389 310 422 310 q 288 288 328 310 q 248 214 248 265 q 264 155 248 178 q 310 123 281 133 q 376 113 339 113 q 449 131 416 113 q 507 171 483 148 q 540 212 531 194 l 540 258 m 540 940 q 580 926 565 940 q 594 890 594 913 q 588 861 594 877 q 566 830 581 845 q 511 775 547 798 q 422 753 475 753 q 340 773 373 753 q 287 822 306 794 q 260 856 268 838 q 253 888 253 874 q 268 926 253 911 q 307 940 283 940 q 352 926 338 940 q 369 892 365 911 q 384 858 373 874 q 424 842 395 842 q 463 858 452 842 q 477 892 474 874 q 494 926 481 911 q 540 940 508 940 m 444 1031 q 404 1038 425 1031 q 357 1068 383 1046 l 279 1142 q 252 1188 252 1166 q 264 1215 252 1204 q 298 1226 276 1226 l 317 1226 q 380 1215 358 1226 q 423 1165 401 1203 l 458 1114 q 478 1060 478 1080 q 468 1037 478 1043 q 444 1031 458 1031 z "},"ẳ":{"ha":860,"x_min":73,"x_max":817,"o":"m 644 -2 q 573 17 595 -2 q 548 72 551 37 l 545 88 q 509 44 535 67 q 439 3 482 20 q 337 -13 396 -13 q 202 13 262 -13 q 108 89 142 39 q 73 209 73 138 q 113 328 73 281 q 219 399 153 376 q 364 423 285 423 q 444 414 408 423 q 505 394 481 406 q 540 375 530 383 l 540 443 q 527 483 540 465 q 492 513 514 501 q 443 532 471 526 q 385 539 415 539 q 306 531 344 539 q 240 513 268 524 q 213 506 226 508 q 188 504 201 504 q 134 520 155 504 q 113 568 113 536 q 133 614 113 598 q 182 642 154 631 q 276 667 217 656 q 405 677 335 677 q 520 663 465 677 q 619 623 576 649 q 688 556 663 596 q 713 465 713 517 l 713 133 l 747 133 q 799 116 781 133 q 817 67 817 99 q 795 17 817 36 q 719 -2 774 -2 l 644 -2 m 540 258 q 507 281 530 269 q 452 301 483 293 q 389 310 422 310 q 288 288 328 310 q 248 214 248 265 q 264 155 248 178 q 310 123 281 133 q 376 113 339 113 q 449 131 416 113 q 507 171 483 148 q 540 212 531 194 l 540 258 m 540 940 q 580 926 565 940 q 594 890 594 913 q 588 861 594 877 q 566 830 581 845 q 511 775 547 798 q 422 753 475 753 q 340 773 373 753 q 287 822 306 794 q 260 856 268 838 q 253 888 253 874 q 268 926 253 911 q 307 940 283 940 q 352 926 338 940 q 369 892 365 911 q 384 858 373 874 q 424 842 395 842 q 463 858 452 842 q 477 892 474 874 q 494 926 481 911 q 540 940 508 940 m 390 1013 q 341 1052 341 1013 q 353 1082 341 1072 q 390 1093 365 1093 q 452 1104 422 1093 q 483 1138 483 1115 q 456 1168 483 1160 q 401 1176 429 1176 q 360 1173 376 1176 q 330 1165 343 1169 q 311 1161 322 1162 q 295 1160 301 1160 q 272 1168 282 1160 q 261 1192 261 1176 q 300 1239 261 1222 q 401 1256 339 1256 q 489 1245 448 1256 q 556 1209 530 1235 q 581 1136 581 1183 q 550 1062 581 1089 q 474 1024 519 1035 q 390 1013 430 1013 z "},"ẵ":{"ha":860,"x_min":73,"x_max":817,"o":"m 644 -2 q 573 17 595 -2 q 548 72 551 37 l 545 88 q 509 44 535 67 q 439 3 482 20 q 337 -13 396 -13 q 202 13 262 -13 q 108 89 142 39 q 73 209 73 138 q 113 328 73 281 q 219 399 153 376 q 364 423 285 423 q 444 414 408 423 q 505 394 481 406 q 540 375 530 383 l 540 443 q 527 483 540 465 q 492 513 514 501 q 443 532 471 526 q 385 539 415 539 q 306 531 344 539 q 240 513 268 524 q 213 506 226 508 q 188 504 201 504 q 134 520 155 504 q 113 568 113 536 q 133 614 113 598 q 182 642 154 631 q 276 667 217 656 q 405 677 335 677 q 520 663 465 677 q 619 623 576 649 q 688 556 663 596 q 713 465 713 517 l 713 133 l 747 133 q 799 116 781 133 q 817 67 817 99 q 795 17 817 36 q 719 -2 774 -2 l 644 -2 m 540 258 q 507 281 530 269 q 452 301 483 293 q 389 310 422 310 q 288 288 328 310 q 248 214 248 265 q 264 155 248 178 q 310 123 281 133 q 376 113 339 113 q 449 131 416 113 q 507 171 483 148 q 540 212 531 194 l 540 258 m 540 940 q 580 926 565 940 q 594 890 594 913 q 588 861 594 877 q 566 830 581 845 q 511 775 547 798 q 422 753 475 753 q 340 773 373 753 q 287 822 306 794 q 260 856 268 838 q 253 888 253 874 q 268 926 253 911 q 307 940 283 940 q 352 926 338 940 q 369 892 365 911 q 384 858 373 874 q 424 842 395 842 q 463 858 452 842 q 477 892 474 874 q 494 926 481 911 q 540 940 508 940 m 501 1015 q 447 1026 467 1015 q 410 1051 427 1036 q 383 1069 397 1062 q 350 1076 370 1076 q 314 1069 331 1076 q 285 1055 298 1063 q 248 1040 263 1040 q 226 1052 235 1040 q 217 1080 217 1064 q 252 1146 217 1114 q 292 1171 269 1160 q 344 1182 316 1182 q 399 1172 379 1182 q 433 1148 418 1163 q 459 1128 445 1136 q 495 1119 472 1119 q 528 1125 515 1119 q 553 1140 542 1131 q 571 1152 562 1147 q 592 1156 581 1156 q 618 1146 606 1156 q 631 1115 631 1135 q 615 1073 631 1091 q 570 1034 599 1053 q 501 1015 541 1015 z "},"ǎ":{"ha":860,"x_min":73,"x_max":817,"o":"m 644 -2 q 573 17 595 -2 q 548 72 551 37 l 545 88 q 509 44 535 67 q 439 3 482 20 q 337 -13 396 -13 q 202 13 262 -13 q 108 89 142 39 q 73 209 73 138 q 113 328 73 281 q 219 399 153 376 q 364 423 285 423 q 444 414 408 423 q 505 394 481 406 q 540 375 530 383 l 540 443 q 527 483 540 465 q 492 513 514 501 q 443 532 471 526 q 385 539 415 539 q 306 531 344 539 q 240 513 268 524 q 213 506 226 508 q 188 504 201 504 q 134 520 155 504 q 113 568 113 536 q 133 614 113 598 q 182 642 154 631 q 276 667 217 656 q 405 677 335 677 q 520 663 465 677 q 619 623 576 649 q 688 556 663 596 q 713 465 713 517 l 713 133 l 747 133 q 799 116 781 133 q 817 67 817 99 q 795 17 817 36 q 719 -2 774 -2 l 644 -2 m 540 258 q 507 281 530 269 q 452 301 483 293 q 389 310 422 310 q 288 288 328 310 q 248 214 248 265 q 264 155 248 178 q 310 123 281 133 q 376 113 339 113 q 449 131 416 113 q 507 171 483 148 q 540 212 531 194 l 540 258 m 580 846 l 540 804 q 487 756 512 772 q 424 740 462 740 q 361 756 386 740 q 308 804 336 773 l 268 846 q 252 881 252 862 q 267 914 252 901 q 306 926 281 926 q 341 916 326 926 q 369 888 355 906 l 424 826 l 479 888 q 507 915 492 904 q 542 926 522 926 q 582 914 567 926 q 597 881 597 901 q 580 846 597 864 z "},"â":{"ha":860,"x_min":73,"x_max":817,"o":"m 644 -2 q 573 17 595 -2 q 548 72 551 37 l 545 88 q 509 44 535 67 q 439 3 482 20 q 337 -13 396 -13 q 202 13 262 -13 q 108 89 142 39 q 73 209 73 138 q 113 328 73 281 q 219 399 153 376 q 364 423 285 423 q 444 414 408 423 q 505 394 481 406 q 540 375 530 383 l 540 443 q 527 483 540 465 q 492 513 514 501 q 443 532 471 526 q 385 539 415 539 q 306 531 344 539 q 240 513 268 524 q 213 506 226 508 q 188 504 201 504 q 134 520 155 504 q 113 568 113 536 q 133 614 113 598 q 182 642 154 631 q 276 667 217 656 q 405 677 335 677 q 520 663 465 677 q 619 623 576 649 q 688 556 663 596 q 713 465 713 517 l 713 133 l 747 133 q 799 116 781 133 q 817 67 817 99 q 795 17 817 36 q 719 -2 774 -2 l 644 -2 m 540 258 q 507 281 530 269 q 452 301 483 293 q 389 310 422 310 q 288 288 328 310 q 248 214 248 265 q 264 155 248 178 q 310 123 281 133 q 376 113 339 113 q 449 131 416 113 q 507 171 483 148 q 540 212 531 194 l 540 258 m 580 821 q 597 785 597 803 q 582 752 597 765 q 542 740 567 740 q 507 751 522 740 q 479 778 492 762 l 424 840 l 369 778 q 341 750 355 760 q 306 740 326 740 q 267 752 281 740 q 252 785 252 765 q 268 821 252 804 l 308 862 q 361 910 336 894 q 424 926 386 926 q 487 910 462 926 q 540 862 512 894 l 580 821 z "},"ấ":{"ha":860,"x_min":73,"x_max":817,"o":"m 644 -2 q 573 17 595 -2 q 548 72 551 37 l 545 88 q 509 44 535 67 q 439 3 482 20 q 337 -13 396 -13 q 202 13 262 -13 q 108 89 142 39 q 73 209 73 138 q 113 328 73 281 q 219 399 153 376 q 364 423 285 423 q 444 414 408 423 q 505 394 481 406 q 540 375 530 383 l 540 443 q 527 483 540 465 q 492 513 514 501 q 443 532 471 526 q 385 539 415 539 q 306 531 344 539 q 240 513 268 524 q 213 506 226 508 q 188 504 201 504 q 134 520 155 504 q 113 568 113 536 q 133 614 113 598 q 182 642 154 631 q 276 667 217 656 q 405 677 335 677 q 520 663 465 677 q 619 623 576 649 q 688 556 663 596 q 713 465 713 517 l 713 133 l 747 133 q 799 116 781 133 q 817 67 817 99 q 795 17 817 36 q 719 -2 774 -2 l 644 -2 m 540 258 q 507 281 530 269 q 452 301 483 293 q 389 310 422 310 q 288 288 328 310 q 248 214 248 265 q 264 155 248 178 q 310 123 281 133 q 376 113 339 113 q 449 131 416 113 q 507 171 483 148 q 540 212 531 194 l 540 258 m 580 821 q 597 785 597 803 q 582 752 597 765 q 542 740 567 740 q 507 751 522 740 q 479 778 492 762 l 424 840 l 369 778 q 341 750 355 760 q 306 740 326 740 q 267 752 281 740 q 252 785 252 765 q 268 821 252 804 l 308 862 q 361 910 336 894 q 424 926 386 926 q 487 910 462 926 q 540 862 512 894 l 580 821 m 584 872 q 560 878 572 872 q 549 902 549 885 q 569 956 549 922 l 605 1006 q 649 1056 627 1045 q 710 1067 670 1067 l 731 1067 q 764 1057 752 1067 q 776 1030 776 1046 q 749 983 776 1007 l 671 910 q 624 880 646 888 q 584 872 603 872 z "},"ậ":{"ha":860,"x_min":73,"x_max":817,"o":"m 644 -2 q 573 17 595 -2 q 548 72 551 37 l 545 88 q 509 44 535 67 q 439 3 482 20 q 337 -13 396 -13 q 202 13 262 -13 q 108 89 142 39 q 73 209 73 138 q 113 328 73 281 q 219 399 153 376 q 364 423 285 423 q 444 414 408 423 q 505 394 481 406 q 540 375 530 383 l 540 443 q 527 483 540 465 q 492 513 514 501 q 443 532 471 526 q 385 539 415 539 q 306 531 344 539 q 240 513 268 524 q 213 506 226 508 q 188 504 201 504 q 134 520 155 504 q 113 568 113 536 q 133 614 113 598 q 182 642 154 631 q 276 667 217 656 q 405 677 335 677 q 520 663 465 677 q 619 623 576 649 q 688 556 663 596 q 713 465 713 517 l 713 133 l 747 133 q 799 116 781 133 q 817 67 817 99 q 795 17 817 36 q 719 -2 774 -2 l 644 -2 m 540 258 q 507 281 530 269 q 452 301 483 293 q 389 310 422 310 q 288 288 328 310 q 248 214 248 265 q 264 155 248 178 q 310 123 281 133 q 376 113 339 113 q 449 131 416 113 q 507 171 483 148 q 540 212 531 194 l 540 258 m 424 -272 q 350 -241 381 -272 q 320 -167 320 -211 q 350 -93 320 -124 q 424 -62 381 -62 q 497 -93 467 -62 q 527 -167 527 -124 q 497 -242 527 -213 q 424 -272 467 -272 m 580 821 q 597 785 597 803 q 582 752 597 765 q 542 740 567 740 q 507 751 522 740 q 479 778 492 762 l 424 840 l 369 778 q 341 750 355 760 q 306 740 326 740 q 267 752 281 740 q 252 785 252 765 q 268 821 252 804 l 308 862 q 361 910 336 894 q 424 926 386 926 q 487 910 462 926 q 540 862 512 894 l 580 821 z "},"ầ":{"ha":860,"x_min":73,"x_max":817,"o":"m 644 -2 q 573 17 595 -2 q 548 72 551 37 l 545 88 q 509 44 535 67 q 439 3 482 20 q 337 -13 396 -13 q 202 13 262 -13 q 108 89 142 39 q 73 209 73 138 q 113 328 73 281 q 219 399 153 376 q 364 423 285 423 q 444 414 408 423 q 505 394 481 406 q 540 375 530 383 l 540 443 q 527 483 540 465 q 492 513 514 501 q 443 532 471 526 q 385 539 415 539 q 306 531 344 539 q 240 513 268 524 q 213 506 226 508 q 188 504 201 504 q 134 520 155 504 q 113 568 113 536 q 133 614 113 598 q 182 642 154 631 q 276 667 217 656 q 405 677 335 677 q 520 663 465 677 q 619 623 576 649 q 688 556 663 596 q 713 465 713 517 l 713 133 l 747 133 q 799 116 781 133 q 817 67 817 99 q 795 17 817 36 q 719 -2 774 -2 l 644 -2 m 540 258 q 507 281 530 269 q 452 301 483 293 q 389 310 422 310 q 288 288 328 310 q 248 214 248 265 q 264 155 248 178 q 310 123 281 133 q 376 113 339 113 q 449 131 416 113 q 507 171 483 148 q 540 212 531 194 l 540 258 m 580 821 q 597 785 597 803 q 582 752 597 765 q 542 740 567 740 q 507 751 522 740 q 479 778 492 762 l 424 840 l 369 778 q 341 750 355 760 q 306 740 326 740 q 267 752 281 740 q 252 785 252 765 q 268 821 252 804 l 308 862 q 361 910 336 894 q 424 926 386 926 q 487 910 462 926 q 540 862 512 894 l 580 821 m 648 872 q 607 880 628 872 q 560 910 586 888 l 483 983 q 456 1030 456 1008 q 468 1057 456 1046 q 501 1067 480 1067 l 521 1067 q 583 1056 561 1067 q 626 1006 605 1045 l 662 956 q 682 902 682 922 q 672 878 682 885 q 648 872 661 872 z "},"ẩ":{"ha":860,"x_min":73,"x_max":817,"o":"m 644 -2 q 573 17 595 -2 q 548 72 551 37 l 545 88 q 509 44 535 67 q 439 3 482 20 q 337 -13 396 -13 q 202 13 262 -13 q 108 89 142 39 q 73 209 73 138 q 113 328 73 281 q 219 399 153 376 q 364 423 285 423 q 444 414 408 423 q 505 394 481 406 q 540 375 530 383 l 540 443 q 527 483 540 465 q 492 513 514 501 q 443 532 471 526 q 385 539 415 539 q 306 531 344 539 q 240 513 268 524 q 213 506 226 508 q 188 504 201 504 q 134 520 155 504 q 113 568 113 536 q 133 614 113 598 q 182 642 154 631 q 276 667 217 656 q 405 677 335 677 q 520 663 465 677 q 619 623 576 649 q 688 556 663 596 q 713 465 713 517 l 713 133 l 747 133 q 799 116 781 133 q 817 67 817 99 q 795 17 817 36 q 719 -2 774 -2 l 644 -2 m 540 258 q 507 281 530 269 q 452 301 483 293 q 389 310 422 310 q 288 288 328 310 q 248 214 248 265 q 264 155 248 178 q 310 123 281 133 q 376 113 339 113 q 449 131 416 113 q 507 171 483 148 q 540 212 531 194 l 540 258 m 580 821 q 597 785 597 803 q 582 752 597 765 q 542 740 567 740 q 507 751 522 740 q 479 778 492 762 l 424 840 l 369 778 q 341 750 355 760 q 306 740 326 740 q 267 752 281 740 q 252 785 252 765 q 268 821 252 804 l 308 862 q 361 910 336 894 q 424 926 386 926 q 487 910 462 926 q 540 862 512 894 l 580 821 m 591 885 q 542 924 542 885 q 554 954 542 943 q 591 965 566 965 q 654 976 624 965 q 684 1010 684 987 q 657 1040 684 1031 q 602 1048 631 1048 q 561 1044 578 1048 q 531 1036 544 1040 q 513 1032 523 1033 q 497 1031 503 1031 q 473 1039 483 1031 q 463 1064 463 1047 q 501 1110 463 1093 q 602 1127 540 1127 q 690 1117 649 1127 q 757 1080 731 1106 q 783 1008 783 1054 q 751 934 783 960 q 676 896 720 907 q 591 885 631 885 z "},"ẫ":{"ha":860,"x_min":73,"x_max":817,"o":"m 644 -2 q 573 17 595 -2 q 548 72 551 37 l 545 88 q 509 44 535 67 q 439 3 482 20 q 337 -13 396 -13 q 202 13 262 -13 q 108 89 142 39 q 73 209 73 138 q 113 328 73 281 q 219 399 153 376 q 364 423 285 423 q 444 414 408 423 q 505 394 481 406 q 540 375 530 383 l 540 443 q 527 483 540 465 q 492 513 514 501 q 443 532 471 526 q 385 539 415 539 q 306 531 344 539 q 240 513 268 524 q 213 506 226 508 q 188 504 201 504 q 134 520 155 504 q 113 568 113 536 q 133 614 113 598 q 182 642 154 631 q 276 667 217 656 q 405 677 335 677 q 520 663 465 677 q 619 623 576 649 q 688 556 663 596 q 713 465 713 517 l 713 133 l 747 133 q 799 116 781 133 q 817 67 817 99 q 795 17 817 36 q 719 -2 774 -2 l 644 -2 m 540 258 q 507 281 530 269 q 452 301 483 293 q 389 310 422 310 q 288 288 328 310 q 248 214 248 265 q 264 155 248 178 q 310 123 281 133 q 376 113 339 113 q 449 131 416 113 q 507 171 483 148 q 540 212 531 194 l 540 258 m 580 821 q 597 785 597 803 q 582 752 597 765 q 542 740 567 740 q 507 751 522 740 q 479 778 492 762 l 424 840 l 369 778 q 341 750 355 760 q 306 740 326 740 q 267 752 281 740 q 252 785 252 765 q 268 821 252 804 l 308 862 q 361 910 336 894 q 424 926 386 926 q 487 910 462 926 q 540 862 512 894 l 580 821 m 501 1001 q 447 1012 467 1001 q 410 1037 427 1022 q 383 1055 397 1048 q 350 1062 370 1062 q 314 1055 331 1062 q 285 1041 298 1049 q 248 1026 263 1026 q 226 1038 235 1026 q 217 1066 217 1050 q 252 1132 217 1100 q 292 1157 269 1147 q 344 1168 316 1168 q 399 1158 379 1168 q 433 1134 418 1149 q 459 1114 445 1122 q 495 1106 472 1106 q 528 1111 515 1106 q 553 1126 542 1117 q 571 1138 562 1133 q 592 1142 581 1142 q 618 1132 606 1142 q 631 1101 631 1122 q 615 1059 631 1077 q 570 1020 599 1040 q 501 1001 541 1001 z "},"ȁ":{"ha":860,"x_min":73,"x_max":817,"o":"m 644 -2 q 573 17 595 -2 q 548 72 551 37 l 545 88 q 509 44 535 67 q 439 3 482 20 q 337 -13 396 -13 q 202 13 262 -13 q 108 89 142 39 q 73 209 73 138 q 113 328 73 281 q 219 399 153 376 q 364 423 285 423 q 444 414 408 423 q 505 394 481 406 q 540 375 530 383 l 540 443 q 527 483 540 465 q 492 513 514 501 q 443 532 471 526 q 385 539 415 539 q 306 531 344 539 q 240 513 268 524 q 213 506 226 508 q 188 504 201 504 q 134 520 155 504 q 113 568 113 536 q 133 614 113 598 q 182 642 154 631 q 276 667 217 656 q 405 677 335 677 q 520 663 465 677 q 619 623 576 649 q 688 556 663 596 q 713 465 713 517 l 713 133 l 747 133 q 799 116 781 133 q 817 67 817 99 q 795 17 817 36 q 719 -2 774 -2 l 644 -2 m 540 258 q 507 281 530 269 q 452 301 483 293 q 389 310 422 310 q 288 288 328 310 q 248 214 248 265 q 264 155 248 178 q 310 123 281 133 q 376 113 339 113 q 449 131 416 113 q 507 171 483 148 q 540 212 531 194 l 540 258 m 328 751 q 275 764 300 751 q 223 804 251 776 l 166 863 q 149 886 153 874 q 144 909 144 898 q 155 936 144 925 q 184 947 166 947 l 209 947 q 262 934 244 947 q 301 885 280 922 l 337 836 q 359 781 359 801 q 351 759 359 767 q 328 751 342 751 m 553 751 q 500 764 525 751 q 447 804 474 776 l 390 863 q 368 909 368 885 q 380 936 368 925 q 410 947 391 947 l 434 947 q 487 934 469 947 q 526 885 505 922 l 563 836 q 583 781 583 803 q 575 759 583 767 q 553 751 567 751 z "},"ä":{"ha":860,"x_min":73,"x_max":817,"o":"m 644 -2 q 573 17 595 -2 q 548 72 551 37 l 545 88 q 509 44 535 67 q 439 3 482 20 q 337 -13 396 -13 q 202 13 262 -13 q 108 89 142 39 q 73 209 73 138 q 113 328 73 281 q 219 399 153 376 q 364 423 285 423 q 444 414 408 423 q 505 394 481 406 q 540 375 530 383 l 540 443 q 527 483 540 465 q 492 513 514 501 q 443 532 471 526 q 385 539 415 539 q 306 531 344 539 q 240 513 268 524 q 213 506 226 508 q 188 504 201 504 q 134 520 155 504 q 113 568 113 536 q 133 614 113 598 q 182 642 154 631 q 276 667 217 656 q 405 677 335 677 q 520 663 465 677 q 619 623 576 649 q 688 556 663 596 q 713 465 713 517 l 713 133 l 747 133 q 799 116 781 133 q 817 67 817 99 q 795 17 817 36 q 719 -2 774 -2 l 644 -2 m 540 258 q 507 281 530 269 q 452 301 483 293 q 389 310 422 310 q 288 288 328 310 q 248 214 248 265 q 264 155 248 178 q 310 123 281 133 q 376 113 339 113 q 449 131 416 113 q 507 171 483 148 q 540 212 531 194 l 540 258 m 278 753 q 205 783 235 753 q 175 856 175 813 q 205 932 175 901 q 278 962 235 962 q 352 932 322 962 q 383 856 383 901 q 352 783 383 813 q 278 753 322 753 m 567 753 q 494 783 524 753 q 464 856 464 813 q 494 932 464 901 q 567 962 524 962 q 642 932 611 962 q 672 856 672 901 q 642 783 672 813 q 567 753 611 753 z "},"ạ":{"ha":860,"x_min":73,"x_max":817,"o":"m 644 -2 q 573 17 595 -2 q 548 72 551 37 l 545 88 q 509 44 535 67 q 439 3 482 20 q 337 -13 396 -13 q 202 13 262 -13 q 108 89 142 39 q 73 209 73 138 q 113 328 73 281 q 219 399 153 376 q 364 423 285 423 q 444 414 408 423 q 505 394 481 406 q 540 375 530 383 l 540 443 q 527 483 540 465 q 492 513 514 501 q 443 532 471 526 q 385 539 415 539 q 306 531 344 539 q 240 513 268 524 q 213 506 226 508 q 188 504 201 504 q 134 520 155 504 q 113 568 113 536 q 133 614 113 598 q 182 642 154 631 q 276 667 217 656 q 405 677 335 677 q 520 663 465 677 q 619 623 576 649 q 688 556 663 596 q 713 465 713 517 l 713 133 l 747 133 q 799 116 781 133 q 817 67 817 99 q 795 17 817 36 q 719 -2 774 -2 l 644 -2 m 540 258 q 507 281 530 269 q 452 301 483 293 q 389 310 422 310 q 288 288 328 310 q 248 214 248 265 q 264 155 248 178 q 310 123 281 133 q 376 113 339 113 q 449 131 416 113 q 507 171 483 148 q 540 212 531 194 l 540 258 m 424 -272 q 350 -241 381 -272 q 320 -167 320 -211 q 350 -93 320 -124 q 424 -62 381 -62 q 497 -93 467 -62 q 527 -167 527 -124 q 497 -242 527 -213 q 424 -272 467 -272 z "},"à":{"ha":860,"x_min":73,"x_max":817,"o":"m 644 -2 q 573 17 595 -2 q 548 72 551 37 l 545 88 q 509 44 535 67 q 439 3 482 20 q 337 -13 396 -13 q 202 13 262 -13 q 108 89 142 39 q 73 209 73 138 q 113 328 73 281 q 219 399 153 376 q 364 423 285 423 q 444 414 408 423 q 505 394 481 406 q 540 375 530 383 l 540 443 q 527 483 540 465 q 492 513 514 501 q 443 532 471 526 q 385 539 415 539 q 306 531 344 539 q 240 513 268 524 q 213 506 226 508 q 188 504 201 504 q 134 520 155 504 q 113 568 113 536 q 133 614 113 598 q 182 642 154 631 q 276 667 217 656 q 405 677 335 677 q 520 663 465 677 q 619 623 576 649 q 688 556 663 596 q 713 465 713 517 l 713 133 l 747 133 q 799 116 781 133 q 817 67 817 99 q 795 17 817 36 q 719 -2 774 -2 l 644 -2 m 540 258 q 507 281 530 269 q 452 301 483 293 q 389 310 422 310 q 288 288 328 310 q 248 214 248 265 q 264 155 248 178 q 310 123 281 133 q 376 113 339 113 q 449 131 416 113 q 507 171 483 148 q 540 212 531 194 l 540 258 m 444 751 q 404 759 425 751 q 357 789 383 767 l 279 863 q 252 909 252 887 q 264 936 252 925 q 298 947 276 947 l 317 947 q 380 935 358 947 q 423 885 401 924 l 458 835 q 478 781 478 801 q 468 758 478 764 q 444 751 458 751 z "},"ả":{"ha":860,"x_min":73,"x_max":817,"o":"m 644 -2 q 573 17 595 -2 q 548 72 551 37 l 545 88 q 509 44 535 67 q 439 3 482 20 q 337 -13 396 -13 q 202 13 262 -13 q 108 89 142 39 q 73 209 73 138 q 113 328 73 281 q 219 399 153 376 q 364 423 285 423 q 444 414 408 423 q 505 394 481 406 q 540 375 530 383 l 540 443 q 527 483 540 465 q 492 513 514 501 q 443 532 471 526 q 385 539 415 539 q 306 531 344 539 q 240 513 268 524 q 213 506 226 508 q 188 504 201 504 q 134 520 155 504 q 113 568 113 536 q 133 614 113 598 q 182 642 154 631 q 276 667 217 656 q 405 677 335 677 q 520 663 465 677 q 619 623 576 649 q 688 556 663 596 q 713 465 713 517 l 713 133 l 747 133 q 799 116 781 133 q 817 67 817 99 q 795 17 817 36 q 719 -2 774 -2 l 644 -2 m 540 258 q 507 281 530 269 q 452 301 483 293 q 389 310 422 310 q 288 288 328 310 q 248 214 248 265 q 264 155 248 178 q 310 123 281 133 q 376 113 339 113 q 449 131 416 113 q 507 171 483 148 q 540 212 531 194 l 540 258 m 390 734 q 341 773 341 734 q 353 803 341 792 q 390 814 365 814 q 452 825 422 814 q 483 859 483 836 q 456 889 483 881 q 401 897 429 897 q 360 893 376 897 q 330 885 343 890 q 311 882 322 883 q 295 881 301 881 q 272 889 282 881 q 261 913 261 897 q 300 959 261 942 q 401 976 339 976 q 489 966 448 976 q 556 930 530 956 q 581 857 581 903 q 550 783 581 810 q 474 745 519 756 q 390 734 430 734 z "},"ȃ":{"ha":860,"x_min":73,"x_max":817,"o":"m 644 -2 q 573 17 595 -2 q 548 72 551 37 l 545 88 q 509 44 535 67 q 439 3 482 20 q 337 -13 396 -13 q 202 13 262 -13 q 108 89 142 39 q 73 209 73 138 q 113 328 73 281 q 219 399 153 376 q 364 423 285 423 q 444 414 408 423 q 505 394 481 406 q 540 375 530 383 l 540 443 q 527 483 540 465 q 492 513 514 501 q 443 532 471 526 q 385 539 415 539 q 306 531 344 539 q 240 513 268 524 q 213 506 226 508 q 188 504 201 504 q 134 520 155 504 q 113 568 113 536 q 133 614 113 598 q 182 642 154 631 q 276 667 217 656 q 405 677 335 677 q 520 663 465 677 q 619 623 576 649 q 688 556 663 596 q 713 465 713 517 l 713 133 l 747 133 q 799 116 781 133 q 817 67 817 99 q 795 17 817 36 q 719 -2 774 -2 l 644 -2 m 540 258 q 507 281 530 269 q 452 301 483 293 q 389 310 422 310 q 288 288 328 310 q 248 214 248 265 q 264 155 248 178 q 310 123 281 133 q 376 113 339 113 q 449 131 416 113 q 507 171 483 148 q 540 212 531 194 l 540 258 m 540 751 q 494 766 508 751 q 477 800 481 781 q 463 833 474 817 q 424 849 452 849 q 384 833 395 849 q 369 799 373 817 q 352 766 365 780 q 307 751 338 751 q 268 766 283 751 q 253 803 253 780 q 261 835 253 817 q 288 869 269 853 q 340 918 306 898 q 422 938 373 938 q 511 916 475 938 q 566 861 547 893 q 588 830 581 846 q 594 801 594 815 q 580 765 594 778 q 540 751 565 751 z "},"ā":{"ha":860,"x_min":73,"x_max":817,"o":"m 644 -2 q 573 17 595 -2 q 548 72 551 37 l 545 88 q 509 44 535 67 q 439 3 482 20 q 337 -13 396 -13 q 202 13 262 -13 q 108 89 142 39 q 73 209 73 138 q 113 328 73 281 q 219 399 153 376 q 364 423 285 423 q 444 414 408 423 q 505 394 481 406 q 540 375 530 383 l 540 443 q 527 483 540 465 q 492 513 514 501 q 443 532 471 526 q 385 539 415 539 q 306 531 344 539 q 240 513 268 524 q 213 506 226 508 q 188 504 201 504 q 134 520 155 504 q 113 568 113 536 q 133 614 113 598 q 182 642 154 631 q 276 667 217 656 q 405 677 335 677 q 520 663 465 677 q 619 623 576 649 q 688 556 663 596 q 713 465 713 517 l 713 133 l 747 133 q 799 116 781 133 q 817 67 817 99 q 795 17 817 36 q 719 -2 774 -2 l 644 -2 m 540 258 q 507 281 530 269 q 452 301 483 293 q 389 310 422 310 q 288 288 328 310 q 248 214 248 265 q 264 155 248 178 q 310 123 281 133 q 376 113 339 113 q 449 131 416 113 q 507 171 483 148 q 540 212 531 194 l 540 258 m 160 844 q 183 884 160 869 q 257 899 206 899 l 590 899 q 664 884 641 899 q 687 844 687 869 q 664 804 687 819 q 590 789 641 789 l 257 789 q 183 804 206 789 q 160 844 160 819 z "},"ą":{"ha":860,"x_min":73,"x_max":844,"o":"m 644 -2 q 573 17 595 -2 q 548 72 551 37 l 545 88 q 509 44 535 67 q 439 3 482 20 q 337 -13 396 -13 q 202 13 262 -13 q 108 89 142 39 q 73 209 73 138 q 113 328 73 281 q 219 399 153 376 q 364 423 285 423 q 444 414 408 423 q 505 394 481 406 q 540 375 530 383 l 540 443 q 527 483 540 465 q 492 513 514 501 q 443 532 471 526 q 385 539 415 539 q 306 531 344 539 q 240 513 268 524 q 213 506 226 508 q 188 504 201 504 q 134 520 155 504 q 113 568 113 536 q 133 614 113 598 q 182 642 154 631 q 276 667 217 656 q 405 677 335 677 q 520 663 465 677 q 619 623 576 649 q 688 556 663 596 q 713 465 713 517 l 713 133 l 747 133 q 799 116 781 133 q 817 67 817 99 q 795 17 817 36 q 719 -2 774 -2 l 644 -2 m 540 258 q 507 281 530 269 q 452 301 483 293 q 389 310 422 310 q 288 288 328 310 q 248 214 248 265 q 264 155 248 178 q 310 123 281 133 q 376 113 339 113 q 449 131 416 113 q 507 171 483 148 q 540 212 531 194 l 540 258 m 701 -328 q 609 -315 652 -328 q 538 -273 565 -302 q 511 -193 511 -243 q 525 -124 511 -158 q 559 -64 538 -91 q 603 -20 581 -37 q 647 0 626 -3 l 731 0 q 697 -35 716 -9 q 665 -93 678 -60 q 651 -155 651 -125 q 668 -201 651 -187 q 714 -216 685 -216 q 737 -214 723 -216 q 760 -210 751 -212 q 781 -207 772 -208 q 798 -206 790 -206 q 834 -219 823 -206 q 844 -254 844 -233 q 802 -310 844 -292 q 701 -328 760 -328 z "},"å":{"ha":860,"x_min":73,"x_max":817,"o":"m 644 -2 q 573 17 595 -2 q 548 72 551 37 l 545 88 q 509 44 535 67 q 439 3 482 20 q 337 -13 396 -13 q 202 13 262 -13 q 108 89 142 39 q 73 209 73 138 q 113 328 73 281 q 219 399 153 376 q 364 423 285 423 q 444 414 408 423 q 505 394 481 406 q 540 375 530 383 l 540 443 q 527 483 540 465 q 492 513 514 501 q 443 532 471 526 q 385 539 415 539 q 306 531 344 539 q 240 513 268 524 q 213 506 226 508 q 188 504 201 504 q 134 520 155 504 q 113 568 113 536 q 133 614 113 598 q 182 642 154 631 q 276 667 217 656 q 405 677 335 677 q 520 663 465 677 q 619 623 576 649 q 688 556 663 596 q 713 465 713 517 l 713 133 l 747 133 q 799 116 781 133 q 817 67 817 99 q 795 17 817 36 q 719 -2 774 -2 l 644 -2 m 540 258 q 507 281 530 269 q 452 301 483 293 q 389 310 422 310 q 288 288 328 310 q 248 214 248 265 q 264 155 248 178 q 310 123 281 133 q 376 113 339 113 q 449 131 416 113 q 507 171 483 148 q 540 212 531 194 l 540 258 m 425 721 q 328 760 369 721 q 288 857 288 799 q 306 925 288 894 q 356 974 324 955 q 425 992 388 992 q 492 974 461 992 q 541 924 523 955 q 560 857 560 894 q 519 760 560 799 q 425 721 479 721 m 425 810 q 456 823 443 810 q 469 858 469 836 q 456 888 469 876 q 425 901 443 901 q 392 888 405 901 q 378 858 378 876 q 392 823 378 836 q 425 810 405 810 z "}}}
